<svg id="Layer_1" data-name="Layer 1" xmlns="http://www.w3.org/2000/svg" viewBox="0 0 1216.23 951.82"><defs><style>.cls-1{fill:#fff;}</style></defs><path class="cls-1" d="M604.66,667.27h6.92v-.08C609.28,667.24,607,667.27,604.66,667.27Z"/><path class="cls-1" d="M685.56,836v0h1.53C686.58,836,686.07,836,685.56,836Z"/><path class="cls-1" d="M1216.23,138.5q-.59,25.14-25.79,78.67-26.46,55.4-46.58,68-15.1,9.45-163.69,74.27-96.3,42.81-146,104.51,20.76,5.66,53.5,6.3,22.05.63,60.46-1.28,42.76-1.87,56-1.87,120.89,0,134.1,32.08,0,28.35-69.87,106.39Q971.38,714.5,811.46,805.77q-38.18,21.83-86.87,27.89a318.72,318.72,0,0,1-37.5,2.32c-.51,0-1,0-1.53,0q-44.73-.39-91.27-15.72-59.82-18.9-75.54-51Q451.34,833.64,357,835.9c-2.3.06-4.6.08-6.93.08H333q-37.74,0-61.67-3.77Q260,830.29,226,815.84,198.33,803.26,165,803.25q-56,0-117.7,97.56L30.88,932.3Q20.16,951.79,8.21,951.82q-8.81,0-8.17-9.45,2.52-25.2,17.62-57.28Q125.92,657.21,244.27,657.2q69.28,40.93,90.67,40.91h66.73q56.64,0,76.17-15.09,24.56-19.53,59.8-79.32,32.73-55.41,61.67-81.22l6.93,5q-10.05,24.54-28.94,74.27a213.26,213.26,0,0,0-13.22,74.3q0,22,52.88,22h68.6l20.79.65c6.13.09,12.23.09,18.24,0q157.88-2.51,276.35-90.64,61.69-45.32,69.9-76.17-67.36-5.65-144.8-5.64-18.25,0-55.09,2.81t-55.06,2.83q-27.07,0-27.07-15.09,0-22.68,25.17-73.67,78.68-158.61,232.91-212.77Q1108,209,1142.59,187q20.76-23.26,68.62-56.65Z"/><path class="cls-1" d="M935.49,95.07v-6.3L1029.28,0q71.15,51.61,71.12,86.24,0,20.17-82.44,82.47-30.21-34-39-42.81Q948.71,95,935.49,95.07Z"/><path class="cls-1" d="M599.52,448c-1.43.26-2.85.59-4.29.75-1.18.12-2.35.36-3.52.45-.8.05-1.58.23-2.37.24a18.4,18.4,0,0,0-2.11.24,2.06,2.06,0,0,1-.43,0c-.13,0-.26,0-.39,0-.89.09-1.78.21-2.68.27-.69,0-1.38,0-2.07,0h-.17l-2,.16a7.58,7.58,0,0,1-1.64.08c-.56-.08-1.09.15-1.64,0a1.71,1.71,0,0,0-.38,0H575l-.39,0c-.19,0-.37,0-.56,0a.91.91,0,0,0-.17,0c-.48,0-1,.06-1.46,0s-.91,0-1.36-.07-.69,0-1,0a8.7,8.7,0,0,1-1.25,0c-.36,0-.71-.05-1.07-.06s-.92,0-1.37-.06-.8-.07-1.19-.1l-.73,0c-.35,0-.71,0-1.06-.06s-.76-.07-1.14-.1l-1-.06-.69-.06-1.49-.17-.93-.12c-.53-.08-1.07-.16-1.6-.22s-1-.1-1.47-.17-.87-.14-1.3-.21c-.78-.14-1.55-.27-2.32-.43-.54-.1-1.07-.25-1.6-.38-.33-.07-.67-.13-1-.21a12.18,12.18,0,0,1-1.35-.36,12,12,0,0,1-2.2-1.05,15.94,15.94,0,0,1-2.16-1.58,15.14,15.14,0,0,1-2.11-2.28,9.93,9.93,0,0,1-1.12-1.74c-.22-.44-.49-.86-.72-1.3a9.37,9.37,0,0,1-.38-.86c-.17-.46-.33-.92-.48-1.39-.08-.26-.13-.53-.21-.8a11.14,11.14,0,0,1-.51-2.81,2.53,2.53,0,0,0,0-.48,6.21,6.21,0,0,1-.08-1.72,16.56,16.56,0,0,1,.17-1.84,13.92,13.92,0,0,1,.61-2.85,15.37,15.37,0,0,1,.82-2.11,15.7,15.7,0,0,1,1.11-2,13.54,13.54,0,0,1,1.32-1.62,11.84,11.84,0,0,1,2-1.74c.34-.23.71-.42,1.06-.62a8.68,8.68,0,0,1,.9-.48,7.1,7.1,0,0,1,1.17-.42c.62-.15,1.25-.23,1.88-.36a9.18,9.18,0,0,1,2.22-.08c.69,0,1.35.19,2,.26l1.87.2c.54.05,1.08.14,1.61.2s1.05.09,1.57.15c.29,0,.58.11.88.15a7,7,0,0,0,.8.07c.31,0,.63,0,.94,0,.11,0,.22.08.33.09.48.05,1,.08,1.46.12l1.27.12c.35,0,.69,0,1,.05l.8.06,1.78.18a5,5,0,0,1,.77,0,7.34,7.34,0,0,0,1.15,0c.27,0,.54,0,.81,0,.45,0,.89.05,1.34.06l1.37,0,1.24.06h.22l1.57.06c.43,0,.86,0,1.29,0a2.56,2.56,0,0,1,.39,0c.05,0,.11,0,.16,0l1.42-.06c.47,0,.94,0,1.41,0l.17,0a12,12,0,0,1,1.47,0,14.94,14.94,0,0,1,1.77,0,3.84,3.84,0,0,0,1.07,0c.51,0,1,0,1.51-.06h1a8.05,8.05,0,0,1,1.2-.07c.75,0,1.5-.12,2.24-.18a5.3,5.3,0,0,1,.69,0h.17l2.33-.22a2.39,2.39,0,0,1,1-.05H595l2.54-.23,1.21-.09.22,0c1.24-.15,2.47-.3,3.71-.47a17.74,17.74,0,0,1,2.42-.27,8.8,8.8,0,0,0,1.24-.17L610,417c.62-.09,1.23-.19,1.85-.3l7.19-1.3c.45-.09.9-.24,1.35-.34.65-.15,1.3-.27,2-.43.34-.08.66-.21,1-.3l1-.25,1.89-.49h0c.91-.24,1.83-.46,2.73-.71a7.89,7.89,0,0,0,.86-.29l.12-.05c.74-.2,1.48-.39,2.21-.6.25-.07.49-.17.73-.25l.54-.15a1.24,1.24,0,0,0,.72-.28s.08,0,.12-.05l1.82-.52c.14,0,.27-.11.4-.16s.13-.08.19-.1c.55-.17,1.1-.33,1.65-.52s.94-.35,1.41-.53l.37-.13.54-.24a.55.55,0,0,1,.15-.08c.38-.14.77-.26,1.14-.4s.92-.4,1.39-.58.78-.28,1.16-.44.78-.34,1.17-.52l.11-.06c.38-.13.76-.25,1.13-.4s.66-.32,1-.48.46-.24.7-.34.61-.24.91-.38.4-.21.61-.31l1-.49,1.07-.45c.19-.08.38-.18.57-.28l1.39-.73.65-.32,1.26-.62,1.2-.66.82-.44c.47-.26.94-.53,1.41-.78s1.1-.58,1.64-.88c.38-.2.74-.43,1.11-.64l1.67-1,1.55-1,1-.61,1.55-1,1-.61.93-.5a1.91,1.91,0,0,1,.34-.1c.22,0,.46-.07.68-.12a4.85,4.85,0,0,1,1.7,0,6.14,6.14,0,0,1,2.53,1,6.58,6.58,0,0,1,1.15,1,11.6,11.6,0,0,1,.89,1.08,2.54,2.54,0,0,1,.32.55c.14.31.23.65.39,1a9.67,9.67,0,0,1,.68,2.89,2.33,2.33,0,0,1,0,.59,1.09,1.09,0,0,0,0,.18,3.38,3.38,0,0,1-.14,1.48,7.43,7.43,0,0,1-.56,1.6,7.52,7.52,0,0,1-1.62,2.14c-.67.67-1.31,1.38-2,2.07s-1.29,1.32-1.94,2c-.82.8-1.63,1.61-2.47,2.4-.67.63-1.37,1.22-2.06,1.84-.51.45-1,.92-1.51,1.38s-1,.88-1.51,1.31c-.83.69-1.66,1.38-2.51,2.05-.7.54-1.42,1.06-2.13,1.59s-1.14.89-1.72,1.32-1.47,1.07-2.21,1.59l-2.41,1.69c-.29.2-.6.37-.9.56-.47.31-.93.63-1.41.93-.32.21-.66.39-1,.59l-1.59,1c-.36.22-.74.41-1.11.62l-1.38.82c-.39.23-.77.48-1.17.71l-1.27.7-1.43.75c-.6.33-1.18.67-1.78,1s-1,.46-1.43.7c-.27.13-.51.31-.78.45l-.77.37c-.57.28-1.14.57-1.72.84-.27.13-.56.23-.83.35l-1.12.5-1.07.44-.78.35-1,.46-1.27.52-1.27.53a3.18,3.18,0,0,1-.33.1l-.55.23-.12.06a9.51,9.51,0,0,0-1.59.51,10.42,10.42,0,0,0-1.44.55,3.17,3.17,0,0,1-.82.35l-1.61.5a3.3,3.3,0,0,0-.43.19l-.19.09-1.37.43c-.66.19-1.33.36-2,.57s-1.25.45-1.87.68l-.08,0-1.88.53a3.47,3.47,0,0,0-1.23.39.28.28,0,0,1-.13,0c-1.14.27-2.28.53-3.42.81-.38.09-.74.22-1.12.33q-.31.09-.63.15c-.69.13-1.37.24-2,.39s-1.09.28-1.64.42l-.81.18-4,.72Zm-42.87-15.67a4.77,4.77,0,0,0-.49-1.73,9.5,9.5,0,0,1-.48-.89,6,6,0,0,0-1.27-1.44,4.84,4.84,0,0,0-1.43-.82,5.58,5.58,0,0,0-1.4-.32,3.8,3.8,0,0,0-1.87.27,4.6,4.6,0,0,0-1.91,1.37,6,6,0,0,0-1.36,3,6,6,0,0,0,.07,2.45,5,5,0,0,0,.24,1,9.78,9.78,0,0,0,.73,1.49,6.81,6.81,0,0,0,1.28,1.44,4.84,4.84,0,0,0,2.59,1.11c.44,0,.88-.05,1.32,0,.09,0,.19-.06.28-.09s.31-.1.45-.17a7.84,7.84,0,0,0,.93-.43,4.85,4.85,0,0,0,1.52-1.6,4.4,4.4,0,0,0,.39-.66,6.65,6.65,0,0,0,.48-1.76,4.84,4.84,0,0,0,0-1.61C556.71,432.71,556.69,432.51,556.65,432.31Z"/><path class="cls-1" d="M664.26,389.48c-.51.32-.93.61-1.37.86-.67.39-1.36.76-2,1.14l-1.76,1c-.39.22-.79.4-1.17.61l-1.11.63a16.76,16.76,0,0,1-2,1,4.94,4.94,0,0,0-.64.35l-1.37.77-.78.45a.45.45,0,0,1-.58-.08l-1.32-1.1-3.34-2.8c-1-.83-2-1.64-3-2.47-.68-.56-1.37-1.12-2-1.69-.91-.77-1.82-1.56-2.73-2.32-.55-.46-1.12-.89-1.67-1.34l-2.82-2.37-2-1.63-2.23-1.84L628,376.76l-2.23-1.85c-.85-.71-1.67-1.43-2.52-2.14-.64-.54-1.31-1-1.95-1.59a7.43,7.43,0,0,0-1.39-1,6.25,6.25,0,0,0-2-.66,5.6,5.6,0,0,0-2,0,5.36,5.36,0,0,0-1.76.74,7.39,7.39,0,0,0-.94.73,8.24,8.24,0,0,0-1.33,1.72,5.93,5.93,0,0,1-2.14,2,5.72,5.72,0,0,1-1.92.68,6,6,0,0,1-1.53,0,5.23,5.23,0,0,1-2.38-.92c-.45-.31-.89-.66-1.32-1-.68-.55-1.36-1.12-2-1.69l-1.89-1.6c-.53-.44-1.07-.85-1.6-1.28l-1.64-1.37-.6-.49c-1.12-.94-2.24-1.89-3.37-2.82-1-.79-1.94-1.56-2.89-2.34-.54-.45-1.06-.92-1.59-1.36s-1.18-.95-1.76-1.43l-1.88-1.56-1.73-1.45-3.24-2.66-2.74-2.24c-.56-.46-1.09-1-1.65-1.42-1-.8-1.94-1.58-2.92-2.37l-1.34-1.11c-.8-.67-1.59-1.35-2.4-2-1.06-.89-2.13-1.75-3.19-2.64S562,339.86,561,339s-2-1.56-2.92-2.36-1.93-1.65-2.9-2.46c-.52-.44-1.08-.84-1.59-1.3a6.14,6.14,0,0,1-1.24-1.4,13.23,13.23,0,0,1-.78-1.36,8.28,8.28,0,0,1-.46-1.38c-.12-.46-.18-.94-.26-1.41a1.11,1.11,0,0,1,0-.72c0-.05,0-.11,0-.17a6.92,6.92,0,0,1,.54-2.94,16.79,16.79,0,0,1,1.13-2.14c.36-.65.74-1.29,1.12-1.93s.85-1.41,1.26-2.13.93-1.63,1.4-2.45,1-1.78,1.54-2.66a17.81,17.81,0,0,1,1.44-2.31,5.33,5.33,0,0,1,1.4-1.28c.14-.08.25-.2.39-.27a6,6,0,0,1,2.57-.69,5.69,5.69,0,0,1,3.55,1.14c.7.51,1.33,1.12,2,1.67s1.12.89,1.67,1.34.89.74,1.34,1.11l2.42,2.05,2.41,2c.75.61,1.51,1.21,2.25,1.83,1,.82,1.94,1.67,2.92,2.49s1.71,1.4,2.57,2.11l1.79,1.51c1,.84,2.06,1.67,3.08,2.52l2.92,2.44,2.54,2.09,1.83,1.54,1.77,1.47,2.79,2.33c.6.5,1.22,1,1.82,1.47s1.16,1,1.74,1.47c1,.83,2,1.65,3,2.47l2.34,1.94,1.59,1.34c.58.48,1.18.94,1.76,1.43.95.79,1.89,1.6,2.84,2.4l1.28,1.07,2,1.68q1.65,1.39,3.31,2.78l3.39,2.8,2,1.64c.51.43,1,.88,1.52,1.3,1,.85,2.08,1.68,3.11,2.53s2.06,1.73,3.09,2.58,1.83,1.49,2.74,2.24c1.2,1,2.38,2,3.57,3l2.64,2.22c.55.46,1.12.89,1.67,1.34s1.27,1.05,1.9,1.58l3.23,2.67,2.94,2.46,3,2.44,2.2,1.83,2.28,1.86c.54.45,1.06.91,1.59,1.37A2.13,2.13,0,0,1,664.26,389.48Z"/></svg>