<svg id="Layer_1" data-name="Layer 1" xmlns="http://www.w3.org/2000/svg" xmlns:xlink="http://www.w3.org/1999/xlink" viewBox="0 0 1216.61 951.82"><defs><style>.cls-1{fill:none;}.cls-2{clip-path:url(#clip-path);}.cls-3{fill:#881812;}.cls-4{fill:#891812;}.cls-5{fill:#891912;}.cls-6{fill:#8a1912;}.cls-7{fill:#8b1913;}.cls-8{fill:#8c1913;}.cls-9{fill:#8d1913;}.cls-10{fill:#8e1913;}.cls-11{fill:#8f1913;}.cls-12{fill:#8f1914;}.cls-13{fill:#901914;}.cls-14{fill:#911914;}.cls-15{fill:#921914;}.cls-16{fill:#931914;}.cls-17{fill:#941914;}.cls-18{fill:#951915;}.cls-19{fill:#961915;}.cls-20{fill:#971915;}.cls-21{fill:#981915;}.cls-22{fill:#991915;}.cls-23{fill:#991916;}.cls-24{fill:#9a1916;}.cls-25{fill:#9b1a16;}.cls-26{fill:#9c1a16;}.cls-27{fill:#9d1a16;}.cls-28{fill:#9e1a16;}.cls-29{fill:#9f1a17;}.cls-30{fill:#a01a17;}.cls-31{fill:#a11a17;}.cls-32{fill:#a21a17;}.cls-33{fill:#a31a17;}.cls-34{fill:#a41a17;}.cls-35{fill:#a51a18;}.cls-36{fill:#a61a18;}.cls-37{fill:#a71a18;}.cls-38{fill:#a81a18;}.cls-39{fill:#a91a18;}.cls-40{fill:#aa1a18;}.cls-41{fill:#ab1a19;}.cls-42{fill:#ac1a19;}.cls-43{fill:#ad1a19;}.cls-44{fill:#ae1a19;}.cls-45{fill:#af1a19;}.cls-46{fill:#b01a19;}.cls-47{fill:#b11a1a;}.cls-48{fill:#b21a1a;}.cls-49{clip-path:url(#clip-path-2);}.cls-50{clip-path:url(#clip-path-3);}.cls-51{clip-path:url(#clip-path-4);}.cls-52{clip-path:url(#clip-path-5);}.cls-53{clip-path:url(#clip-path-6);}</style><clipPath id="clip-path"><path class="cls-1" d="M605,667.27H612v-.08C609.66,667.24,607.36,667.27,605,667.27Z"/></clipPath><clipPath id="clip-path-2"><path class="cls-1" d="M685.94,836v0h1.53C687,836,686.45,836,685.94,836Z"/></clipPath><clipPath id="clip-path-3"><path class="cls-1" d="M1216.61,138.5q-.58,25.14-25.78,78.67-26.47,55.4-46.59,68-15.1,9.45-163.69,74.27-96.3,42.81-146,104.51,20.76,5.66,53.5,6.3,22.05.63,60.46-1.28c28.51-1.25,47.21-1.87,56-1.87q120.9,0,134.1,32.08,0,28.35-69.87,106.39Q971.76,714.5,811.84,805.77,773.68,827.6,725,833.66A319,319,0,0,1,687.47,836c-.51,0-1,0-1.53,0q-44.73-.39-91.26-15.72-59.83-18.9-75.55-51-67.41,64.38-161.79,66.64c-2.3.06-4.6.08-6.92.08h-17q-37.74,0-61.67-3.77-11.37-1.92-45.33-16.37-27.71-12.58-61.08-12.59-56,0-117.71,97.56L31.26,932.3Q20.53,951.79,8.6,951.82q-8.82,0-8.17-9.45Q2.94,917.17,18,885.09,126.29,657.21,244.66,657.2q69.27,40.93,90.66,40.91h66.73q56.64,0,76.17-15.09,24.55-19.53,59.8-79.32,32.73-55.41,61.68-81.22l6.92,5q-10.05,24.54-28.94,74.27a213.26,213.26,0,0,0-13.22,74.3q0,22,52.88,22h68.6l20.79.65c6.13.09,12.23.09,18.25,0q157.88-2.51,276.34-90.64,61.71-45.32,69.9-76.17-67.37-5.65-144.79-5.64-18.25,0-55.1,2.81t-55.06,2.83q-27.06,0-27.07-15.09,0-22.68,25.17-73.67Q893,284.55,1047.28,230.39,1108.35,209,1143,187q20.76-23.26,68.62-56.65Z"/></clipPath><clipPath id="clip-path-4"><path class="cls-1" d="M935.87,95.07v-6.3L1029.66,0q71.14,51.61,71.12,86.24,0,20.17-82.44,82.47-30.21-34-39-42.81Q949.09,95,935.87,95.07Z"/></clipPath><clipPath id="clip-path-5"><path class="cls-1" d="M599.9,448c-1.43.26-2.85.59-4.28.75-1.18.12-2.35.36-3.53.45-.8.05-1.58.23-2.37.24a18.4,18.4,0,0,0-2.11.24,2.06,2.06,0,0,1-.43,0c-.13,0-.26,0-.39,0-.89.09-1.78.21-2.67.27-.69,0-1.39,0-2.08,0h-.17l-2,.16a7.58,7.58,0,0,1-1.64.08c-.55-.08-1.09.15-1.63,0a1.75,1.75,0,0,0-.39,0h-.77l-.39,0-.55,0a1,1,0,0,0-.17,0c-.49,0-1,.06-1.46,0s-.91,0-1.37-.07-.69,0-1,0a8.7,8.7,0,0,1-1.25,0c-.36,0-.71-.05-1.07-.06s-.91,0-1.37-.06-.79-.07-1.19-.1l-.73,0c-.35,0-.71,0-1.06-.06s-.76-.07-1.14-.1-.65,0-1-.06-.46,0-.68-.06l-1.5-.17-.93-.12c-.53-.08-1.06-.16-1.6-.22s-1-.1-1.47-.17-.87-.14-1.3-.21c-.77-.14-1.55-.27-2.32-.43-.53-.1-1.06-.25-1.6-.38-.33-.07-.67-.13-1-.21a12.8,12.8,0,0,1-1.35-.36,12.32,12.32,0,0,1-2.2-1.05,15.94,15.94,0,0,1-2.16-1.58,16.25,16.25,0,0,1-2.11-2.28,10.54,10.54,0,0,1-1.12-1.74c-.22-.44-.49-.86-.72-1.3a9.37,9.37,0,0,1-.38-.86c-.17-.46-.32-.92-.47-1.39-.09-.26-.14-.53-.22-.8a11.6,11.6,0,0,1-.51-2.81,1.91,1.91,0,0,0,0-.48,6.21,6.21,0,0,1-.08-1.72c0-.61.11-1.22.17-1.84a13.92,13.92,0,0,1,.61-2.85,14.22,14.22,0,0,1,.83-2.11,12.6,12.6,0,0,1,2.42-3.58,11.91,11.91,0,0,1,2-1.74c.33-.23.7-.42,1-.62a8.68,8.68,0,0,1,.9-.48,7.1,7.1,0,0,1,1.17-.42c.62-.15,1.26-.23,1.88-.36a9.24,9.24,0,0,1,2.23-.08c.68,0,1.34.19,2,.26l1.86.2c.54.05,1.08.14,1.62.2l1.56.15c.3,0,.58.11.88.15a7,7,0,0,0,.8.07c.31,0,.63,0,.94,0,.11,0,.22.08.33.09l1.46.12c.42,0,.85.09,1.28.12s.68,0,1,.05.53,0,.8.06l1.78.18a5,5,0,0,1,.77,0,7.45,7.45,0,0,0,1.16,0c.27,0,.53,0,.8,0,.45,0,.89.05,1.34.06l1.37,0c.42,0,.83,0,1.24.06h.22c.53,0,1.05,0,1.58.06s.86,0,1.29,0l.38,0c.05,0,.11,0,.16,0l1.42-.06c.47,0,.94,0,1.41,0l.17,0a12.08,12.08,0,0,1,1.47,0,14.94,14.94,0,0,1,1.77,0,3.91,3.91,0,0,0,1.08,0l1.5-.06h1a8.11,8.11,0,0,1,1.21-.07c.74,0,1.49-.12,2.24-.18a5.17,5.17,0,0,1,.68,0H592l2.33-.22a2.39,2.39,0,0,1,1-.05h.08l2.55-.23c.4,0,.8-.06,1.21-.09l.21,0c1.24-.15,2.48-.3,3.71-.47a17.74,17.74,0,0,1,2.42-.27,9.14,9.14,0,0,0,1.25-.17l3.65-.52c.62-.09,1.24-.19,1.85-.3l7.19-1.3c.46-.09.9-.24,1.35-.34.65-.15,1.3-.27,2-.43.34-.08.66-.21,1-.3l1-.25,1.89-.49h0c.91-.24,1.82-.46,2.73-.71a8.51,8.51,0,0,0,.85-.29l.12-.05c.74-.2,1.48-.39,2.21-.6.25-.07.49-.17.73-.25a4.94,4.94,0,0,1,.55-.15,1.23,1.23,0,0,0,.71-.28s.08,0,.12-.05l1.83-.52c.13,0,.26-.11.4-.16a1.14,1.14,0,0,1,.19-.1c.54-.17,1.1-.33,1.64-.52s.94-.35,1.41-.53l.37-.13L641,409a.55.55,0,0,1,.15-.08l1.15-.4c.46-.19.92-.4,1.38-.58s.78-.28,1.16-.44.78-.34,1.17-.52a.6.6,0,0,0,.11-.06c.38-.13.76-.25,1.13-.4s.66-.32,1-.48.46-.24.7-.34.61-.24.91-.38.4-.21.61-.31l1.06-.49c.35-.15.71-.29,1.06-.45.19-.08.38-.18.57-.28l1.39-.73.65-.32,1.26-.62,1.2-.66.83-.44c.47-.26.93-.53,1.4-.78l1.65-.88c.37-.2.73-.43,1.1-.64.56-.32,1.12-.64,1.67-1l1.55-1,1-.61,1.55-1,1-.61c.31-.17.62-.34.94-.5a1.8,1.8,0,0,1,.33-.1c.23,0,.46-.07.68-.12a4.85,4.85,0,0,1,1.7,0,6.09,6.09,0,0,1,2.53,1,6.58,6.58,0,0,1,1.15,1,11.6,11.6,0,0,1,.89,1.08,3.08,3.08,0,0,1,.33.55c.14.31.22.65.38,1a9.67,9.67,0,0,1,.68,2.89,2.33,2.33,0,0,1,0,.59,1.09,1.09,0,0,0,0,.18,3.38,3.38,0,0,1-.14,1.48,6.93,6.93,0,0,1-.56,1.6,7.67,7.67,0,0,1-1.61,2.14c-.68.67-1.31,1.38-2,2.07s-1.28,1.32-1.94,2c-.81.8-1.63,1.61-2.47,2.4-.67.63-1.37,1.22-2.06,1.84L666.8,417c-.5.44-1,.88-1.51,1.31-.83.69-1.66,1.38-2.51,2.05-.7.54-1.42,1.06-2.13,1.59s-1.14.89-1.72,1.32-1.46,1.07-2.2,1.59l-2.41,1.69c-.3.2-.61.37-.91.56-.47.31-.93.63-1.4.93s-.67.39-1,.59l-1.59,1c-.36.22-.74.41-1.1.62l-1.39.82-1.16.71c-.42.24-.85.47-1.28.7l-1.43.75c-.6.33-1.18.67-1.78,1s-1,.46-1.43.7c-.26.13-.51.31-.77.45l-.78.37c-.57.28-1.14.57-1.72.84-.27.13-.55.23-.83.35l-1.12.5-1.07.44-.78.35-1,.46-1.27.52-1.28.53a3.18,3.18,0,0,1-.33.1l-.55.23-.11.06a9.33,9.33,0,0,0-1.6.51,10.3,10.3,0,0,0-1.43.55,3.39,3.39,0,0,1-.83.35l-1.61.5a4,4,0,0,0-.43.19l-.19.09-1.36.43c-.67.19-1.34.36-2,.57s-1.25.45-1.87.68l-.08,0-1.88.53a3.54,3.54,0,0,0-1.23.39s-.08,0-.12,0c-1.14.27-2.29.53-3.42.81-.38.09-.75.22-1.13.33a6.42,6.42,0,0,1-.63.15c-.68.13-1.37.24-2,.39s-1.09.28-1.64.42c-.26.07-.53.13-.8.18l-4,.72ZM557,432.31a4.58,4.58,0,0,0-.49-1.73c-.19-.27-.31-.6-.48-.89a6,6,0,0,0-1.27-1.44,4.84,4.84,0,0,0-1.43-.82,5.58,5.58,0,0,0-1.4-.32,3.8,3.8,0,0,0-1.87.27,4.6,4.6,0,0,0-1.91,1.37,6,6,0,0,0-1.36,3,6.32,6.32,0,0,0,.07,2.45,5,5,0,0,0,.24,1,9.84,9.84,0,0,0,.74,1.49,6.3,6.3,0,0,0,1.28,1.44,4.77,4.77,0,0,0,2.58,1.11c.45,0,.88-.05,1.32,0,.09,0,.19-.06.29-.09s.3-.1.44-.17a6.6,6.6,0,0,0,.93-.43,4.85,4.85,0,0,0,1.52-1.6,4.4,4.4,0,0,0,.39-.66,7.07,7.07,0,0,0,.49-1.76,4.84,4.84,0,0,0,0-1.61C557.09,432.71,557.07,432.51,557,432.31Z"/></clipPath><clipPath id="clip-path-6"><path class="cls-1" d="M664.64,389.48c-.5.32-.92.61-1.36.86-.68.39-1.37.76-2,1.14s-1.18.7-1.77,1c-.38.22-.78.4-1.17.61s-.74.42-1.11.63a15.35,15.35,0,0,1-2,1,5.71,5.71,0,0,0-.64.35l-1.37.77c-.26.15-.52.29-.77.45a.46.46,0,0,1-.59-.08l-1.32-1.1-3.34-2.8c-1-.83-2-1.64-3-2.47l-2-1.69c-.91-.77-1.81-1.56-2.73-2.32-.55-.46-1.12-.89-1.67-1.34-.94-.78-1.87-1.58-2.81-2.37l-2-1.63-2.23-1.84-2.32-1.94-2.24-1.85-2.51-2.14c-.65-.54-1.31-1-2-1.59a7.11,7.11,0,0,0-1.39-1,6.25,6.25,0,0,0-2-.66,5.6,5.6,0,0,0-2,0,5.45,5.45,0,0,0-1.76.74,9.13,9.13,0,0,0-.94.73,8.24,8.24,0,0,0-1.33,1.72,5.93,5.93,0,0,1-2.14,2,5.72,5.72,0,0,1-1.92.68,6,6,0,0,1-1.53,0,5.23,5.23,0,0,1-2.38-.92c-.45-.31-.88-.66-1.31-1-.69-.55-1.37-1.12-2-1.69l-1.9-1.6c-.53-.44-1.07-.85-1.6-1.28l-1.64-1.37-.59-.49c-1.13-.94-2.25-1.89-3.38-2.82-1-.79-1.93-1.56-2.89-2.34-.54-.45-1.05-.92-1.59-1.36s-1.17-.95-1.76-1.43l-1.88-1.56L582,356.07l-3.23-2.66L576,351.17c-.56-.46-1.09-1-1.64-1.42-1-.8-2-1.58-2.92-2.37l-1.35-1.11c-.8-.67-1.59-1.35-2.39-2-1.07-.89-2.14-1.75-3.2-2.64s-2.09-1.76-3.15-2.63-2-1.56-2.92-2.36-1.93-1.65-2.9-2.46c-.52-.44-1.08-.84-1.59-1.3a6.39,6.39,0,0,1-1.24-1.4,15.38,15.38,0,0,1-.78-1.36,8.28,8.28,0,0,1-.46-1.38c-.11-.46-.18-.94-.26-1.41a1,1,0,0,1,0-.72.48.48,0,0,0,0-.17,6.92,6.92,0,0,1,.54-2.94,16.79,16.79,0,0,1,1.13-2.14c.36-.65.74-1.29,1.12-1.93s.85-1.41,1.26-2.13.93-1.63,1.4-2.45,1-1.78,1.54-2.66a19,19,0,0,1,1.44-2.31,5.22,5.22,0,0,1,1.41-1.28c.13-.08.24-.2.38-.27a6,6,0,0,1,2.57-.69,5.69,5.69,0,0,1,3.55,1.14c.7.51,1.33,1.12,2,1.67s1.11.89,1.66,1.34.9.74,1.34,1.11l2.42,2.05,2.41,2c.75.61,1.51,1.21,2.25,1.83,1,.82,1.94,1.67,2.92,2.49s1.72,1.4,2.57,2.11c.6.5,1.19,1,1.8,1.51,1,.84,2,1.67,3.07,2.52l2.92,2.44,2.54,2.09c.62.51,1.22,1,1.83,1.54l1.77,1.47,2.79,2.33c.6.5,1.22,1,1.83,1.47s1.15,1,1.73,1.47l3,2.47,2.34,1.94c.53.45,1.06.9,1.6,1.34s1.17.94,1.75,1.43l2.85,2.4,1.28,1.07,2,1.68,3.31,2.78,3.39,2.8,2,1.64c.51.43,1,.88,1.52,1.3,1,.85,2.09,1.68,3.12,2.53s2,1.73,3.08,2.58,1.84,1.49,2.74,2.24c1.2,1,2.38,2,3.57,3,.88.74,1.76,1.49,2.65,2.22.54.46,1.11.89,1.66,1.34s1.27,1.05,1.9,1.58c1.08.89,2.16,1.77,3.23,2.67l2.94,2.46,3,2.44,2.21,1.83,2.28,1.86,1.58,1.37A2.13,2.13,0,0,1,664.64,389.48Z"/></clipPath></defs><g class="cls-2"><rect class="cls-3" x="605.04" y="667.19" width="0.06" height="0.09"/><rect class="cls-4" x="605.1" y="667.19" width="0.06" height="0.09"/><rect class="cls-5" x="605.17" y="667.19" width="0.06" height="0.09"/><rect class="cls-6" x="605.23" y="667.19" width="0.06" height="0.09"/><rect class="cls-7" x="605.29" y="667.19" width="0.06" height="0.09"/><rect class="cls-8" x="605.36" y="667.19" width="0.06" height="0.09"/><rect class="cls-8" x="605.42" y="667.19" width="0.06" height="0.09"/><rect class="cls-9" x="605.49" y="667.19" width="0.06" height="0.09"/><rect class="cls-10" x="605.55" y="667.19" width="0.06" height="0.09"/><rect class="cls-11" x="605.61" y="667.19" width="0.06" height="0.09"/><rect class="cls-12" x="605.68" y="667.19" width="0.06" height="0.09"/><rect class="cls-13" x="605.74" y="667.19" width="0.06" height="0.09"/><rect class="cls-14" x="605.81" y="667.19" width="0.06" height="0.09"/><rect class="cls-15" x="605.87" y="667.19" width="0.06" height="0.09"/><rect class="cls-15" x="605.93" y="667.19" width="0.06" height="0.09"/><rect class="cls-16" x="606" y="667.19" width="0.06" height="0.09"/><rect class="cls-17" x="606.06" y="667.19" width="0.06" height="0.09"/><rect class="cls-18" x="606.13" y="667.19" width="0.06" height="0.09"/><rect class="cls-19" x="606.19" y="667.19" width="0.06" height="0.09"/><rect class="cls-19" x="606.25" y="667.19" width="0.06" height="0.09"/><rect class="cls-20" x="606.32" y="667.19" width="0.06" height="0.09"/><rect class="cls-21" x="606.38" y="667.19" width="0.06" height="0.09"/><rect class="cls-22" x="606.45" y="667.19" width="0.06" height="0.09"/><rect class="cls-23" x="606.51" y="667.19" width="0.06" height="0.09"/><rect class="cls-24" x="606.57" y="667.19" width="0.06" height="0.09"/><rect class="cls-25" x="606.64" y="667.19" width="0.06" height="0.09"/><rect class="cls-26" x="606.7" y="667.19" width="0.06" height="0.09"/><rect class="cls-27" x="606.77" y="667.19" width="0.06" height="0.09"/><rect class="cls-27" x="606.83" y="667.19" width="0.06" height="0.09"/><rect class="cls-28" x="606.89" y="667.19" width="0.06" height="0.09"/><rect class="cls-29" x="606.96" y="667.19" width="0.06" height="0.09"/><rect class="cls-30" x="607.02" y="667.19" width="0.06" height="0.09"/><rect class="cls-31" x="607.09" y="667.19" width="0.06" height="0.09"/><rect class="cls-31" x="607.15" y="667.19" width="0.06" height="0.09"/><rect class="cls-32" x="607.21" y="667.19" width="0.06" height="0.09"/><rect class="cls-33" x="607.28" y="667.19" width="0.06" height="0.09"/><rect class="cls-34" x="607.34" y="667.19" width="0.06" height="0.09"/><rect class="cls-35" x="607.4" y="667.19" width="0.06" height="0.09"/><rect class="cls-35" x="607.47" y="667.19" width="0.06" height="0.09"/><rect class="cls-36" x="607.53" y="667.19" width="0.06" height="0.09"/><rect class="cls-37" x="607.6" y="667.19" width="0.06" height="0.09"/><rect class="cls-38" x="607.66" y="667.19" width="0.06" height="0.09"/><rect class="cls-38" x="607.72" y="667.19" width="0.06" height="0.09"/><rect class="cls-39" x="607.79" y="667.19" width="0.06" height="0.09"/><rect class="cls-40" x="607.85" y="667.19" width="0.06" height="0.09"/><rect class="cls-41" x="607.92" y="667.19" width="0.06" height="0.09"/><rect class="cls-42" x="607.98" y="667.19" width="0.06" height="0.09"/><rect class="cls-42" x="608.04" y="667.19" width="0.06" height="0.09"/><rect class="cls-43" x="608.11" y="667.19" width="0.06" height="0.09"/><rect class="cls-44" x="608.17" y="667.19" width="0.06" height="0.09"/><rect class="cls-45" x="608.24" y="667.19" width="0.06" height="0.09"/><rect class="cls-45" x="608.3" y="667.19" width="0.06" height="0.09"/><rect class="cls-46" x="608.36" y="667.19" width="0.06" height="0.09"/><rect class="cls-47" x="608.43" y="667.19" width="0.06" height="0.09"/><rect class="cls-48" x="608.49" y="667.19" width="0.06" height="0.09"/><rect class="cls-48" x="608.56" y="667.19" width="0.06" height="0.09"/><rect class="cls-47" x="608.62" y="667.19" width="0.06" height="0.09"/><rect class="cls-46" x="608.68" y="667.19" width="0.06" height="0.09"/><rect class="cls-45" x="608.74" y="667.19" width="0.06" height="0.09"/><rect class="cls-45" x="608.8" y="667.19" width="0.06" height="0.09"/><rect class="cls-44" x="608.86" y="667.19" width="0.06" height="0.09"/><rect class="cls-43" x="608.93" y="667.19" width="0.06" height="0.09"/><rect class="cls-42" x="608.99" y="667.19" width="0.06" height="0.09"/><rect class="cls-42" x="609.05" y="667.19" width="0.06" height="0.09"/><rect class="cls-41" x="609.11" y="667.19" width="0.06" height="0.09"/><rect class="cls-40" x="609.17" y="667.19" width="0.06" height="0.09"/><rect class="cls-39" x="609.23" y="667.19" width="0.06" height="0.09"/><rect class="cls-38" x="609.29" y="667.19" width="0.06" height="0.09"/><rect class="cls-38" x="609.36" y="667.19" width="0.06" height="0.09"/><rect class="cls-37" x="609.42" y="667.19" width="0.06" height="0.09"/><rect class="cls-36" x="609.48" y="667.19" width="0.06" height="0.09"/><rect class="cls-35" x="609.54" y="667.19" width="0.06" height="0.09"/><rect class="cls-35" x="609.6" y="667.19" width="0.06" height="0.09"/><rect class="cls-34" x="609.66" y="667.19" width="0.06" height="0.09"/><rect class="cls-33" x="609.73" y="667.19" width="0.06" height="0.09"/><rect class="cls-32" x="609.79" y="667.19" width="0.06" height="0.09"/><rect class="cls-31" x="609.85" y="667.19" width="0.06" height="0.09"/><rect class="cls-31" x="609.91" y="667.19" width="0.06" height="0.09"/><rect class="cls-30" x="609.97" y="667.19" width="0.06" height="0.09"/><rect class="cls-29" x="610.03" y="667.19" width="0.06" height="0.09"/><rect class="cls-28" x="610.09" y="667.19" width="0.06" height="0.09"/><rect class="cls-27" x="610.16" y="667.19" width="0.06" height="0.09"/><rect class="cls-27" x="610.22" y="667.19" width="0.06" height="0.09"/><rect class="cls-26" x="610.28" y="667.19" width="0.06" height="0.09"/><rect class="cls-25" x="610.34" y="667.19" width="0.06" height="0.09"/><rect class="cls-24" x="610.4" y="667.19" width="0.06" height="0.09"/><rect class="cls-23" x="610.46" y="667.19" width="0.06" height="0.09"/><rect class="cls-22" x="610.53" y="667.19" width="0.06" height="0.09"/><rect class="cls-21" x="610.59" y="667.19" width="0.06" height="0.09"/><rect class="cls-20" x="610.65" y="667.19" width="0.06" height="0.09"/><rect class="cls-19" x="610.71" y="667.19" width="0.06" height="0.09"/><rect class="cls-19" x="610.77" y="667.19" width="0.06" height="0.09"/><rect class="cls-18" x="610.83" y="667.19" width="0.06" height="0.09"/><rect class="cls-17" x="610.89" y="667.19" width="0.06" height="0.09"/><rect class="cls-16" x="610.96" y="667.19" width="0.06" height="0.09"/><rect class="cls-15" x="611.02" y="667.19" width="0.06" height="0.09"/><rect class="cls-15" x="611.08" y="667.19" width="0.06" height="0.09"/><rect class="cls-14" x="611.14" y="667.19" width="0.06" height="0.09"/><rect class="cls-13" x="611.2" y="667.19" width="0.06" height="0.09"/><rect class="cls-12" x="611.26" y="667.19" width="0.06" height="0.09"/><rect class="cls-11" x="611.33" y="667.19" width="0.06" height="0.09"/><rect class="cls-10" x="611.39" y="667.19" width="0.06" height="0.09"/><rect class="cls-9" x="611.45" y="667.19" width="0.06" height="0.09"/><rect class="cls-8" x="611.51" y="667.19" width="0.06" height="0.09"/><rect class="cls-8" x="611.57" y="667.19" width="0.06" height="0.09"/><rect class="cls-7" x="611.63" y="667.19" width="0.06" height="0.09"/><rect class="cls-6" x="611.69" y="667.19" width="0.06" height="0.09"/><rect class="cls-5" x="611.76" y="667.19" width="0.06" height="0.09"/><rect class="cls-4" x="611.82" y="667.19" width="0.06" height="0.09"/><rect class="cls-3" x="611.88" y="667.19" width="0.06" height="0.09"/><rect class="cls-3" x="611.94" y="667.19" width="0.02" height="0.09"/></g><g class="cls-49"><rect class="cls-3" x="685.94" y="835.96" width="0.01" height="0.03"/><rect class="cls-4" x="685.95" y="835.96" width="0.01" height="0.03"/><rect class="cls-5" x="685.97" y="835.96" width="0.01" height="0.03"/><rect class="cls-6" x="685.98" y="835.96" width="0.01" height="0.03"/><rect class="cls-7" x="686" y="835.96" width="0.01" height="0.03"/><rect class="cls-8" x="686.01" y="835.96" width="0.01" height="0.03"/><rect class="cls-8" x="686.02" y="835.96" width="0.01" height="0.03"/><rect class="cls-9" x="686.04" y="835.96" width="0.01" height="0.03"/><rect class="cls-10" x="686.05" y="835.96" width="0.01" height="0.03"/><rect class="cls-11" x="686.07" y="835.96" width="0.01" height="0.03"/><rect class="cls-12" x="686.08" y="835.96" width="0.01" height="0.03"/><rect class="cls-13" x="686.1" y="835.96" width="0.01" height="0.03"/><rect class="cls-14" x="686.11" y="835.96" width="0.01" height="0.03"/><rect class="cls-15" x="686.12" y="835.96" width="0.01" height="0.03"/><rect class="cls-15" x="686.14" y="835.96" width="0.01" height="0.03"/><rect class="cls-16" x="686.15" y="835.96" width="0.01" height="0.03"/><rect class="cls-17" x="686.17" y="835.96" width="0.01" height="0.03"/><rect class="cls-18" x="686.18" y="835.96" width="0.01" height="0.03"/><rect class="cls-19" x="686.19" y="835.96" width="0.01" height="0.03"/><rect class="cls-19" x="686.21" y="835.96" width="0.01" height="0.03"/><rect class="cls-20" x="686.22" y="835.96" width="0.01" height="0.03"/><rect class="cls-21" x="686.24" y="835.96" width="0.01" height="0.03"/><rect class="cls-22" x="686.25" y="835.96" width="0.01" height="0.03"/><rect class="cls-23" x="686.27" y="835.96" width="0.01" height="0.03"/><rect class="cls-24" x="686.28" y="835.96" width="0.01" height="0.03"/><rect class="cls-25" x="686.29" y="835.96" width="0.01" height="0.03"/><rect class="cls-26" x="686.31" y="835.96" width="0.01" height="0.03"/><rect class="cls-27" x="686.32" y="835.96" width="0.01" height="0.03"/><rect class="cls-27" x="686.34" y="835.96" width="0.01" height="0.03"/><rect class="cls-28" x="686.35" y="835.96" width="0.01" height="0.03"/><rect class="cls-29" x="686.36" y="835.96" width="0.01" height="0.03"/><rect class="cls-30" x="686.38" y="835.96" width="0.01" height="0.03"/><rect class="cls-31" x="686.39" y="835.96" width="0.01" height="0.03"/><rect class="cls-31" x="686.41" y="835.96" width="0.01" height="0.03"/><rect class="cls-32" x="686.42" y="835.96" width="0.01" height="0.03"/><rect class="cls-33" x="686.44" y="835.96" width="0.01" height="0.03"/><rect class="cls-34" x="686.45" y="835.96" width="0.01" height="0.03"/><rect class="cls-35" x="686.46" y="835.96" width="0.01" height="0.03"/><rect class="cls-35" x="686.48" y="835.96" width="0.01" height="0.03"/><rect class="cls-36" x="686.49" y="835.96" width="0.01" height="0.03"/><rect class="cls-37" x="686.51" y="835.96" width="0.01" height="0.03"/><rect class="cls-38" x="686.52" y="835.96" width="0.01" height="0.03"/><rect class="cls-38" x="686.53" y="835.96" width="0.01" height="0.03"/><rect class="cls-39" x="686.55" y="835.96" width="0.01" height="0.03"/><rect class="cls-40" x="686.56" y="835.96" width="0.01" height="0.03"/><rect class="cls-41" x="686.58" y="835.96" width="0.01" height="0.03"/><rect class="cls-42" x="686.59" y="835.96" width="0.01" height="0.03"/><rect class="cls-42" x="686.61" y="835.96" width="0.01" height="0.03"/><rect class="cls-43" x="686.62" y="835.96" width="0.01" height="0.03"/><rect class="cls-44" x="686.63" y="835.96" width="0.01" height="0.03"/><rect class="cls-45" x="686.65" y="835.96" width="0.01" height="0.03"/><rect class="cls-45" x="686.66" y="835.96" width="0.01" height="0.03"/><rect class="cls-46" x="686.68" y="835.96" width="0.01" height="0.03"/><rect class="cls-47" x="686.69" y="835.96" width="0.01" height="0.03"/><rect class="cls-48" x="686.7" y="835.96" width="0.01" height="0.03"/><rect class="cls-48" x="686.72" y="835.96" width="0.01" height="0.03"/><rect class="cls-47" x="686.73" y="835.96" width="0.01" height="0.03"/><rect class="cls-46" x="686.75" y="835.96" width="0.01" height="0.03"/><rect class="cls-45" x="686.76" y="835.96" width="0.01" height="0.03"/><rect class="cls-45" x="686.77" y="835.96" width="0.01" height="0.03"/><rect class="cls-44" x="686.79" y="835.96" width="0.01" height="0.03"/><rect class="cls-43" x="686.8" y="835.96" width="0.01" height="0.03"/><rect class="cls-42" x="686.81" y="835.96" width="0.01" height="0.03"/><rect class="cls-42" x="686.83" y="835.96" width="0.01" height="0.03"/><rect class="cls-41" x="686.84" y="835.96" width="0.01" height="0.03"/><rect class="cls-40" x="686.85" y="835.96" width="0.01" height="0.03"/><rect class="cls-39" x="686.87" y="835.96" width="0.01" height="0.03"/><rect class="cls-38" x="686.88" y="835.96" width="0.01" height="0.03"/><rect class="cls-38" x="686.9" y="835.96" width="0.01" height="0.03"/><rect class="cls-37" x="686.91" y="835.96" width="0.01" height="0.03"/><rect class="cls-36" x="686.92" y="835.96" width="0.01" height="0.03"/><rect class="cls-35" x="686.94" y="835.96" width="0.01" height="0.03"/><rect class="cls-35" x="686.95" y="835.96" width="0.01" height="0.03"/><rect class="cls-34" x="686.96" y="835.96" width="0.01" height="0.03"/><rect class="cls-33" x="686.98" y="835.96" width="0.01" height="0.03"/><rect class="cls-32" x="686.99" y="835.96" width="0.01" height="0.03"/><rect class="cls-31" x="687" y="835.96" width="0.01" height="0.03"/><rect class="cls-31" x="687.02" y="835.96" width="0.01" height="0.03"/><rect class="cls-30" x="687.03" y="835.96" width="0.01" height="0.03"/><rect class="cls-29" x="687.05" y="835.96" width="0.01" height="0.03"/><rect class="cls-28" x="687.06" y="835.96" width="0.01" height="0.03"/><rect class="cls-27" x="687.07" y="835.96" width="0.01" height="0.03"/><rect class="cls-27" x="687.09" y="835.96" width="0.01" height="0.03"/><rect class="cls-26" x="687.1" y="835.96" width="0.01" height="0.03"/><rect class="cls-25" x="687.11" y="835.96" width="0.01" height="0.03"/><rect class="cls-24" x="687.13" y="835.96" width="0.01" height="0.03"/><rect class="cls-23" x="687.14" y="835.96" width="0.01" height="0.03"/><rect class="cls-22" x="687.15" y="835.96" width="0.01" height="0.03"/><rect class="cls-21" x="687.17" y="835.96" width="0.01" height="0.03"/><rect class="cls-20" x="687.18" y="835.96" width="0.01" height="0.03"/><rect class="cls-19" x="687.2" y="835.96" width="0.01" height="0.03"/><rect class="cls-19" x="687.21" y="835.96" width="0.01" height="0.03"/><rect class="cls-18" x="687.22" y="835.96" width="0.01" height="0.03"/><rect class="cls-17" x="687.24" y="835.96" width="0.01" height="0.03"/><rect class="cls-16" x="687.25" y="835.96" width="0.01" height="0.03"/><rect class="cls-15" x="687.26" y="835.96" width="0.01" height="0.03"/><rect class="cls-15" x="687.28" y="835.96" width="0.01" height="0.03"/><rect class="cls-14" x="687.29" y="835.96" width="0.01" height="0.03"/><rect class="cls-13" x="687.3" y="835.96" width="0.01" height="0.03"/><rect class="cls-12" x="687.32" y="835.96" width="0.01" height="0.03"/><rect class="cls-11" x="687.33" y="835.96" width="0.01" height="0.03"/><rect class="cls-10" x="687.34" y="835.96" width="0.01" height="0.03"/><rect class="cls-9" x="687.36" y="835.96" width="0.01" height="0.03"/><rect class="cls-8" x="687.37" y="835.96" width="0.01" height="0.03"/><rect class="cls-8" x="687.39" y="835.96" width="0.01" height="0.03"/><rect class="cls-7" x="687.4" y="835.96" width="0.01" height="0.03"/><rect class="cls-6" x="687.41" y="835.96" width="0.01" height="0.03"/><rect class="cls-5" x="687.43" y="835.96" width="0.01" height="0.03"/><rect class="cls-4" x="687.44" y="835.96" width="0.01" height="0.03"/><rect class="cls-3" x="687.45" y="835.96" width="0.01" height="0.03"/><rect class="cls-3" x="687.47" y="835.96" height="0.03"/></g><g class="cls-50"><rect class="cls-3" y="130.3" width="0.38" height="821.52"/><rect class="cls-3" x="0.38" y="130.3" width="11.24" height="821.52"/><rect class="cls-4" x="11.62" y="130.3" width="11.24" height="821.52"/><rect class="cls-5" x="22.87" y="130.3" width="11.24" height="821.52"/><rect class="cls-6" x="34.11" y="130.3" width="11.24" height="821.52"/><rect class="cls-7" x="45.35" y="130.3" width="11.24" height="821.52"/><rect class="cls-8" x="56.59" y="130.3" width="11.24" height="821.52"/><rect class="cls-8" x="67.83" y="130.3" width="11.24" height="821.52"/><rect class="cls-9" x="79.08" y="130.3" width="11.24" height="821.52"/><rect class="cls-10" x="90.32" y="130.3" width="11.24" height="821.52"/><rect class="cls-11" x="101.56" y="130.3" width="11.24" height="821.52"/><rect class="cls-12" x="112.8" y="130.3" width="11.24" height="821.52"/><rect class="cls-13" x="124.04" y="130.3" width="11.24" height="821.52"/><rect class="cls-14" x="135.29" y="130.3" width="11.24" height="821.52"/><rect class="cls-15" x="146.53" y="130.3" width="11.24" height="821.52"/><rect class="cls-15" x="157.77" y="130.3" width="11.24" height="821.52"/><rect class="cls-16" x="169.01" y="130.3" width="11.24" height="821.52"/><rect class="cls-17" x="180.25" y="130.3" width="11.24" height="821.52"/><rect class="cls-18" x="191.5" y="130.3" width="11.24" height="821.52"/><rect class="cls-19" x="202.74" y="130.3" width="11.24" height="821.52"/><rect class="cls-19" x="213.98" y="130.3" width="11.24" height="821.52"/><rect class="cls-20" x="225.22" y="130.3" width="11.24" height="821.52"/><rect class="cls-21" x="236.46" y="130.3" width="11.24" height="821.52"/><rect class="cls-22" x="247.71" y="130.3" width="11.24" height="821.52"/><rect class="cls-23" x="258.95" y="130.3" width="11.24" height="821.52"/><rect class="cls-24" x="270.19" y="130.3" width="11.24" height="821.52"/><rect class="cls-25" x="281.43" y="130.3" width="11.24" height="821.52"/><rect class="cls-26" x="292.67" y="130.3" width="11.24" height="821.52"/><rect class="cls-27" x="303.92" y="130.3" width="11.24" height="821.52"/><rect class="cls-27" x="315.16" y="130.3" width="11.24" height="821.52"/><rect class="cls-28" x="326.4" y="130.3" width="11.24" height="821.52"/><rect class="cls-29" x="337.64" y="130.3" width="11.24" height="821.52"/><rect class="cls-30" x="348.88" y="130.3" width="11.24" height="821.52"/><rect class="cls-31" x="360.13" y="130.3" width="11.24" height="821.52"/><rect class="cls-31" x="371.37" y="130.3" width="11.24" height="821.52"/><rect class="cls-32" x="382.61" y="130.3" width="11.24" height="821.52"/><rect class="cls-33" x="393.85" y="130.3" width="11.24" height="821.52"/><rect class="cls-34" x="405.09" y="130.3" width="11.24" height="821.52"/><rect class="cls-35" x="416.34" y="130.3" width="11.24" height="821.52"/><rect class="cls-35" x="427.58" y="130.3" width="11.24" height="821.52"/><rect class="cls-36" x="438.82" y="130.3" width="11.24" height="821.52"/><rect class="cls-37" x="450.06" y="130.3" width="11.24" height="821.52"/><rect class="cls-38" x="461.3" y="130.3" width="11.24" height="821.52"/><rect class="cls-38" x="472.55" y="130.3" width="11.24" height="821.52"/><rect class="cls-39" x="483.79" y="130.3" width="11.24" height="821.52"/><rect class="cls-40" x="495.03" y="130.3" width="11.24" height="821.52"/><rect class="cls-41" x="506.27" y="130.3" width="11.24" height="821.52"/><rect class="cls-42" x="517.51" y="130.3" width="11.24" height="821.52"/><rect class="cls-42" x="528.75" y="130.3" width="11.24" height="821.52"/><rect class="cls-43" x="540" y="130.3" width="11.24" height="821.52"/><rect class="cls-44" x="551.24" y="130.3" width="11.24" height="821.52"/><rect class="cls-45" x="562.48" y="130.3" width="11.24" height="821.52"/><rect class="cls-45" x="573.72" y="130.3" width="11.24" height="821.52"/><rect class="cls-46" x="584.96" y="130.3" width="11.24" height="821.52"/><rect class="cls-47" x="596.21" y="130.3" width="11.24" height="821.52"/><rect class="cls-48" x="607.45" y="130.3" width="11.24" height="821.52"/><rect class="cls-48" x="618.69" y="130.3" width="10.81" height="821.52"/><rect class="cls-47" x="629.5" y="130.3" width="10.81" height="821.52"/><rect class="cls-46" x="640.31" y="130.3" width="10.81" height="821.52"/><rect class="cls-45" x="651.12" y="130.3" width="10.81" height="821.52"/><rect class="cls-45" x="661.93" y="130.3" width="10.81" height="821.52"/><rect class="cls-44" x="672.74" y="130.3" width="10.81" height="821.52"/><rect class="cls-43" x="683.55" y="130.3" width="10.81" height="821.52"/><rect class="cls-42" x="694.36" y="130.3" width="10.81" height="821.52"/><rect class="cls-42" x="705.17" y="130.3" width="10.81" height="821.52"/><rect class="cls-41" x="715.98" y="130.3" width="10.81" height="821.52"/><rect class="cls-40" x="726.79" y="130.3" width="10.81" height="821.52"/><rect class="cls-39" x="737.6" y="130.3" width="10.81" height="821.52"/><rect class="cls-38" x="748.41" y="130.3" width="10.81" height="821.52"/><rect class="cls-38" x="759.22" y="130.3" width="10.81" height="821.52"/><rect class="cls-37" x="770.02" y="130.3" width="10.81" height="821.52"/><rect class="cls-36" x="780.83" y="130.3" width="10.81" height="821.52"/><rect class="cls-35" x="791.64" y="130.3" width="10.81" height="821.52"/><rect class="cls-35" x="802.45" y="130.3" width="10.81" height="821.52"/><rect class="cls-34" x="813.26" y="130.3" width="10.81" height="821.52"/><rect class="cls-33" x="824.07" y="130.3" width="10.81" height="821.52"/><rect class="cls-32" x="834.88" y="130.3" width="10.81" height="821.52"/><rect class="cls-31" x="845.69" y="130.3" width="10.81" height="821.52"/><rect class="cls-31" x="856.5" y="130.3" width="10.81" height="821.52"/><rect class="cls-30" x="867.31" y="130.3" width="10.81" height="821.52"/><rect class="cls-29" x="878.12" y="130.3" width="10.81" height="821.52"/><rect class="cls-28" x="888.93" y="130.3" width="10.81" height="821.52"/><rect class="cls-27" x="899.74" y="130.3" width="10.81" height="821.52"/><rect class="cls-27" x="910.55" y="130.3" width="10.81" height="821.52"/><rect class="cls-26" x="921.36" y="130.3" width="10.81" height="821.52"/><rect class="cls-25" x="932.17" y="130.3" width="10.81" height="821.52"/><rect class="cls-24" x="942.98" y="130.3" width="10.81" height="821.52"/><rect class="cls-23" x="953.79" y="130.3" width="10.81" height="821.52"/><rect class="cls-22" x="964.6" y="130.3" width="10.81" height="821.52"/><rect class="cls-21" x="975.41" y="130.3" width="10.81" height="821.52"/><rect class="cls-20" x="986.22" y="130.3" width="10.81" height="821.52"/><rect class="cls-19" x="997.03" y="130.3" width="10.81" height="821.52"/><rect class="cls-19" x="1007.84" y="130.3" width="10.81" height="821.52"/><rect class="cls-18" x="1018.65" y="130.3" width="10.81" height="821.52"/><rect class="cls-17" x="1029.45" y="130.3" width="10.81" height="821.52"/><rect class="cls-16" x="1040.26" y="130.3" width="10.81" height="821.52"/><rect class="cls-15" x="1051.07" y="130.3" width="10.81" height="821.52"/><rect class="cls-15" x="1061.88" y="130.3" width="10.81" height="821.52"/><rect class="cls-14" x="1072.69" y="130.3" width="10.81" height="821.52"/><rect class="cls-13" x="1083.5" y="130.3" width="10.81" height="821.52"/><rect class="cls-12" x="1094.31" y="130.3" width="10.81" height="821.52"/><rect class="cls-11" x="1105.12" y="130.3" width="10.81" height="821.52"/><rect class="cls-10" x="1115.93" y="130.3" width="10.81" height="821.52"/><rect class="cls-9" x="1126.74" y="130.3" width="10.81" height="821.52"/><rect class="cls-8" x="1137.55" y="130.3" width="10.81" height="821.52"/><rect class="cls-8" x="1148.36" y="130.3" width="10.81" height="821.52"/><rect class="cls-7" x="1159.17" y="130.3" width="10.81" height="821.52"/><rect class="cls-6" x="1169.98" y="130.3" width="10.81" height="821.52"/><rect class="cls-5" x="1180.79" y="130.3" width="10.81" height="821.52"/><rect class="cls-4" x="1191.6" y="130.3" width="10.81" height="821.52"/><rect class="cls-3" x="1202.41" y="130.3" width="10.81" height="821.52"/><rect class="cls-3" x="1213.22" y="130.3" width="3.4" height="821.52"/></g><g class="cls-51"><rect class="cls-3" x="935.87" width="1.52" height="168.71"/><rect class="cls-4" x="937.4" width="1.52" height="168.71"/><rect class="cls-5" x="938.92" width="1.52" height="168.71"/><rect class="cls-6" x="940.45" width="1.52" height="168.71"/><rect class="cls-7" x="941.97" width="1.52" height="168.71"/><rect class="cls-8" x="943.49" width="1.52" height="168.71"/><rect class="cls-8" x="945.02" width="1.52" height="168.71"/><rect class="cls-9" x="946.54" width="1.52" height="168.71"/><rect class="cls-10" x="948.07" width="1.52" height="168.71"/><rect class="cls-11" x="949.59" width="1.52" height="168.71"/><rect class="cls-12" x="951.12" width="1.52" height="168.71"/><rect class="cls-13" x="952.64" width="1.52" height="168.71"/><rect class="cls-14" x="954.16" width="1.52" height="168.71"/><rect class="cls-15" x="955.69" width="1.52" height="168.71"/><rect class="cls-15" x="957.21" width="1.52" height="168.71"/><rect class="cls-16" x="958.74" width="1.52" height="168.71"/><rect class="cls-17" x="960.26" width="1.52" height="168.71"/><rect class="cls-18" x="961.79" width="1.52" height="168.71"/><rect class="cls-19" x="963.31" width="1.52" height="168.71"/><rect class="cls-19" x="964.83" width="1.52" height="168.71"/><rect class="cls-20" x="966.36" width="1.52" height="168.71"/><rect class="cls-21" x="967.88" width="1.52" height="168.71"/><rect class="cls-22" x="969.41" width="1.52" height="168.71"/><rect class="cls-23" x="970.93" width="1.52" height="168.71"/><rect class="cls-24" x="972.46" width="1.52" height="168.71"/><rect class="cls-25" x="973.98" width="1.52" height="168.71"/><rect class="cls-26" x="975.5" width="1.52" height="168.71"/><rect class="cls-27" x="977.03" width="1.52" height="168.71"/><rect class="cls-27" x="978.55" width="1.52" height="168.71"/><rect class="cls-28" x="980.08" width="1.52" height="168.71"/><rect class="cls-29" x="981.6" width="1.52" height="168.71"/><rect class="cls-30" x="983.13" width="1.52" height="168.71"/><rect class="cls-31" x="984.65" width="1.52" height="168.71"/><rect class="cls-31" x="986.18" width="1.52" height="168.71"/><rect class="cls-32" x="987.7" width="1.52" height="168.71"/><rect class="cls-33" x="989.22" width="1.52" height="168.71"/><rect class="cls-34" x="990.75" width="1.52" height="168.71"/><rect class="cls-35" x="992.27" width="1.52" height="168.71"/><rect class="cls-35" x="993.8" width="1.52" height="168.71"/><rect class="cls-36" x="995.32" width="1.52" height="168.71"/><rect class="cls-37" x="996.85" width="1.52" height="168.71"/><rect class="cls-38" x="998.37" width="1.52" height="168.71"/><rect class="cls-38" x="999.89" width="1.52" height="168.71"/><rect class="cls-39" x="1001.42" width="1.52" height="168.71"/><rect class="cls-40" x="1002.94" width="1.52" height="168.71"/><rect class="cls-41" x="1004.47" width="1.52" height="168.71"/><rect class="cls-42" x="1005.99" width="1.52" height="168.71"/><rect class="cls-42" x="1007.52" width="1.52" height="168.71"/><rect class="cls-43" x="1009.04" width="1.52" height="168.71"/><rect class="cls-44" x="1010.56" width="1.52" height="168.71"/><rect class="cls-45" x="1012.09" width="1.52" height="168.71"/><rect class="cls-45" x="1013.61" width="1.52" height="168.71"/><rect class="cls-46" x="1015.14" width="1.52" height="168.71"/><rect class="cls-47" x="1016.66" width="1.52" height="168.71"/><rect class="cls-48" x="1018.19" width="1.52" height="168.71"/><rect class="cls-48" x="1019.71" width="1.47" height="168.71"/><rect class="cls-47" x="1021.18" width="1.47" height="168.71"/><rect class="cls-46" x="1022.64" width="1.47" height="168.71"/><rect class="cls-45" x="1024.11" width="1.47" height="168.71"/><rect class="cls-45" x="1025.57" width="1.47" height="168.71"/><rect class="cls-44" x="1027.04" width="1.47" height="168.71"/><rect class="cls-43" x="1028.5" width="1.47" height="168.71"/><rect class="cls-42" x="1029.97" width="1.47" height="168.71"/><rect class="cls-42" x="1031.44" width="1.47" height="168.71"/><rect class="cls-41" x="1032.9" width="1.47" height="168.71"/><rect class="cls-40" x="1034.37" width="1.47" height="168.71"/><rect class="cls-39" x="1035.83" width="1.47" height="168.71"/><rect class="cls-38" x="1037.3" width="1.47" height="168.71"/><rect class="cls-38" x="1038.76" width="1.47" height="168.71"/><rect class="cls-37" x="1040.23" width="1.47" height="168.71"/><rect class="cls-36" x="1041.7" width="1.47" height="168.71"/><rect class="cls-35" x="1043.16" width="1.47" height="168.71"/><rect class="cls-35" x="1044.63" width="1.47" height="168.71"/><rect class="cls-34" x="1046.09" width="1.47" height="168.71"/><rect class="cls-33" x="1047.56" width="1.47" height="168.71"/><rect class="cls-32" x="1049.02" width="1.47" height="168.71"/><rect class="cls-31" x="1050.49" width="1.47" height="168.71"/><rect class="cls-31" x="1051.95" width="1.47" height="168.71"/><rect class="cls-30" x="1053.42" width="1.47" height="168.71"/><rect class="cls-29" x="1054.89" width="1.47" height="168.71"/><rect class="cls-28" x="1056.35" width="1.47" height="168.71"/><rect class="cls-27" x="1057.82" width="1.47" height="168.71"/><rect class="cls-27" x="1059.28" width="1.47" height="168.71"/><rect class="cls-26" x="1060.75" width="1.47" height="168.71"/><rect class="cls-25" x="1062.21" width="1.47" height="168.71"/><rect class="cls-24" x="1063.68" width="1.47" height="168.71"/><rect class="cls-23" x="1065.15" width="1.47" height="168.71"/><rect class="cls-22" x="1066.61" width="1.47" height="168.71"/><rect class="cls-21" x="1068.08" width="1.47" height="168.71"/><rect class="cls-20" x="1069.54" width="1.47" height="168.71"/><rect class="cls-19" x="1071.01" width="1.47" height="168.71"/><rect class="cls-19" x="1072.47" width="1.47" height="168.71"/><rect class="cls-18" x="1073.94" width="1.47" height="168.71"/><rect class="cls-17" x="1075.41" width="1.47" height="168.71"/><rect class="cls-16" x="1076.87" width="1.47" height="168.71"/><rect class="cls-15" x="1078.34" width="1.47" height="168.71"/><rect class="cls-15" x="1079.8" width="1.47" height="168.71"/><rect class="cls-14" x="1081.27" width="1.47" height="168.71"/><rect class="cls-13" x="1082.73" width="1.47" height="168.71"/><rect class="cls-12" x="1084.2" width="1.47" height="168.71"/><rect class="cls-11" x="1085.67" width="1.47" height="168.71"/><rect class="cls-10" x="1087.13" width="1.47" height="168.71"/><rect class="cls-9" x="1088.6" width="1.47" height="168.71"/><rect class="cls-8" x="1090.06" width="1.47" height="168.71"/><rect class="cls-8" x="1091.53" width="1.47" height="168.71"/><rect class="cls-7" x="1092.99" width="1.47" height="168.71"/><rect class="cls-6" x="1094.46" width="1.47" height="168.71"/><rect class="cls-5" x="1095.93" width="1.47" height="168.71"/><rect class="cls-4" x="1097.39" width="1.47" height="168.71"/><rect class="cls-3" x="1098.86" width="1.47" height="168.71"/><rect class="cls-3" x="1100.32" width="0.46" height="168.71"/></g><g class="cls-52"><polygon class="cls-8" points="546.68 436.97 547.1 439.26 546.68 439.26 546.68 436.97"/><polygon class="cls-8" points="546.68 429.42 548.46 439.26 547.1 439.26 546.68 436.97 546.68 429.42"/><polygon class="cls-9" points="547.62 427.03 549.82 439.26 548.46 439.26 546.68 429.42 546.68 427.03 547.62 427.03"/><polygon class="cls-10" points="548.97 427.03 551.17 439.26 549.82 439.26 547.62 427.03 548.97 427.03"/><polygon class="cls-11" points="550.33 427.03 552.53 439.26 551.17 439.26 548.97 427.03 550.33 427.03"/><polygon class="cls-12" points="551.69 427.03 553.89 439.26 552.53 439.26 550.33 427.03 551.69 427.03"/><polygon class="cls-13" points="553.05 427.03 555.25 439.26 553.89 439.26 551.69 427.03 553.05 427.03"/><polygon class="cls-14" points="554.41 427.03 556.61 439.26 555.25 439.26 553.05 427.03 554.41 427.03"/><polygon class="cls-15" points="555.77 427.03 557.28 435.41 557.28 439.26 556.61 439.26 554.41 427.03 555.77 427.03"/><polygon class="cls-15" points="557.13 427.03 557.28 427.86 557.28 435.41 555.77 427.03 557.13 427.03"/><polygon class="cls-16" points="557.28 427.86 557.13 427.03 557.28 427.03 557.28 427.86"/><polygon class="cls-3" points="537.82 433.02 540.94 450.35 537.82 450.35 537.82 433.02"/><polygon class="cls-3" points="537.82 425.47 542.3 450.35 540.94 450.35 537.82 433.02 537.82 425.47"/><polygon class="cls-4" points="537.82 417.91 543.66 450.35 542.3 450.35 537.82 425.47 537.82 417.91"/><polygon class="cls-5" points="537.82 410.36 545.01 450.35 543.66 450.35 537.82 417.91 537.82 410.36"/><polygon class="cls-6" points="537.82 407.98 538.72 407.82 546.37 450.35 545.01 450.35 537.82 410.36 537.82 407.98"/><polygon class="cls-7" points="538.72 407.82 540.04 407.58 547.73 450.35 546.37 450.35 538.72 407.82"/><polygon class="cls-8" points="540.04 407.58 541.36 407.35 549.09 450.35 547.73 450.35 540.04 407.58"/><polygon class="cls-8" points="541.36 407.35 542.67 407.11 550.45 450.35 549.09 450.35 541.36 407.35"/><polygon class="cls-9" points="542.67 407.11 543.99 406.87 551.81 450.35 550.45 450.35 542.67 407.11"/><polygon class="cls-10" points="543.99 406.87 545.3 406.64 553.17 450.35 551.81 450.35 543.99 406.87"/><polygon class="cls-11" points="545.3 406.64 546.62 406.4 554.53 450.35 553.17 450.35 545.3 406.64"/><polygon class="cls-12" points="546.62 406.4 547.94 406.16 555.89 450.35 554.53 450.35 546.62 406.4"/><polygon class="cls-13" points="547.94 406.16 549.25 405.93 557.25 450.35 555.89 450.35 547.94 406.16"/><polygon class="cls-14" points="549.25 405.93 550.57 405.69 558.6 450.35 557.25 450.35 549.25 405.93"/><polygon class="cls-15" points="550.57 405.69 551.89 405.45 559.96 450.35 558.6 450.35 550.57 405.69"/><polygon class="cls-15" points="551.89 405.45 553.2 405.22 561.32 450.35 559.96 450.35 551.89 405.45"/><polygon class="cls-16" points="553.2 405.22 554.52 404.98 562.68 450.35 561.32 450.35 553.2 405.22"/><polygon class="cls-17" points="554.52 404.98 555.84 404.74 564.04 450.35 562.68 450.35 554.52 404.98"/><polygon class="cls-18" points="555.84 404.74 557.15 404.51 565.4 450.35 564.04 450.35 555.84 404.74"/><polygon class="cls-19" points="557.15 404.51 558.47 404.27 566.76 450.35 565.4 450.35 557.15 404.51"/><polygon class="cls-19" points="558.47 404.27 559.78 404.03 568.12 450.35 566.76 450.35 558.47 404.27"/><polygon class="cls-20" points="559.78 404.03 561.1 403.8 569.48 450.35 568.12 450.35 559.78 404.03"/><polygon class="cls-21" points="561.1 403.8 562.42 403.56 570.83 450.35 569.48 450.35 561.1 403.8"/><polygon class="cls-22" points="562.42 403.56 563.73 403.32 572.19 450.35 570.83 450.35 562.42 403.56"/><polygon class="cls-23" points="563.73 403.32 565.05 403.08 573.55 450.35 572.19 450.35 563.73 403.32"/><polygon class="cls-24" points="565.05 403.08 566.37 402.85 574.91 450.35 573.55 450.35 565.05 403.08"/><polygon class="cls-25" points="566.37 402.85 567.68 402.61 576.27 450.35 574.91 450.35 566.37 402.85"/><polygon class="cls-26" points="567.68 402.61 569 402.38 577.63 450.35 576.27 450.35 567.68 402.61"/><polygon class="cls-27" points="569 402.38 570.31 402.14 578.99 450.35 577.63 450.35 569 402.38"/><polygon class="cls-27" points="570.31 402.14 571.63 401.9 580.35 450.35 578.99 450.35 570.31 402.14"/><polygon class="cls-28" points="571.63 401.9 572.95 401.67 581.7 450.35 580.35 450.35 571.63 401.9"/><polygon class="cls-29" points="572.95 401.67 574.26 401.43 583.06 450.35 581.7 450.35 572.95 401.67"/><polygon class="cls-30" points="574.26 401.43 575.58 401.19 584.42 450.35 583.06 450.35 574.26 401.43"/><polygon class="cls-31" points="575.58 401.19 576.9 400.95 585.78 450.35 584.42 450.35 575.58 401.19"/><polygon class="cls-31" points="576.9 400.95 578.21 400.72 587.14 450.35 585.78 450.35 576.9 400.95"/><polygon class="cls-32" points="578.21 400.72 579.53 400.48 588.5 450.35 587.14 450.35 578.21 400.72"/><polygon class="cls-33" points="579.53 400.48 580.84 400.24 589.86 450.35 588.5 450.35 579.53 400.48"/><polygon class="cls-34" points="580.84 400.24 582.16 400.01 591.22 450.35 589.86 450.35 580.84 400.24"/><polygon class="cls-35" points="582.16 400.01 583.48 399.77 592.58 450.35 591.22 450.35 582.16 400.01"/><polygon class="cls-35" points="583.48 399.77 584.79 399.53 593.93 450.35 592.58 450.35 583.48 399.77"/><polygon class="cls-36" points="584.79 399.53 586.11 399.3 595.29 450.35 593.93 450.35 584.79 399.53"/><polygon class="cls-37" points="586.11 399.3 587.43 399.06 596.65 450.35 595.29 450.35 586.11 399.3"/><polygon class="cls-38" points="587.43 399.06 588.74 398.82 598.01 450.35 596.65 450.35 587.43 399.06"/><polygon class="cls-38" points="588.74 398.82 590.06 398.59 599.37 450.35 598.01 450.35 588.74 398.82"/><polygon class="cls-39" points="590.06 398.59 591.37 398.35 600.73 450.35 599.37 450.35 590.06 398.59"/><polygon class="cls-40" points="591.37 398.35 592.69 398.11 602.09 450.35 600.73 450.35 591.37 398.35"/><polygon class="cls-41" points="592.69 398.11 594.01 397.88 603.45 450.35 602.09 450.35 592.69 398.11"/><polygon class="cls-42" points="594.01 397.88 595.32 397.64 604.8 450.35 603.45 450.35 594.01 397.88"/><polygon class="cls-42" points="595.32 397.64 596.64 397.4 606.16 450.35 604.8 450.35 595.32 397.64"/><polygon class="cls-43" points="596.64 397.4 597.96 397.17 607.52 450.35 606.16 450.35 596.64 397.4"/><polygon class="cls-44" points="597.96 397.17 599.27 396.93 608.88 450.35 607.52 450.35 597.96 397.17"/><polygon class="cls-45" points="599.27 396.93 600.59 396.69 610.24 450.35 608.88 450.35 599.27 396.93"/><polygon class="cls-45" points="600.59 396.69 601.9 396.45 611.6 450.35 610.24 450.35 600.59 396.69"/><polygon class="cls-46" points="601.9 396.45 603.22 396.22 612.96 450.35 611.6 450.35 601.9 396.45"/><polygon class="cls-47" points="603.22 396.22 604.54 395.98 614.32 450.35 612.96 450.35 603.22 396.22"/><polygon class="cls-48" points="604.54 395.98 605.85 395.75 615.68 450.35 614.32 450.35 604.54 395.98"/><polygon class="cls-48" points="605.85 395.75 607.12 395.52 616.98 450.35 615.68 450.35 605.85 395.75"/><polygon class="cls-47" points="607.12 395.52 608.38 395.29 618.29 450.35 616.98 450.35 607.12 395.52"/><polygon class="cls-46" points="608.38 395.29 609.65 395.06 619.6 450.35 618.29 450.35 608.38 395.29"/><polygon class="cls-45" points="609.65 395.06 610.92 394.83 620.9 450.35 619.6 450.35 609.65 395.06"/><polygon class="cls-45" points="610.92 394.83 612.18 394.61 622.21 450.35 620.9 450.35 610.92 394.83"/><polygon class="cls-44" points="612.18 394.61 613.45 394.38 623.51 450.35 622.21 450.35 612.18 394.61"/><polygon class="cls-43" points="613.45 394.38 614.71 394.15 624.82 450.35 623.51 450.35 613.45 394.38"/><polygon class="cls-42" points="614.71 394.15 615.98 393.92 626.13 450.35 624.82 450.35 614.71 394.15"/><polygon class="cls-42" points="615.98 393.92 617.13 393.72 617.25 393.72 627.43 450.35 626.13 450.35 615.98 393.92"/><polygon class="cls-41" points="618.55 393.72 628.74 450.35 627.43 450.35 617.25 393.72 618.55 393.72"/><polygon class="cls-40" points="619.86 393.72 630.05 450.35 628.74 450.35 618.55 393.72 619.86 393.72"/><polygon class="cls-39" points="621.17 393.72 631.36 450.35 630.05 450.35 619.86 393.72 621.17 393.72"/><polygon class="cls-38" points="622.47 393.72 632.66 450.35 631.36 450.35 621.17 393.72 622.47 393.72"/><polygon class="cls-38" points="623.78 393.72 633.97 450.35 632.66 450.35 622.47 393.72 623.78 393.72"/><polygon class="cls-37" points="625.09 393.72 635.27 450.35 633.97 450.35 623.78 393.72 625.09 393.72"/><polygon class="cls-36" points="626.39 393.72 636.58 450.35 635.27 450.35 625.09 393.72 626.39 393.72"/><polygon class="cls-35" points="627.7 393.72 637.89 450.35 636.58 450.35 626.39 393.72 627.7 393.72"/><polygon class="cls-35" points="629.01 393.72 639.2 450.35 637.89 450.35 627.7 393.72 629.01 393.72"/><polygon class="cls-34" points="630.31 393.72 640.5 450.35 639.2 450.35 629.01 393.72 630.31 393.72"/><polygon class="cls-33" points="631.62 393.72 641.81 450.35 640.5 450.35 630.31 393.72 631.62 393.72"/><polygon class="cls-32" points="632.93 393.72 643.08 450.16 642.06 450.35 641.81 450.35 631.62 393.72 632.93 393.72"/><polygon class="cls-31" points="634.23 393.72 644.35 449.93 643.08 450.16 632.93 393.72 634.23 393.72"/><polygon class="cls-31" points="635.54 393.72 645.61 449.71 644.35 449.93 634.23 393.72 635.54 393.72"/><polygon class="cls-30" points="636.85 393.72 646.88 449.48 645.61 449.71 635.54 393.72 636.85 393.72"/><polygon class="cls-29" points="638.15 393.72 648.14 449.25 646.88 449.48 636.85 393.72 638.15 393.72"/><polygon class="cls-28" points="639.46 393.72 649.41 449.02 648.14 449.25 638.15 393.72 639.46 393.72"/><polygon class="cls-27" points="640.77 393.72 650.67 448.8 649.41 449.02 639.46 393.72 640.77 393.72"/><polygon class="cls-27" points="642.07 393.72 651.94 448.57 650.67 448.8 640.77 393.72 642.07 393.72"/><polygon class="cls-26" points="643.38 393.72 653.21 448.34 651.94 448.57 642.07 393.72 643.38 393.72"/><polygon class="cls-25" points="644.69 393.72 654.47 448.11 653.21 448.34 643.38 393.72 644.69 393.72"/><polygon class="cls-24" points="645.99 393.72 655.74 447.88 654.47 448.11 644.69 393.72 645.99 393.72"/><polygon class="cls-23" points="647.3 393.72 657 447.66 655.74 447.88 645.99 393.72 647.3 393.72"/><polygon class="cls-22" points="648.61 393.72 658.27 447.43 657 447.66 647.3 393.72 648.61 393.72"/><polygon class="cls-21" points="649.91 393.72 659.53 447.2 658.27 447.43 648.61 393.72 649.91 393.72"/><polygon class="cls-20" points="651.22 393.72 660.8 446.97 659.53 447.2 649.91 393.72 651.22 393.72"/><polygon class="cls-19" points="652.53 393.72 662.07 446.75 660.8 446.97 651.22 393.72 652.53 393.72"/><polygon class="cls-19" points="653.83 393.72 663.33 446.52 662.07 446.75 652.53 393.72 653.83 393.72"/><polygon class="cls-18" points="655.14 393.72 664.6 446.29 663.33 446.52 653.83 393.72 655.14 393.72"/><polygon class="cls-17" points="656.45 393.72 665.86 446.06 664.6 446.29 655.14 393.72 656.45 393.72"/><polygon class="cls-16" points="657.75 393.72 667.13 445.84 665.86 446.06 656.45 393.72 657.75 393.72"/><polygon class="cls-15" points="659.06 393.72 668.39 445.61 667.13 445.84 657.75 393.72 659.06 393.72"/><polygon class="cls-15" points="660.37 393.72 669.66 445.38 668.39 445.61 659.06 393.72 660.37 393.72"/><polygon class="cls-14" points="661.67 393.72 670.92 445.15 669.66 445.38 660.37 393.72 661.67 393.72"/><polygon class="cls-13" points="662.98 393.72 672.19 444.93 670.92 445.15 661.67 393.72 662.98 393.72"/><polygon class="cls-12" points="664.28 393.72 673.46 444.7 672.19 444.93 662.98 393.72 664.28 393.72"/><polygon class="cls-11" points="665.59 393.72 674.72 444.47 673.46 444.7 664.28 393.72 665.59 393.72"/><polygon class="cls-10" points="666.9 393.72 675.99 444.24 674.72 444.47 665.59 393.72 666.9 393.72"/><polygon class="cls-9" points="668.21 393.72 677.25 444.01 675.99 444.24 666.9 393.72 668.21 393.72"/><polygon class="cls-8" points="669.51 393.72 678.52 443.79 677.25 444.01 668.21 393.72 669.51 393.72"/><polygon class="cls-8" points="670.82 393.72 679.19 440.27 679.19 443.67 678.52 443.79 669.51 393.72 670.82 393.72"/><polygon class="cls-7" points="672.13 393.72 679.19 433.01 679.19 440.27 670.82 393.72 672.13 393.72"/><polygon class="cls-6" points="673.43 393.72 679.19 425.75 679.19 433.01 672.13 393.72 673.43 393.72"/><polygon class="cls-5" points="674.74 393.72 679.19 418.49 679.19 425.75 673.43 393.72 674.74 393.72"/><polygon class="cls-4" points="676.04 393.72 679.19 411.22 679.19 418.49 674.74 393.72 676.04 393.72"/><polygon class="cls-3" points="677.35 393.72 679.19 403.96 679.19 411.22 676.04 393.72 677.35 393.72"/><polygon class="cls-3" points="679.19 403.96 677.35 393.72 679.19 393.72 679.19 403.96"/></g><g class="cls-53"><polygon class="cls-3" points="551.1 326.77 563.64 396.48 551.1 396.48 551.1 326.77"/><polygon class="cls-3" points="551.1 321.51 564.59 396.48 563.64 396.48 551.1 326.77 551.1 321.51"/><polygon class="cls-4" points="551.1 316.26 565.53 396.48 564.59 396.48 551.1 321.51 551.1 316.26"/><polygon class="cls-5" points="551.1 311 566.48 396.48 565.53 396.48 551.1 316.26 551.1 311"/><polygon class="cls-6" points="551.43 307.6 567.42 396.48 566.48 396.48 551.1 311 551.1 307.6 551.43 307.6"/><polygon class="cls-7" points="552.38 307.6 568.37 396.48 567.42 396.48 551.43 307.6 552.38 307.6"/><polygon class="cls-8" points="553.32 307.6 569.31 396.48 568.37 396.48 552.38 307.6 553.32 307.6"/><polygon class="cls-8" points="554.27 307.6 570.26 396.48 569.31 396.48 553.32 307.6 554.27 307.6"/><polygon class="cls-9" points="555.21 307.6 571.2 396.48 570.26 396.48 554.27 307.6 555.21 307.6"/><polygon class="cls-10" points="556.16 307.6 572.15 396.48 571.2 396.48 555.21 307.6 556.16 307.6"/><polygon class="cls-11" points="557.1 307.6 573.09 396.48 572.15 396.48 556.16 307.6 557.1 307.6"/><polygon class="cls-12" points="558.05 307.6 574.04 396.48 573.09 396.48 557.1 307.6 558.05 307.6"/><polygon class="cls-13" points="559 307.6 574.98 396.48 574.04 396.48 558.05 307.6 559 307.6"/><polygon class="cls-14" points="559.94 307.6 575.93 396.48 574.98 396.48 559 307.6 559.94 307.6"/><polygon class="cls-15" points="560.88 307.6 576.88 396.48 575.93 396.48 559.94 307.6 560.88 307.6"/><polygon class="cls-15" points="561.83 307.6 577.82 396.48 576.88 396.48 560.88 307.6 561.83 307.6"/><polygon class="cls-16" points="562.78 307.6 578.76 396.48 577.82 396.48 561.83 307.6 562.78 307.6"/><polygon class="cls-17" points="563.72 307.6 579.71 396.48 578.76 396.48 562.78 307.6 563.72 307.6"/><polygon class="cls-18" points="564.67 307.6 580.66 396.48 579.71 396.48 563.72 307.6 564.67 307.6"/><polygon class="cls-19" points="565.61 307.6 581.6 396.48 580.66 396.48 564.67 307.6 565.61 307.6"/><polygon class="cls-19" points="566.56 307.6 582.55 396.48 581.6 396.48 565.61 307.6 566.56 307.6"/><polygon class="cls-20" points="567.5 307.6 583.49 396.48 582.55 396.48 566.56 307.6 567.5 307.6"/><polygon class="cls-21" points="568.45 307.6 584.44 396.48 583.49 396.48 567.5 307.6 568.45 307.6"/><polygon class="cls-22" points="569.39 307.6 585.38 396.48 584.44 396.48 568.45 307.6 569.39 307.6"/><polygon class="cls-23" points="570.34 307.6 586.33 396.48 585.38 396.48 569.39 307.6 570.34 307.6"/><polygon class="cls-24" points="571.28 307.6 587.27 396.48 586.33 396.48 570.34 307.6 571.28 307.6"/><polygon class="cls-25" points="572.23 307.6 588.22 396.48 587.27 396.48 571.28 307.6 572.23 307.6"/><polygon class="cls-26" points="573.17 307.6 589.16 396.48 588.22 396.48 572.23 307.6 573.17 307.6"/><polygon class="cls-27" points="574.12 307.6 590.11 396.48 589.16 396.48 573.17 307.6 574.12 307.6"/><polygon class="cls-27" points="575.06 307.6 591.05 396.48 590.11 396.48 574.12 307.6 575.06 307.6"/><polygon class="cls-28" points="576.01 307.6 592 396.48 591.05 396.48 575.06 307.6 576.01 307.6"/><polygon class="cls-29" points="576.95 307.6 592.94 396.48 592 396.48 576.01 307.6 576.95 307.6"/><polygon class="cls-30" points="577.9 307.6 593.89 396.48 592.94 396.48 576.95 307.6 577.9 307.6"/><polygon class="cls-31" points="578.85 307.6 594.83 396.48 593.89 396.48 577.9 307.6 578.85 307.6"/><polygon class="cls-31" points="579.79 307.6 595.78 396.48 594.83 396.48 578.85 307.6 579.79 307.6"/><polygon class="cls-32" points="580.74 307.6 596.73 396.48 595.78 396.48 579.79 307.6 580.74 307.6"/><polygon class="cls-33" points="581.68 307.6 597.67 396.48 596.73 396.48 580.74 307.6 581.68 307.6"/><polygon class="cls-34" points="582.63 307.6 598.62 396.48 597.67 396.48 581.68 307.6 582.63 307.6"/><polygon class="cls-35" points="583.57 307.6 599.56 396.48 598.62 396.48 582.63 307.6 583.57 307.6"/><polygon class="cls-35" points="584.52 307.6 600.51 396.48 599.56 396.48 583.57 307.6 584.52 307.6"/><polygon class="cls-36" points="585.46 307.6 601.45 396.48 600.51 396.48 584.52 307.6 585.46 307.6"/><polygon class="cls-37" points="586.41 307.6 602.4 396.48 601.45 396.48 585.46 307.6 586.41 307.6"/><polygon class="cls-38" points="587.35 307.6 603.34 396.48 602.4 396.48 586.41 307.6 587.35 307.6"/><polygon class="cls-38" points="588.3 307.6 604.29 396.48 603.34 396.48 587.35 307.6 588.3 307.6"/><polygon class="cls-39" points="589.24 307.6 605.23 396.48 604.29 396.48 588.3 307.6 589.24 307.6"/><polygon class="cls-40" points="590.19 307.6 606.18 396.48 605.23 396.48 589.24 307.6 590.19 307.6"/><polygon class="cls-41" points="591.13 307.6 607.12 396.48 606.18 396.48 590.19 307.6 591.13 307.6"/><polygon class="cls-42" points="592.08 307.6 608.07 396.48 607.12 396.48 591.13 307.6 592.08 307.6"/><polygon class="cls-42" points="593.02 307.6 609.01 396.48 608.07 396.48 592.08 307.6 593.02 307.6"/><polygon class="cls-43" points="593.97 307.6 609.96 396.48 609.01 396.48 593.02 307.6 593.97 307.6"/><polygon class="cls-44" points="594.91 307.6 610.9 396.48 609.96 396.48 593.97 307.6 594.91 307.6"/><polygon class="cls-45" points="595.86 307.6 611.85 396.48 610.9 396.48 594.91 307.6 595.86 307.6"/><polygon class="cls-45" points="596.8 307.6 612.79 396.48 611.85 396.48 595.86 307.6 596.8 307.6"/><polygon class="cls-46" points="597.75 307.6 613.74 396.48 612.79 396.48 596.8 307.6 597.75 307.6"/><polygon class="cls-47" points="598.69 307.6 614.68 396.48 613.74 396.48 597.75 307.6 598.69 307.6"/><polygon class="cls-48" points="599.64 307.6 615.63 396.48 614.68 396.48 598.69 307.6 599.64 307.6"/><polygon class="cls-48" points="600.55 307.6 616.54 396.48 615.63 396.48 599.64 307.6 600.55 307.6"/><polygon class="cls-47" points="601.46 307.6 617.45 396.48 616.54 396.48 600.55 307.6 601.46 307.6"/><polygon class="cls-46" points="602.37 307.6 618.36 396.48 617.45 396.48 601.46 307.6 602.37 307.6"/><polygon class="cls-45" points="603.27 307.6 619.26 396.48 618.36 396.48 602.37 307.6 603.27 307.6"/><polygon class="cls-45" points="604.18 307.6 620.17 396.48 619.26 396.48 603.27 307.6 604.18 307.6"/><polygon class="cls-44" points="605.09 307.6 621.08 396.48 620.17 396.48 604.18 307.6 605.09 307.6"/><polygon class="cls-43" points="606 307.6 621.99 396.48 621.08 396.48 605.09 307.6 606 307.6"/><polygon class="cls-42" points="606.91 307.6 622.9 396.48 621.99 396.48 606 307.6 606.91 307.6"/><polygon class="cls-42" points="607.82 307.6 623.81 396.48 622.9 396.48 606.91 307.6 607.82 307.6"/><polygon class="cls-41" points="608.73 307.6 624.72 396.48 623.81 396.48 607.82 307.6 608.73 307.6"/><polygon class="cls-40" points="609.64 307.6 625.63 396.48 624.72 396.48 608.73 307.6 609.64 307.6"/><polygon class="cls-39" points="610.55 307.6 626.54 396.48 625.63 396.48 609.64 307.6 610.55 307.6"/><polygon class="cls-38" points="611.46 307.6 627.44 396.48 626.54 396.48 610.55 307.6 611.46 307.6"/><polygon class="cls-38" points="612.36 307.6 628.35 396.48 627.44 396.48 611.46 307.6 612.36 307.6"/><polygon class="cls-37" points="613.27 307.6 629.26 396.48 628.35 396.48 612.36 307.6 613.27 307.6"/><polygon class="cls-36" points="614.18 307.6 630.17 396.48 629.26 396.48 613.27 307.6 614.18 307.6"/><polygon class="cls-35" points="615.09 307.6 631.08 396.48 630.17 396.48 614.18 307.6 615.09 307.6"/><polygon class="cls-35" points="616 307.6 631.99 396.48 631.08 396.48 615.09 307.6 616 307.6"/><polygon class="cls-34" points="616.91 307.6 632.9 396.48 631.99 396.48 616 307.6 616.91 307.6"/><polygon class="cls-33" points="617.82 307.6 633.81 396.48 632.9 396.48 616.91 307.6 617.82 307.6"/><polygon class="cls-32" points="618.73 307.6 634.72 396.48 633.81 396.48 617.82 307.6 618.73 307.6"/><polygon class="cls-31" points="619.63 307.6 635.62 396.48 634.72 396.48 618.73 307.6 619.63 307.6"/><polygon class="cls-31" points="620.54 307.6 636.53 396.48 635.62 396.48 619.63 307.6 620.54 307.6"/><polygon class="cls-30" points="621.45 307.6 637.44 396.48 636.53 396.48 620.54 307.6 621.45 307.6"/><polygon class="cls-29" points="622.36 307.6 638.35 396.48 637.44 396.48 621.45 307.6 622.36 307.6"/><polygon class="cls-28" points="623.27 307.6 639.26 396.48 638.35 396.48 622.36 307.6 623.27 307.6"/><polygon class="cls-27" points="624.18 307.6 640.17 396.48 639.26 396.48 623.27 307.6 624.18 307.6"/><polygon class="cls-27" points="625.09 307.6 641.08 396.48 640.17 396.48 624.18 307.6 625.09 307.6"/><polygon class="cls-26" points="626 307.6 641.99 396.48 641.08 396.48 625.09 307.6 626 307.6"/><polygon class="cls-25" points="626.91 307.6 642.89 396.48 641.99 396.48 626 307.6 626.91 307.6"/><polygon class="cls-24" points="627.81 307.6 643.8 396.48 642.89 396.48 626.91 307.6 627.81 307.6"/><polygon class="cls-23" points="628.72 307.6 644.71 396.48 643.8 396.48 627.81 307.6 628.72 307.6"/><polygon class="cls-22" points="629.63 307.6 645.62 396.48 644.71 396.48 628.72 307.6 629.63 307.6"/><polygon class="cls-21" points="630.54 307.6 646.53 396.48 645.62 396.48 629.63 307.6 630.54 307.6"/><polygon class="cls-20" points="631.45 307.6 647.44 396.48 646.53 396.48 630.54 307.6 631.45 307.6"/><polygon class="cls-19" points="632.36 307.6 648.35 396.48 647.44 396.48 631.45 307.6 632.36 307.6"/><polygon class="cls-19" points="633.27 307.6 649.26 396.48 648.35 396.48 632.36 307.6 633.27 307.6"/><polygon class="cls-18" points="634.18 307.6 650.17 396.48 649.26 396.48 633.27 307.6 634.18 307.6"/><polygon class="cls-17" points="635.09 307.6 651.08 396.48 650.17 396.48 634.18 307.6 635.09 307.6"/><polygon class="cls-16" points="635.99 307.6 651.98 396.48 651.08 396.48 635.09 307.6 635.99 307.6"/><polygon class="cls-15" points="636.9 307.6 652.89 396.48 651.98 396.48 635.99 307.6 636.9 307.6"/><polygon class="cls-15" points="637.81 307.6 653.8 396.48 652.89 396.48 636.9 307.6 637.81 307.6"/><polygon class="cls-14" points="638.72 307.6 654.71 396.48 653.8 396.48 637.81 307.6 638.72 307.6"/><polygon class="cls-13" points="639.63 307.6 655.62 396.48 654.71 396.48 638.72 307.6 639.63 307.6"/><polygon class="cls-12" points="640.54 307.6 656.53 396.48 655.62 396.48 639.63 307.6 640.54 307.6"/><polygon class="cls-11" points="641.45 307.6 657.44 396.48 656.53 396.48 640.54 307.6 641.45 307.6"/><polygon class="cls-10" points="642.36 307.6 658.35 396.48 657.44 396.48 641.45 307.6 642.36 307.6"/><polygon class="cls-9" points="643.26 307.6 659.25 396.48 658.35 396.48 642.36 307.6 643.26 307.6"/><polygon class="cls-8" points="644.17 307.6 660.16 396.48 659.25 396.48 643.26 307.6 644.17 307.6"/><polygon class="cls-8" points="645.08 307.6 661.07 396.48 660.16 396.48 644.17 307.6 645.08 307.6"/><polygon class="cls-7" points="645.99 307.6 661.98 396.48 661.07 396.48 645.08 307.6 645.99 307.6"/><polygon class="cls-6" points="646.9 307.6 662.89 396.48 661.98 396.48 645.99 307.6 646.9 307.6"/><polygon class="cls-5" points="647.81 307.6 663.8 396.48 662.89 396.48 646.9 307.6 647.81 307.6"/><polygon class="cls-4" points="648.72 307.6 664.64 396.12 664.64 396.48 663.8 396.48 647.81 307.6 648.72 307.6"/><polygon class="cls-3" points="649.63 307.6 664.64 391.07 664.64 396.12 648.72 307.6 649.63 307.6"/><polygon class="cls-3" points="664.64 391.07 649.63 307.6 664.64 307.6 664.64 391.07"/></g></svg>