<svg id="Layer_1" data-name="Layer 1" xmlns="http://www.w3.org/2000/svg" xmlns:xlink="http://www.w3.org/1999/xlink" viewBox="0 0 1216.23 951.82"><defs><style>.cls-1{fill:none;}.cls-2{fill:#1d1d1b;}.cls-3{fill:#fff;}.cls-4{clip-path:url(#clip-path);}.cls-5{fill:#8c1913;}.cls-6{fill:#8d1913;}.cls-7{fill:#8e1913;}.cls-8{fill:#8f1913;}.cls-9{fill:#8f1914;}.cls-10{fill:#901914;}.cls-11{fill:#911914;}.cls-12{fill:#921914;}.cls-13{fill:#931914;}.cls-14{fill:#881812;}.cls-15{fill:#891812;}.cls-16{fill:#891912;}.cls-17{fill:#8a1912;}.cls-18{fill:#8b1913;}.cls-19{fill:#941914;}.cls-20{fill:#951915;}.cls-21{fill:#961915;}.cls-22{fill:#971915;}.cls-23{fill:#981915;}.cls-24{fill:#991915;}.cls-25{fill:#991916;}.cls-26{fill:#9a1916;}.cls-27{fill:#9b1a16;}.cls-28{fill:#9c1a16;}.cls-29{fill:#9d1a16;}.cls-30{fill:#9e1a16;}.cls-31{fill:#9f1a17;}.cls-32{fill:#a01a17;}.cls-33{fill:#a11a17;}.cls-34{fill:#a21a17;}.cls-35{fill:#a31a17;}.cls-36{fill:#a41a17;}.cls-37{fill:#a51a18;}.cls-38{fill:#a61a18;}.cls-39{fill:#a71a18;}.cls-40{fill:#a81a18;}.cls-41{fill:#a91a18;}.cls-42{fill:#aa1a18;}.cls-43{fill:#ab1a19;}.cls-44{fill:#ac1a19;}.cls-45{fill:#ad1a19;}.cls-46{fill:#ae1a19;}.cls-47{fill:#af1a19;}.cls-48{fill:#b01a19;}.cls-49{fill:#b11a1a;}.cls-50{fill:#b21a1a;}.cls-51{clip-path:url(#clip-path-2);}</style><clipPath id="clip-path"><path class="cls-1" d="M599.52,448c-1.43.26-2.85.59-4.29.75-1.18.12-2.35.36-3.52.45-.8.05-1.58.23-2.37.24a18.4,18.4,0,0,0-2.11.24,2.06,2.06,0,0,1-.43,0c-.13,0-.26,0-.39,0-.89.09-1.78.21-2.68.27-.69,0-1.38,0-2.07,0h-.17l-2,.16a7.58,7.58,0,0,1-1.64.08c-.56-.08-1.09.15-1.64,0a1.71,1.71,0,0,0-.38,0H575l-.39,0c-.19,0-.37,0-.56,0a.91.91,0,0,0-.17,0c-.48,0-1,.06-1.46,0s-.91,0-1.36-.07-.69,0-1,0a8.7,8.7,0,0,1-1.25,0c-.36,0-.71-.05-1.07-.06s-.92,0-1.37-.06-.8-.07-1.19-.1l-.73,0c-.35,0-.71,0-1.06-.06s-.76-.07-1.14-.1l-1-.06-.69-.06-1.49-.17-.93-.12c-.53-.08-1.07-.16-1.6-.22s-1-.1-1.47-.17-.87-.14-1.3-.21c-.78-.14-1.55-.27-2.32-.43-.54-.1-1.07-.25-1.6-.38-.33-.07-.67-.13-1-.21a12.18,12.18,0,0,1-1.35-.36,12,12,0,0,1-2.2-1.05,15.94,15.94,0,0,1-2.16-1.58,15.14,15.14,0,0,1-2.11-2.28,9.93,9.93,0,0,1-1.12-1.74c-.22-.44-.49-.86-.72-1.3a9.37,9.37,0,0,1-.38-.86c-.17-.46-.33-.92-.48-1.39-.08-.26-.13-.53-.21-.8a11.14,11.14,0,0,1-.51-2.81,2.53,2.53,0,0,0,0-.48,6.21,6.21,0,0,1-.08-1.72,16.56,16.56,0,0,1,.17-1.84,13.92,13.92,0,0,1,.61-2.85,15.37,15.37,0,0,1,.82-2.11,15.7,15.7,0,0,1,1.11-2,13.54,13.54,0,0,1,1.32-1.62,11.84,11.84,0,0,1,2-1.74c.34-.23.71-.42,1.06-.62a8.68,8.68,0,0,1,.9-.48,7.1,7.1,0,0,1,1.17-.42c.62-.15,1.25-.23,1.88-.36a9.18,9.18,0,0,1,2.22-.08c.69,0,1.35.19,2,.26l1.87.2c.54.05,1.08.14,1.61.2s1.05.09,1.57.15c.29,0,.58.11.88.15a7,7,0,0,0,.8.07c.31,0,.63,0,.94,0,.11,0,.22.08.33.09.48.05,1,.08,1.46.12l1.27.12c.35,0,.69,0,1,.05l.8.06,1.78.18a5,5,0,0,1,.77,0,7.34,7.34,0,0,0,1.15,0c.27,0,.54,0,.81,0,.45,0,.89.05,1.34.06l1.37,0,1.24.06h.22l1.57.06c.43,0,.86,0,1.29,0a2.56,2.56,0,0,1,.39,0c.05,0,.11,0,.16,0l1.42-.06c.47,0,.94,0,1.41,0l.17,0a12,12,0,0,1,1.47,0,14.94,14.94,0,0,1,1.77,0,3.84,3.84,0,0,0,1.07,0c.51,0,1,0,1.51-.06h1a8.05,8.05,0,0,1,1.2-.07c.75,0,1.5-.12,2.24-.18a5.3,5.3,0,0,1,.69,0h.17l2.33-.22a2.39,2.39,0,0,1,1-.05H595l2.54-.23,1.21-.09.22,0c1.24-.15,2.47-.3,3.71-.47a17.74,17.74,0,0,1,2.42-.27,8.8,8.8,0,0,0,1.24-.17L610,417c.62-.09,1.23-.19,1.85-.3l7.19-1.3c.45-.09.9-.24,1.35-.34.65-.15,1.3-.27,2-.43.34-.08.66-.21,1-.3l1-.25,1.89-.49h0c.91-.24,1.83-.46,2.73-.71a7.89,7.89,0,0,0,.86-.29l.12-.05c.74-.2,1.48-.39,2.21-.6.25-.07.49-.17.73-.25l.54-.15a1.24,1.24,0,0,0,.72-.28s.08,0,.12-.05l1.82-.52c.14,0,.27-.11.4-.16s.13-.08.19-.1c.55-.17,1.1-.33,1.65-.52s.94-.35,1.41-.53l.37-.13.54-.24a.55.55,0,0,1,.15-.08c.38-.14.77-.26,1.14-.4s.92-.4,1.39-.58.78-.28,1.16-.44.78-.34,1.17-.52l.11-.06c.38-.13.76-.25,1.13-.4s.66-.32,1-.48.46-.24.7-.34.61-.24.91-.38.4-.21.61-.31l1-.49,1.07-.45c.19-.08.38-.18.57-.28l1.39-.73.65-.32,1.26-.62,1.2-.66.82-.44c.47-.26.94-.53,1.41-.78s1.1-.58,1.64-.88c.38-.2.74-.43,1.11-.64l1.67-1,1.55-1,1-.61,1.55-1,1-.61.93-.5a1.91,1.91,0,0,1,.34-.1c.22,0,.46-.07.68-.12a4.85,4.85,0,0,1,1.7,0,6.14,6.14,0,0,1,2.53,1,6.58,6.58,0,0,1,1.15,1,11.6,11.6,0,0,1,.89,1.08,2.54,2.54,0,0,1,.32.55c.14.31.23.65.39,1a9.67,9.67,0,0,1,.68,2.89,2.33,2.33,0,0,1,0,.59,1.09,1.09,0,0,0,0,.18,3.38,3.38,0,0,1-.14,1.48,7.43,7.43,0,0,1-.56,1.6,7.52,7.52,0,0,1-1.62,2.14c-.67.67-1.31,1.38-2,2.07s-1.29,1.32-1.94,2c-.82.8-1.63,1.61-2.47,2.4-.67.63-1.37,1.22-2.06,1.84-.51.45-1,.92-1.51,1.38s-1,.88-1.51,1.31c-.83.69-1.66,1.38-2.51,2.05-.7.54-1.42,1.06-2.13,1.59s-1.14.89-1.72,1.32-1.47,1.07-2.21,1.59l-2.41,1.69c-.29.2-.6.37-.9.56-.47.31-.93.63-1.41.93-.32.21-.66.39-1,.59l-1.59,1c-.36.22-.74.41-1.11.62l-1.38.82c-.39.23-.77.48-1.17.71l-1.27.7-1.43.75c-.6.33-1.18.67-1.78,1s-1,.46-1.43.7c-.27.13-.51.31-.78.45l-.77.37c-.57.28-1.14.57-1.72.84-.27.13-.56.23-.83.35l-1.12.5-1.07.44-.78.35-1,.46-1.27.52-1.27.53a3.18,3.18,0,0,1-.33.1l-.55.23-.12.06a9.51,9.51,0,0,0-1.59.51,10.42,10.42,0,0,0-1.44.55,3.17,3.17,0,0,1-.82.35l-1.61.5a3.3,3.3,0,0,0-.43.19l-.19.09-1.37.43c-.66.19-1.33.36-2,.57s-1.25.45-1.87.68l-.08,0-1.88.53a3.47,3.47,0,0,0-1.23.39.28.28,0,0,1-.13,0c-1.14.27-2.28.53-3.42.81-.38.09-.74.22-1.12.33q-.31.09-.63.15c-.69.13-1.37.24-2,.39s-1.09.28-1.64.42l-.81.18-4,.72Zm-42.87-15.67a4.77,4.77,0,0,0-.49-1.73,9.5,9.5,0,0,1-.48-.89,6,6,0,0,0-1.27-1.44,4.84,4.84,0,0,0-1.43-.82,5.58,5.58,0,0,0-1.4-.32,3.8,3.8,0,0,0-1.87.27,4.6,4.6,0,0,0-1.91,1.37,6,6,0,0,0-1.36,3,6,6,0,0,0,.07,2.45,5,5,0,0,0,.24,1,9.78,9.78,0,0,0,.73,1.49,6.81,6.81,0,0,0,1.28,1.44,4.84,4.84,0,0,0,2.59,1.11c.44,0,.88-.05,1.32,0,.09,0,.19-.06.28-.09s.31-.1.45-.17a7.84,7.84,0,0,0,.93-.43,4.85,4.85,0,0,0,1.52-1.6,4.4,4.4,0,0,0,.39-.66,6.65,6.65,0,0,0,.48-1.76,4.84,4.84,0,0,0,0-1.61C556.71,432.71,556.69,432.51,556.65,432.31Z"/></clipPath><clipPath id="clip-path-2"><path class="cls-1" d="M664.26,389.48c-.51.32-.93.61-1.37.86-.67.39-1.36.76-2,1.14l-1.76,1c-.39.22-.79.4-1.17.61l-1.11.63a16.76,16.76,0,0,1-2,1,4.94,4.94,0,0,0-.64.35l-1.37.77-.78.45a.45.45,0,0,1-.58-.08l-1.32-1.1-3.34-2.8c-1-.83-2-1.64-3-2.47-.68-.56-1.37-1.12-2-1.69-.91-.77-1.82-1.56-2.73-2.32-.55-.46-1.12-.89-1.67-1.34l-2.82-2.37-2-1.63-2.23-1.84L628,376.76l-2.23-1.85c-.85-.71-1.67-1.43-2.52-2.14-.64-.54-1.31-1-1.95-1.59a7.43,7.43,0,0,0-1.39-1,6.25,6.25,0,0,0-2-.66,5.6,5.6,0,0,0-2,0,5.36,5.36,0,0,0-1.76.74,7.39,7.39,0,0,0-.94.73,8.24,8.24,0,0,0-1.33,1.72,5.93,5.93,0,0,1-2.14,2,5.72,5.72,0,0,1-1.92.68,6,6,0,0,1-1.53,0,5.23,5.23,0,0,1-2.38-.92c-.45-.31-.89-.66-1.32-1-.68-.55-1.36-1.12-2-1.69l-1.89-1.6c-.53-.44-1.07-.85-1.6-1.28l-1.64-1.37-.6-.49c-1.12-.94-2.24-1.89-3.37-2.82-1-.79-1.94-1.56-2.89-2.34-.54-.45-1.06-.92-1.59-1.36s-1.18-.95-1.76-1.43l-1.88-1.56-1.73-1.45-3.24-2.66-2.74-2.24c-.56-.46-1.09-1-1.65-1.42-1-.8-1.94-1.58-2.92-2.37l-1.34-1.11c-.8-.67-1.59-1.35-2.4-2-1.06-.89-2.13-1.75-3.19-2.64S562,339.86,561,339s-2-1.56-2.92-2.36-1.93-1.65-2.9-2.46c-.52-.44-1.08-.84-1.59-1.3a6.14,6.14,0,0,1-1.24-1.4,13.23,13.23,0,0,1-.78-1.36,8.28,8.28,0,0,1-.46-1.38c-.12-.46-.18-.94-.26-1.41a1.11,1.11,0,0,1,0-.72c0-.05,0-.11,0-.17a6.92,6.92,0,0,1,.54-2.94,16.79,16.79,0,0,1,1.13-2.14c.36-.65.74-1.29,1.12-1.93s.85-1.41,1.26-2.13.93-1.63,1.4-2.45,1-1.78,1.54-2.66a17.81,17.81,0,0,1,1.44-2.31,5.33,5.33,0,0,1,1.4-1.28c.14-.08.25-.2.39-.27a6,6,0,0,1,2.57-.69,5.69,5.69,0,0,1,3.55,1.14c.7.51,1.33,1.12,2,1.67s1.12.89,1.67,1.34.89.74,1.34,1.11l2.42,2.05,2.41,2c.75.61,1.51,1.21,2.25,1.83,1,.82,1.94,1.67,2.92,2.49s1.71,1.4,2.57,2.11l1.79,1.51c1,.84,2.06,1.67,3.08,2.52l2.92,2.44,2.54,2.09,1.83,1.54,1.77,1.47,2.79,2.33c.6.5,1.22,1,1.82,1.47s1.16,1,1.74,1.47c1,.83,2,1.65,3,2.47l2.34,1.94,1.59,1.34c.58.48,1.18.94,1.76,1.43.95.79,1.89,1.6,2.84,2.4l1.28,1.07,2,1.68q1.65,1.39,3.31,2.78l3.39,2.8,2,1.64c.51.43,1,.88,1.52,1.3,1,.85,2.08,1.68,3.11,2.53s2.06,1.73,3.09,2.58,1.83,1.49,2.74,2.24c1.2,1,2.38,2,3.57,3l2.64,2.22c.55.46,1.12.89,1.67,1.34s1.27,1.05,1.9,1.58l3.23,2.67,2.94,2.46,3,2.44,2.2,1.83,2.28,1.86c.54.45,1.06.91,1.59,1.37A2.13,2.13,0,0,1,664.26,389.48Z"/></clipPath></defs><path class="cls-2" d="M604.66,667.27h6.92v-.08C609.28,667.24,607,667.27,604.66,667.27Z"/><path class="cls-3" d="M685.56,836v0h1.53C686.58,836,686.07,836,685.56,836Z"/><path class="cls-3" d="M1216.23,138.5q-.59,25.14-25.79,78.67-26.46,55.4-46.58,68-15.1,9.45-163.69,74.27-96.3,42.81-146,104.51,20.76,5.66,53.5,6.3,22.05.63,60.46-1.28,42.76-1.87,56-1.87,120.89,0,134.1,32.08,0,28.35-69.87,106.39Q971.38,714.5,811.46,805.77q-38.18,21.83-86.87,27.89a318.72,318.72,0,0,1-37.5,2.32c-.51,0-1,0-1.53,0q-44.73-.39-91.27-15.72-59.82-18.9-75.54-51Q451.34,833.64,357,835.9c-2.3.06-4.6.08-6.93.08H333q-37.74,0-61.67-3.77Q260,830.29,226,815.84,198.33,803.26,165,803.25q-56,0-117.7,97.56L30.88,932.3Q20.16,951.79,8.21,951.82q-8.81,0-8.17-9.45,2.52-25.2,17.62-57.28Q125.92,657.21,244.27,657.2q69.28,40.93,90.67,40.91h66.73q56.64,0,76.17-15.09,24.56-19.53,59.8-79.32,32.73-55.41,61.67-81.22l6.93,5q-10.05,24.54-28.94,74.27a213.26,213.26,0,0,0-13.22,74.3q0,22,52.88,22h68.6l20.79.65c6.13.09,12.23.09,18.24,0q157.88-2.51,276.35-90.64,61.69-45.32,69.9-76.17-67.36-5.65-144.8-5.64-18.25,0-55.09,2.81t-55.06,2.83q-27.07,0-27.07-15.09,0-22.68,25.17-73.67,78.68-158.61,232.91-212.77Q1108,209,1142.59,187q20.76-23.26,68.62-56.65Z"/><path class="cls-3" d="M935.49,95.07v-6.3L1029.28,0q71.15,51.61,71.12,86.24,0,20.17-82.44,82.47-30.21-34-39-42.81Q948.71,95,935.49,95.07Z"/><g class="cls-4"><polygon class="cls-5" points="546.3 436.97 546.72 439.26 546.3 439.26 546.3 436.97"/><polygon class="cls-5" points="546.3 429.42 548.07 439.26 546.72 439.26 546.3 436.97 546.3 429.42"/><polygon class="cls-6" points="547.23 427.03 549.43 439.26 548.07 439.26 546.3 429.42 546.3 427.03 547.23 427.03"/><polygon class="cls-7" points="548.59 427.03 550.79 439.26 549.43 439.26 547.23 427.03 548.59 427.03"/><polygon class="cls-8" points="549.95 427.03 552.15 439.26 550.79 439.26 548.59 427.03 549.95 427.03"/><polygon class="cls-9" points="551.31 427.03 553.51 439.26 552.15 439.26 549.95 427.03 551.31 427.03"/><polygon class="cls-10" points="552.67 427.03 554.87 439.26 553.51 439.26 551.31 427.03 552.67 427.03"/><polygon class="cls-11" points="554.03 427.03 556.23 439.26 554.87 439.26 552.67 427.03 554.03 427.03"/><polygon class="cls-12" points="555.38 427.03 556.89 435.41 556.89 439.26 556.23 439.26 554.03 427.03 555.38 427.03"/><polygon class="cls-12" points="556.74 427.03 556.89 427.86 556.89 435.41 555.38 427.03 556.74 427.03"/><polygon class="cls-13" points="556.89 427.86 556.74 427.03 556.89 427.03 556.89 427.86"/><polygon class="cls-14" points="537.44 433.02 540.56 450.35 537.44 450.35 537.44 433.02"/><polygon class="cls-14" points="537.44 425.47 541.91 450.35 540.56 450.35 537.44 433.02 537.44 425.47"/><polygon class="cls-15" points="537.44 417.91 543.27 450.35 541.91 450.35 537.44 425.47 537.44 417.91"/><polygon class="cls-16" points="537.44 410.36 544.63 450.35 543.27 450.35 537.44 417.91 537.44 410.36"/><polygon class="cls-17" points="537.44 407.98 538.34 407.82 545.99 450.35 544.63 450.35 537.44 410.36 537.44 407.98"/><polygon class="cls-18" points="538.34 407.82 539.66 407.58 547.35 450.35 545.99 450.35 538.34 407.82"/><polygon class="cls-5" points="539.66 407.58 540.97 407.35 548.71 450.35 547.35 450.35 539.66 407.58"/><polygon class="cls-5" points="540.97 407.35 542.29 407.11 550.07 450.35 548.71 450.35 540.97 407.35"/><polygon class="cls-6" points="542.29 407.11 543.61 406.87 551.43 450.35 550.07 450.35 542.29 407.11"/><polygon class="cls-7" points="543.61 406.87 544.92 406.64 552.79 450.35 551.43 450.35 543.61 406.87"/><polygon class="cls-8" points="544.92 406.64 546.24 406.4 554.14 450.35 552.79 450.35 544.92 406.64"/><polygon class="cls-9" points="546.24 406.4 547.55 406.16 555.5 450.35 554.14 450.35 546.24 406.4"/><polygon class="cls-10" points="547.55 406.16 548.87 405.93 556.86 450.35 555.5 450.35 547.55 406.16"/><polygon class="cls-11" points="548.87 405.93 550.19 405.69 558.22 450.35 556.86 450.35 548.87 405.93"/><polygon class="cls-12" points="550.19 405.69 551.5 405.45 559.58 450.35 558.22 450.35 550.19 405.69"/><polygon class="cls-12" points="551.5 405.45 552.82 405.22 560.94 450.35 559.58 450.35 551.5 405.45"/><polygon class="cls-13" points="552.82 405.22 554.14 404.98 562.3 450.35 560.94 450.35 552.82 405.22"/><polygon class="cls-19" points="554.14 404.98 555.45 404.74 563.66 450.35 562.3 450.35 554.14 404.98"/><polygon class="cls-20" points="555.45 404.74 556.77 404.51 565.02 450.35 563.66 450.35 555.45 404.74"/><polygon class="cls-21" points="556.77 404.51 558.09 404.27 566.37 450.35 565.02 450.35 556.77 404.51"/><polygon class="cls-21" points="558.09 404.27 559.4 404.03 567.73 450.35 566.37 450.35 558.09 404.27"/><polygon class="cls-22" points="559.4 404.03 560.72 403.8 569.09 450.35 567.73 450.35 559.4 404.03"/><polygon class="cls-23" points="560.72 403.8 562.03 403.56 570.45 450.35 569.09 450.35 560.72 403.8"/><polygon class="cls-24" points="562.03 403.56 563.35 403.32 571.81 450.35 570.45 450.35 562.03 403.56"/><polygon class="cls-25" points="563.35 403.32 564.67 403.08 573.17 450.35 571.81 450.35 563.35 403.32"/><polygon class="cls-26" points="564.67 403.08 565.98 402.85 574.53 450.35 573.17 450.35 564.67 403.08"/><polygon class="cls-27" points="565.98 402.85 567.3 402.61 575.89 450.35 574.53 450.35 565.98 402.85"/><polygon class="cls-28" points="567.3 402.61 568.62 402.38 577.25 450.35 575.89 450.35 567.3 402.61"/><polygon class="cls-29" points="568.62 402.38 569.93 402.14 578.6 450.35 577.25 450.35 568.62 402.38"/><polygon class="cls-29" points="569.93 402.14 571.25 401.9 579.96 450.35 578.6 450.35 569.93 402.14"/><polygon class="cls-30" points="571.25 401.9 572.56 401.67 581.32 450.35 579.96 450.35 571.25 401.9"/><polygon class="cls-31" points="572.56 401.67 573.88 401.43 582.68 450.35 581.32 450.35 572.56 401.67"/><polygon class="cls-32" points="573.88 401.43 575.2 401.19 584.04 450.35 582.68 450.35 573.88 401.43"/><polygon class="cls-33" points="575.2 401.19 576.51 400.95 585.4 450.35 584.04 450.35 575.2 401.19"/><polygon class="cls-33" points="576.51 400.95 577.83 400.72 586.76 450.35 585.4 450.35 576.51 400.95"/><polygon class="cls-34" points="577.83 400.72 579.15 400.48 588.12 450.35 586.76 450.35 577.83 400.72"/><polygon class="cls-35" points="579.15 400.48 580.46 400.24 589.48 450.35 588.12 450.35 579.15 400.48"/><polygon class="cls-36" points="580.46 400.24 581.78 400.01 590.83 450.35 589.48 450.35 580.46 400.24"/><polygon class="cls-37" points="581.78 400.01 583.09 399.77 592.19 450.35 590.83 450.35 581.78 400.01"/><polygon class="cls-37" points="583.09 399.77 584.41 399.53 593.55 450.35 592.19 450.35 583.09 399.77"/><polygon class="cls-38" points="584.41 399.53 585.73 399.3 594.91 450.35 593.55 450.35 584.41 399.53"/><polygon class="cls-39" points="585.73 399.3 587.04 399.06 596.27 450.35 594.91 450.35 585.73 399.3"/><polygon class="cls-40" points="587.04 399.06 588.36 398.82 597.63 450.35 596.27 450.35 587.04 399.06"/><polygon class="cls-40" points="588.36 398.82 589.68 398.59 598.99 450.35 597.63 450.35 588.36 398.82"/><polygon class="cls-41" points="589.68 398.59 590.99 398.35 600.35 450.35 598.99 450.35 589.68 398.59"/><polygon class="cls-42" points="590.99 398.35 592.31 398.11 601.71 450.35 600.35 450.35 590.99 398.35"/><polygon class="cls-43" points="592.31 398.11 593.62 397.88 603.06 450.35 601.71 450.35 592.31 398.11"/><polygon class="cls-44" points="593.62 397.88 594.94 397.64 604.42 450.35 603.06 450.35 593.62 397.88"/><polygon class="cls-44" points="594.94 397.64 596.26 397.4 605.78 450.35 604.42 450.35 594.94 397.64"/><polygon class="cls-45" points="596.26 397.4 597.57 397.17 607.14 450.35 605.78 450.35 596.26 397.4"/><polygon class="cls-46" points="597.57 397.17 598.89 396.93 608.5 450.35 607.14 450.35 597.57 397.17"/><polygon class="cls-47" points="598.89 396.93 600.21 396.69 609.86 450.35 608.5 450.35 598.89 396.93"/><polygon class="cls-47" points="600.21 396.69 601.52 396.45 611.22 450.35 609.86 450.35 600.21 396.69"/><polygon class="cls-48" points="601.52 396.45 602.84 396.22 612.58 450.35 611.22 450.35 601.52 396.45"/><polygon class="cls-49" points="602.84 396.22 604.15 395.98 613.93 450.35 612.58 450.35 602.84 396.22"/><polygon class="cls-50" points="604.15 395.98 605.47 395.75 615.29 450.35 613.93 450.35 604.15 395.98"/><polygon class="cls-50" points="605.47 395.75 606.74 395.52 616.6 450.35 615.29 450.35 605.47 395.75"/><polygon class="cls-49" points="606.74 395.52 608 395.29 617.91 450.35 616.6 450.35 606.74 395.52"/><polygon class="cls-48" points="608 395.29 609.27 395.06 619.21 450.35 617.91 450.35 608 395.29"/><polygon class="cls-47" points="609.27 395.06 610.53 394.83 620.52 450.35 619.21 450.35 609.27 395.06"/><polygon class="cls-47" points="610.53 394.83 611.8 394.61 621.83 450.35 620.52 450.35 610.53 394.83"/><polygon class="cls-46" points="611.8 394.61 613.07 394.38 623.13 450.35 621.83 450.35 611.8 394.61"/><polygon class="cls-45" points="613.07 394.38 614.33 394.15 624.44 450.35 623.13 450.35 613.07 394.38"/><polygon class="cls-44" points="614.33 394.15 615.6 393.92 625.75 450.35 624.44 450.35 614.33 394.15"/><polygon class="cls-44" points="615.6 393.92 616.75 393.72 616.87 393.72 627.05 450.35 625.75 450.35 615.6 393.92"/><polygon class="cls-43" points="618.17 393.72 628.36 450.35 627.05 450.35 616.87 393.72 618.17 393.72"/><polygon class="cls-42" points="619.48 393.72 629.67 450.35 628.36 450.35 618.17 393.72 619.48 393.72"/><polygon class="cls-41" points="620.78 393.72 630.97 450.35 629.67 450.35 619.48 393.72 620.78 393.72"/><polygon class="cls-40" points="622.09 393.72 632.28 450.35 630.97 450.35 620.78 393.72 622.09 393.72"/><polygon class="cls-40" points="623.4 393.72 633.59 450.35 632.28 450.35 622.09 393.72 623.4 393.72"/><polygon class="cls-39" points="624.71 393.72 634.89 450.35 633.59 450.35 623.4 393.72 624.71 393.72"/><polygon class="cls-38" points="626.01 393.72 636.2 450.35 634.89 450.35 624.71 393.72 626.01 393.72"/><polygon class="cls-37" points="627.32 393.72 637.51 450.35 636.2 450.35 626.01 393.72 627.32 393.72"/><polygon class="cls-37" points="628.63 393.72 638.81 450.35 637.51 450.35 627.32 393.72 628.63 393.72"/><polygon class="cls-36" points="629.93 393.72 640.12 450.35 638.81 450.35 628.63 393.72 629.93 393.72"/><polygon class="cls-35" points="631.24 393.72 641.42 450.35 640.12 450.35 629.93 393.72 631.24 393.72"/><polygon class="cls-34" points="632.54 393.72 642.7 450.16 641.68 450.35 641.42 450.35 631.24 393.72 632.54 393.72"/><polygon class="cls-33" points="633.85 393.72 643.97 449.93 642.7 450.16 632.54 393.72 633.85 393.72"/><polygon class="cls-33" points="635.16 393.72 645.23 449.71 643.97 449.93 633.85 393.72 635.16 393.72"/><polygon class="cls-32" points="636.46 393.72 646.5 449.48 645.23 449.71 635.16 393.72 636.46 393.72"/><polygon class="cls-31" points="637.77 393.72 647.76 449.25 646.5 449.48 636.46 393.72 637.77 393.72"/><polygon class="cls-30" points="639.08 393.72 649.03 449.02 647.76 449.25 637.77 393.72 639.08 393.72"/><polygon class="cls-29" points="640.38 393.72 650.29 448.8 649.03 449.02 639.08 393.72 640.38 393.72"/><polygon class="cls-29" points="641.69 393.72 651.56 448.57 650.29 448.8 640.38 393.72 641.69 393.72"/><polygon class="cls-28" points="643 393.72 652.82 448.34 651.56 448.57 641.69 393.72 643 393.72"/><polygon class="cls-27" points="644.3 393.72 654.09 448.11 652.82 448.34 643 393.72 644.3 393.72"/><polygon class="cls-26" points="645.61 393.72 655.36 447.88 654.09 448.11 644.3 393.72 645.61 393.72"/><polygon class="cls-25" points="646.92 393.72 656.62 447.66 655.36 447.88 645.61 393.72 646.92 393.72"/><polygon class="cls-24" points="648.22 393.72 657.89 447.43 656.62 447.66 646.92 393.72 648.22 393.72"/><polygon class="cls-23" points="649.53 393.72 659.15 447.2 657.89 447.43 648.22 393.72 649.53 393.72"/><polygon class="cls-22" points="650.84 393.72 660.42 446.97 659.15 447.2 649.53 393.72 650.84 393.72"/><polygon class="cls-21" points="652.14 393.72 661.68 446.75 660.42 446.97 650.84 393.72 652.14 393.72"/><polygon class="cls-21" points="653.45 393.72 662.95 446.52 661.68 446.75 652.14 393.72 653.45 393.72"/><polygon class="cls-20" points="654.76 393.72 664.22 446.29 662.95 446.52 653.45 393.72 654.76 393.72"/><polygon class="cls-19" points="656.06 393.72 665.48 446.06 664.22 446.29 654.76 393.72 656.06 393.72"/><polygon class="cls-13" points="657.37 393.72 666.75 445.84 665.48 446.06 656.06 393.72 657.37 393.72"/><polygon class="cls-12" points="658.68 393.72 668.01 445.61 666.75 445.84 657.37 393.72 658.68 393.72"/><polygon class="cls-12" points="659.98 393.72 669.28 445.38 668.01 445.61 658.68 393.72 659.98 393.72"/><polygon class="cls-11" points="661.29 393.72 670.54 445.15 669.28 445.38 659.98 393.72 661.29 393.72"/><polygon class="cls-10" points="662.6 393.72 671.81 444.93 670.54 445.15 661.29 393.72 662.6 393.72"/><polygon class="cls-9" points="663.9 393.72 673.07 444.7 671.81 444.93 662.6 393.72 663.9 393.72"/><polygon class="cls-8" points="665.21 393.72 674.34 444.47 673.07 444.7 663.9 393.72 665.21 393.72"/><polygon class="cls-7" points="666.52 393.72 675.61 444.24 674.34 444.47 665.21 393.72 666.52 393.72"/><polygon class="cls-6" points="667.82 393.72 676.87 444.01 675.61 444.24 666.52 393.72 667.82 393.72"/><polygon class="cls-5" points="669.13 393.72 678.14 443.79 676.87 444.01 667.82 393.72 669.13 393.72"/><polygon class="cls-5" points="670.44 393.72 678.81 440.27 678.81 443.67 678.14 443.79 669.13 393.72 670.44 393.72"/><polygon class="cls-18" points="671.74 393.72 678.81 433.01 678.81 440.27 670.44 393.72 671.74 393.72"/><polygon class="cls-17" points="673.05 393.72 678.81 425.75 678.81 433.01 671.74 393.72 673.05 393.72"/><polygon class="cls-16" points="674.36 393.72 678.81 418.49 678.81 425.75 673.05 393.72 674.36 393.72"/><polygon class="cls-15" points="675.66 393.72 678.81 411.22 678.81 418.49 674.36 393.72 675.66 393.72"/><polygon class="cls-14" points="676.97 393.72 678.81 403.96 678.81 411.22 675.66 393.72 676.97 393.72"/><polygon class="cls-14" points="678.81 403.96 676.97 393.72 678.81 393.72 678.81 403.96"/></g><g class="cls-51"><polygon class="cls-14" points="550.72 326.77 563.26 396.48 550.72 396.48 550.72 326.77"/><polygon class="cls-14" points="550.72 321.51 564.21 396.48 563.26 396.48 550.72 326.77 550.72 321.51"/><polygon class="cls-15" points="550.72 316.26 565.15 396.48 564.21 396.48 550.72 321.51 550.72 316.26"/><polygon class="cls-16" points="550.72 311 566.1 396.48 565.15 396.48 550.72 316.26 550.72 311"/><polygon class="cls-17" points="551.05 307.6 567.04 396.48 566.1 396.48 550.72 311 550.72 307.6 551.05 307.6"/><polygon class="cls-18" points="552 307.6 567.99 396.48 567.04 396.48 551.05 307.6 552 307.6"/><polygon class="cls-5" points="552.94 307.6 568.93 396.48 567.99 396.48 552 307.6 552.94 307.6"/><polygon class="cls-5" points="553.89 307.6 569.88 396.48 568.93 396.48 552.94 307.6 553.89 307.6"/><polygon class="cls-6" points="554.83 307.6 570.82 396.48 569.88 396.48 553.89 307.6 554.83 307.6"/><polygon class="cls-7" points="555.78 307.6 571.77 396.48 570.82 396.48 554.83 307.6 555.78 307.6"/><polygon class="cls-8" points="556.72 307.6 572.71 396.48 571.77 396.48 555.78 307.6 556.72 307.6"/><polygon class="cls-9" points="557.67 307.6 573.66 396.48 572.71 396.48 556.72 307.6 557.67 307.6"/><polygon class="cls-10" points="558.61 307.6 574.6 396.48 573.66 396.48 557.67 307.6 558.61 307.6"/><polygon class="cls-11" points="559.56 307.6 575.55 396.48 574.6 396.48 558.61 307.6 559.56 307.6"/><polygon class="cls-12" points="560.5 307.6 576.49 396.48 575.55 396.48 559.56 307.6 560.5 307.6"/><polygon class="cls-12" points="561.45 307.6 577.44 396.48 576.49 396.48 560.5 307.6 561.45 307.6"/><polygon class="cls-13" points="562.39 307.6 578.38 396.48 577.44 396.48 561.45 307.6 562.39 307.6"/><polygon class="cls-19" points="563.34 307.6 579.33 396.48 578.38 396.48 562.39 307.6 563.34 307.6"/><polygon class="cls-20" points="564.28 307.6 580.27 396.48 579.33 396.48 563.34 307.6 564.28 307.6"/><polygon class="cls-21" points="565.23 307.6 581.22 396.48 580.27 396.48 564.28 307.6 565.23 307.6"/><polygon class="cls-21" points="566.17 307.6 582.16 396.48 581.22 396.48 565.23 307.6 566.17 307.6"/><polygon class="cls-22" points="567.12 307.6 583.11 396.48 582.16 396.48 566.17 307.6 567.12 307.6"/><polygon class="cls-23" points="568.07 307.6 584.05 396.48 583.11 396.48 567.12 307.6 568.07 307.6"/><polygon class="cls-24" points="569.01 307.6 585 396.48 584.05 396.48 568.07 307.6 569.01 307.6"/><polygon class="cls-25" points="569.96 307.6 585.95 396.48 585 396.48 569.01 307.6 569.96 307.6"/><polygon class="cls-26" points="570.9 307.6 586.89 396.48 585.95 396.48 569.96 307.6 570.9 307.6"/><polygon class="cls-27" points="571.85 307.6 587.84 396.48 586.89 396.48 570.9 307.6 571.85 307.6"/><polygon class="cls-28" points="572.79 307.6 588.78 396.48 587.84 396.48 571.85 307.6 572.79 307.6"/><polygon class="cls-29" points="573.74 307.6 589.73 396.48 588.78 396.48 572.79 307.6 573.74 307.6"/><polygon class="cls-29" points="574.68 307.6 590.67 396.48 589.73 396.48 573.74 307.6 574.68 307.6"/><polygon class="cls-30" points="575.63 307.6 591.62 396.48 590.67 396.48 574.68 307.6 575.63 307.6"/><polygon class="cls-31" points="576.57 307.6 592.56 396.48 591.62 396.48 575.63 307.6 576.57 307.6"/><polygon class="cls-32" points="577.52 307.6 593.51 396.48 592.56 396.48 576.57 307.6 577.52 307.6"/><polygon class="cls-33" points="578.46 307.6 594.45 396.48 593.51 396.48 577.52 307.6 578.46 307.6"/><polygon class="cls-33" points="579.41 307.6 595.4 396.48 594.45 396.48 578.46 307.6 579.41 307.6"/><polygon class="cls-34" points="580.35 307.6 596.34 396.48 595.4 396.48 579.41 307.6 580.35 307.6"/><polygon class="cls-35" points="581.3 307.6 597.29 396.48 596.34 396.48 580.35 307.6 581.3 307.6"/><polygon class="cls-36" points="582.24 307.6 598.23 396.48 597.29 396.48 581.3 307.6 582.24 307.6"/><polygon class="cls-37" points="583.19 307.6 599.18 396.48 598.23 396.48 582.24 307.6 583.19 307.6"/><polygon class="cls-37" points="584.13 307.6 600.12 396.48 599.18 396.48 583.19 307.6 584.13 307.6"/><polygon class="cls-38" points="585.08 307.6 601.07 396.48 600.12 396.48 584.13 307.6 585.08 307.6"/><polygon class="cls-39" points="586.02 307.6 602.01 396.48 601.07 396.48 585.08 307.6 586.02 307.6"/><polygon class="cls-40" points="586.97 307.6 602.96 396.48 602.01 396.48 586.02 307.6 586.97 307.6"/><polygon class="cls-40" points="587.91 307.6 603.9 396.48 602.96 396.48 586.97 307.6 587.91 307.6"/><polygon class="cls-41" points="588.86 307.6 604.85 396.48 603.9 396.48 587.91 307.6 588.86 307.6"/><polygon class="cls-42" points="589.8 307.6 605.79 396.48 604.85 396.48 588.86 307.6 589.8 307.6"/><polygon class="cls-43" points="590.75 307.6 606.74 396.48 605.79 396.48 589.8 307.6 590.75 307.6"/><polygon class="cls-44" points="591.7 307.6 607.68 396.48 606.74 396.48 590.75 307.6 591.7 307.6"/><polygon class="cls-44" points="592.64 307.6 608.63 396.48 607.68 396.48 591.7 307.6 592.64 307.6"/><polygon class="cls-45" points="593.59 307.6 609.58 396.48 608.63 396.48 592.64 307.6 593.59 307.6"/><polygon class="cls-46" points="594.53 307.6 610.52 396.48 609.58 396.48 593.59 307.6 594.53 307.6"/><polygon class="cls-47" points="595.48 307.6 611.47 396.48 610.52 396.48 594.53 307.6 595.48 307.6"/><polygon class="cls-47" points="596.42 307.6 612.41 396.48 611.47 396.48 595.48 307.6 596.42 307.6"/><polygon class="cls-48" points="597.37 307.6 613.36 396.48 612.41 396.48 596.42 307.6 597.37 307.6"/><polygon class="cls-49" points="598.31 307.6 614.3 396.48 613.36 396.48 597.37 307.6 598.31 307.6"/><polygon class="cls-50" points="599.26 307.6 615.25 396.48 614.3 396.48 598.31 307.6 599.26 307.6"/><polygon class="cls-50" points="600.17 307.6 616.16 396.48 615.25 396.48 599.26 307.6 600.17 307.6"/><polygon class="cls-49" points="601.08 307.6 617.06 396.48 616.16 396.48 600.17 307.6 601.08 307.6"/><polygon class="cls-48" points="601.98 307.6 617.97 396.48 617.06 396.48 601.08 307.6 601.98 307.6"/><polygon class="cls-47" points="602.89 307.6 618.88 396.48 617.97 396.48 601.98 307.6 602.89 307.6"/><polygon class="cls-47" points="603.8 307.6 619.79 396.48 618.88 396.48 602.89 307.6 603.8 307.6"/><polygon class="cls-46" points="604.71 307.6 620.7 396.48 619.79 396.48 603.8 307.6 604.71 307.6"/><polygon class="cls-45" points="605.62 307.6 621.61 396.48 620.7 396.48 604.71 307.6 605.62 307.6"/><polygon class="cls-44" points="606.53 307.6 622.52 396.48 621.61 396.48 605.62 307.6 606.53 307.6"/><polygon class="cls-44" points="607.44 307.6 623.43 396.48 622.52 396.48 606.53 307.6 607.44 307.6"/><polygon class="cls-43" points="608.35 307.6 624.34 396.48 623.43 396.48 607.44 307.6 608.35 307.6"/><polygon class="cls-42" points="609.25 307.6 625.24 396.48 624.34 396.48 608.35 307.6 609.25 307.6"/><polygon class="cls-41" points="610.16 307.6 626.15 396.48 625.24 396.48 609.25 307.6 610.16 307.6"/><polygon class="cls-40" points="611.07 307.6 627.06 396.48 626.15 396.48 610.16 307.6 611.07 307.6"/><polygon class="cls-40" points="611.98 307.6 627.97 396.48 627.06 396.48 611.07 307.6 611.98 307.6"/><polygon class="cls-39" points="612.89 307.6 628.88 396.48 627.97 396.48 611.98 307.6 612.89 307.6"/><polygon class="cls-38" points="613.8 307.6 629.79 396.48 628.88 396.48 612.89 307.6 613.8 307.6"/><polygon class="cls-37" points="614.71 307.6 630.7 396.48 629.79 396.48 613.8 307.6 614.71 307.6"/><polygon class="cls-37" points="615.62 307.6 631.61 396.48 630.7 396.48 614.71 307.6 615.62 307.6"/><polygon class="cls-36" points="616.53 307.6 632.51 396.48 631.61 396.48 615.62 307.6 616.53 307.6"/><polygon class="cls-35" points="617.43 307.6 633.42 396.48 632.51 396.48 616.53 307.6 617.43 307.6"/><polygon class="cls-34" points="618.34 307.6 634.33 396.48 633.42 396.48 617.43 307.6 618.34 307.6"/><polygon class="cls-33" points="619.25 307.6 635.24 396.48 634.33 396.48 618.34 307.6 619.25 307.6"/><polygon class="cls-33" points="620.16 307.6 636.15 396.48 635.24 396.48 619.25 307.6 620.16 307.6"/><polygon class="cls-32" points="621.07 307.6 637.06 396.48 636.15 396.48 620.16 307.6 621.07 307.6"/><polygon class="cls-31" points="621.98 307.6 637.97 396.48 637.06 396.48 621.07 307.6 621.98 307.6"/><polygon class="cls-30" points="622.89 307.6 638.88 396.48 637.97 396.48 621.98 307.6 622.89 307.6"/><polygon class="cls-29" points="623.8 307.6 639.79 396.48 638.88 396.48 622.89 307.6 623.8 307.6"/><polygon class="cls-29" points="624.71 307.6 640.7 396.48 639.79 396.48 623.8 307.6 624.71 307.6"/><polygon class="cls-28" points="625.61 307.6 641.6 396.48 640.7 396.48 624.71 307.6 625.61 307.6"/><polygon class="cls-27" points="626.52 307.6 642.51 396.48 641.6 396.48 625.61 307.6 626.52 307.6"/><polygon class="cls-26" points="627.43 307.6 643.42 396.48 642.51 396.48 626.52 307.6 627.43 307.6"/><polygon class="cls-25" points="628.34 307.6 644.33 396.48 643.42 396.48 627.43 307.6 628.34 307.6"/><polygon class="cls-24" points="629.25 307.6 645.24 396.48 644.33 396.48 628.34 307.6 629.25 307.6"/><polygon class="cls-23" points="630.16 307.6 646.15 396.48 645.24 396.48 629.25 307.6 630.16 307.6"/><polygon class="cls-22" points="631.07 307.6 647.06 396.48 646.15 396.48 630.16 307.6 631.07 307.6"/><polygon class="cls-21" points="631.98 307.6 647.97 396.48 647.06 396.48 631.07 307.6 631.98 307.6"/><polygon class="cls-21" points="632.88 307.6 648.88 396.48 647.97 396.48 631.98 307.6 632.88 307.6"/><polygon class="cls-20" points="633.79 307.6 649.78 396.48 648.88 396.48 632.88 307.6 633.79 307.6"/><polygon class="cls-19" points="634.7 307.6 650.69 396.48 649.78 396.48 633.79 307.6 634.7 307.6"/><polygon class="cls-13" points="635.61 307.6 651.6 396.48 650.69 396.48 634.7 307.6 635.61 307.6"/><polygon class="cls-12" points="636.52 307.6 652.51 396.48 651.6 396.48 635.61 307.6 636.52 307.6"/><polygon class="cls-12" points="637.43 307.6 653.42 396.48 652.51 396.48 636.52 307.6 637.43 307.6"/><polygon class="cls-11" points="638.34 307.6 654.33 396.48 653.42 396.48 637.43 307.6 638.34 307.6"/><polygon class="cls-10" points="639.25 307.6 655.24 396.48 654.33 396.48 638.34 307.6 639.25 307.6"/><polygon class="cls-9" points="640.16 307.6 656.15 396.48 655.24 396.48 639.25 307.6 640.16 307.6"/><polygon class="cls-8" points="641.07 307.6 657.05 396.48 656.15 396.48 640.16 307.6 641.07 307.6"/><polygon class="cls-7" points="641.97 307.6 657.96 396.48 657.05 396.48 641.07 307.6 641.97 307.6"/><polygon class="cls-6" points="642.88 307.6 658.87 396.48 657.96 396.48 641.97 307.6 642.88 307.6"/><polygon class="cls-5" points="643.79 307.6 659.78 396.48 658.87 396.48 642.88 307.6 643.79 307.6"/><polygon class="cls-5" points="644.7 307.6 660.69 396.48 659.78 396.48 643.79 307.6 644.7 307.6"/><polygon class="cls-18" points="645.61 307.6 661.6 396.48 660.69 396.48 644.7 307.6 645.61 307.6"/><polygon class="cls-17" points="646.52 307.6 662.51 396.48 661.6 396.48 645.61 307.6 646.52 307.6"/><polygon class="cls-16" points="647.43 307.6 663.42 396.48 662.51 396.48 646.52 307.6 647.43 307.6"/><polygon class="cls-15" points="648.34 307.6 664.26 396.12 664.26 396.48 663.42 396.48 647.43 307.6 648.34 307.6"/><polygon class="cls-14" points="649.25 307.6 664.26 391.07 664.26 396.12 648.34 307.6 649.25 307.6"/><polygon class="cls-14" points="664.26 391.07 649.25 307.6 664.26 307.6 664.26 391.07"/></g></svg>