<svg id="Layer_1" data-name="Layer 1" xmlns="http://www.w3.org/2000/svg" viewBox="0 0 1267.29 1280"><defs><style>.cls-1{fill:#fff;}</style></defs><path class="cls-1" d="M556.5,1259.32c-12.81,2.3-25.54,5.29-38.44,6.7-10.6,1.16-21.09,3.27-31.67,4-7.13.52-14.15,2.08-21.23,2.22-6.44.12-12.65,1.23-19,2.11a23.64,23.64,0,0,1-3.85-.07,29,29,0,0,0-3.48-.11c-8,.81-16,1.88-24,2.46-6.18.45-12.41.33-18.61.45-.52,0-1-.06-1.56,0-6.06.47-12.12,1-18.18,1.42-4.91.36-9.94,1.42-14.71.73-5-.73-9.79,1.3-14.67,0-1.06-.28-2.31.28-3.48.31-2.3.06-4.61,0-6.91,0-1.17,0-2.33.26-3.49.26-1.66,0-3.31-.11-5-.2-.51,0-1-.19-1.54-.17-4.36.18-8.73.54-13.1.52-4.07,0-8.15-.48-12.23-.66-3.08-.14-6.17-.18-9.26-.17-3.74,0-7.54.57-11.21.1a79.66,79.66,0,0,0-9.62-.54c-4.1,0-8.2-.28-12.29-.54-3.56-.23-7.11-.64-10.66-.91-2.18-.17-4.36-.24-6.54-.35-3.18-.16-6.35-.27-9.52-.51-3.41-.26-6.81-.7-10.22-1-2.93-.23-5.87-.3-8.81-.5-2.05-.13-4.09-.34-6.13-.56-4.47-.49-8.93-1-13.39-1.51-2.8-.33-5.59-.71-8.39-1.1-4.78-.65-9.55-1.39-14.33-2-4.41-.55-8.83-.88-13.23-1.47-3.9-.52-7.77-1.23-11.65-1.92-6.93-1.23-13.88-2.41-20.78-3.8-4.83-1-9.58-2.3-14.38-3.41-3-.69-6-1.18-9-1.9A110.68,110.68,0,0,1,89.89,1254a108.51,108.51,0,0,1-19.7-9.4,136.88,136.88,0,0,1-19.43-14.25,140.77,140.77,0,0,1-18.9-20.4,94.55,94.55,0,0,1-10.08-15.58c-1.93-4-4.36-7.76-6.41-11.7A70.54,70.54,0,0,1,12,1175c-1.53-4.1-2.92-8.26-4.27-12.44-.75-2.34-1.2-4.79-1.93-7.14a101.53,101.53,0,0,1-4.56-25.27,20.19,20.19,0,0,0-.28-4.28c-1.44-5.1-.73-10.33-.75-15.46,0-5.48,1-11,1.53-16.45a127.6,127.6,0,0,1,5.48-25.64,135.84,135.84,0,0,1,7.42-18.93,143.8,143.8,0,0,1,9.89-17.59,122.86,122.86,0,0,1,11.86-14.49,107.67,107.67,0,0,1,18-15.64c3-2.09,6.29-3.79,9.49-5.59a84.42,84.42,0,0,1,8-4.26A65.5,65.5,0,0,1,82.38,988c5.55-1.33,11.26-2.06,16.86-3.22,6.64-1.38,13.26-.92,20-.74,6.18.16,12.06,1.77,18.12,2.4,5.58.57,11.17,1.22,16.77,1.74,4.84.45,9.64,1.3,14.47,1.85,4.67.52,9.37.8,14.05,1.33,2.64.3,5.23,1,7.86,1.34,2.39.33,4.8.52,7.2.65,2.81.15,5.63.1,8.44.28,1,.06,1.95.71,2.95.81,4.36.4,8.73.68,13.09,1.05,3.82.33,7.63.79,11.46,1.07,3.08.23,6.17.25,9.26.42,2.41.14,4.81.34,7.21.57,5.33.52,10.65,1.14,16,1.6,2.28.19,4.49-.33,6.9.16,3.33.67,6.9.12,10.37.2,2.41,0,4.82.29,7.23.4,4,.19,8,.38,12,.52s8.21.16,12.31.31c3.72.15,7.43.4,11.14.6l1.94.06c4.72.2,9.44.48,14.16.55,3.86.06,7.72-.16,11.58-.21a28.1,28.1,0,0,1,3.42.25,11.72,11.72,0,0,0,1.48.35c4.24-.13,8.48-.43,12.72-.45s8.44.2,12.67.33c.51,0,1,.19,1.54.17,4.38-.14,8.81-.75,13.14-.35,5.3.48,10.52-1.1,15.88.11,3.06.69,6.43,0,9.66-.08,4.51-.16,9-.41,13.53-.54,2.32-.07,4.64,0,6.95,0a15.7,15.7,0,0,0,1.94,0,87.92,87.92,0,0,1,10.79-.62c6.69.1,13.39-1.06,20.1-1.6,2-.16,4.08,0,6.11,0,.52,0,1.05.08,1.56,0,7-.65,13.93-1.27,20.88-2,3.08-.32,6.1-1.42,9.24-.4a2,2,0,0,0,.77,0c7.61-.7,15.21-1.43,22.82-2.1,3.62-.32,7.24-.55,10.86-.82.64,0,1.3,0,1.94-.12,11.09-1.39,22.19-2.71,33.27-4.22,7.21-1,14.33-2.44,21.68-2.44,3.73,0,7.46-1,11.2-1.56,10.94-1.55,21.89-3.06,32.82-4.65,5.54-.81,11.07-1.67,16.58-2.65q32.26-5.79,64.52-11.71c4.08-.76,8-2.14,12.09-3.06,5.83-1.34,11.71-2.43,17.54-3.81,3-.71,5.92-1.87,8.91-2.71s5.79-1.48,8.68-2.23l17-4.41.37-.11c8.17-2.1,16.35-4.14,24.5-6.31,2.61-.7,5.13-1.74,7.69-2.63.37-.13.72-.32,1.09-.43,6.6-1.8,13.22-3.55,19.8-5.4,2.23-.63,4.37-1.56,6.57-2.27,1.6-.52,3.24-.94,4.88-1.34,2.25-.54,4.67-.58,6.41-2.48a2.43,2.43,0,0,1,1.06-.44c5.47-1.57,10.94-3.11,16.39-4.72a31.41,31.41,0,0,0,3.58-1.43c.59-.25,1.11-.69,1.71-.88,4.92-1.56,9.88-3,14.76-4.65,4.25-1.46,8.42-3.19,12.63-4.79,1.09-.41,2.24-.7,3.31-1.14,1.65-.69,3.26-1.45,4.88-2.2.47-.22.89-.55,1.37-.72,3.41-1.21,6.88-2.27,10.25-3.59,4.17-1.63,8.25-3.51,12.41-5.18,3.44-1.38,7-2.51,10.42-3.92s7-3.08,10.47-4.64a11.21,11.21,0,0,1,1-.55c3.38-1.21,6.84-2.25,10.15-3.63,3-1.26,5.93-2.88,8.89-4.33,2.07-1,4.12-2.12,6.23-3,2.71-1.18,5.52-2.15,8.22-3.35,1.87-.83,3.6-1.95,5.44-2.83q4.71-2.25,9.47-4.36c3.16-1.39,6.37-2.66,9.53-4,1.75-.76,3.46-1.61,5.15-2.49,4.16-2.18,8.29-4.42,12.45-6.59,1.92-1,3.91-1.88,5.86-2.84,3.76-1.87,7.55-3.7,11.27-5.64s7.18-3.92,10.78-5.88c2.47-1.34,5-2.63,7.43-4,4.21-2.32,8.38-4.72,12.61-7,4.9-2.66,9.87-5.18,14.76-7.86,3.34-1.83,6.6-3.82,9.9-5.74,5-2.89,10-5.72,15-8.67,4.68-2.79,9.27-5.74,13.94-8.57,3-1.85,6.17-3.56,9.21-5.43,4.65-2.87,9.24-5.86,13.89-8.73,3.06-1.88,6.16-3.68,9.28-5.45,2.77-1.57,5.56-3.1,8.39-4.53a12,12,0,0,1,3-.86c2-.41,4.12-.65,6.14-1.14,5.11-1.25,10.12-.42,15.25.15,8.47.94,15.77,4.63,22.72,9,3.85,2.4,7.07,5.9,10.26,9.2a117,117,0,0,1,8,9.71,23.89,23.89,0,0,1,2.88,4.94c1.26,2.79,2,5.82,3.46,8.51,4.34,8.13,4.47,17.22,6.12,26,.32,1.71-.09,3.55-.18,5.33a6.28,6.28,0,0,0-.08,1.55c1.08,4.55-.41,9-1.25,13.27a63.3,63.3,0,0,1-5.07,14.37c-3.51,7.48-8.71,13.47-14.48,19.2-6.07,6-11.76,12.4-17.7,18.55-5.75,6-11.54,11.87-17.42,17.69-7.32,7.24-14.65,14.47-22.16,21.52-6,5.66-12.33,11-18.47,16.54-4.55,4.1-9,8.3-13.56,12.37s-9,7.92-13.58,11.75c-7.45,6.2-14.91,12.4-22.52,18.4-6.24,4.92-12.74,9.5-19.08,14.29-5.17,3.91-10.23,8-15.44,11.84-6.54,4.84-13.16,9.58-19.8,14.3q-10.76,7.64-21.62,15.13c-2.62,1.8-5.43,3.34-8.1,5.07-4.22,2.74-8.37,5.59-12.62,8.3-2.91,1.86-6,3.5-8.9,5.31-4.79,3-9.5,6-14.31,8.95-3.24,2-6.62,3.67-9.9,5.56q-6.25,3.61-12.45,7.35c-3.5,2.1-6.91,4.35-10.44,6.39-3.77,2.19-7.61,4.24-11.45,6.3-4.27,2.28-8.6,4.45-12.85,6.76-5.34,2.89-10.59,6-16,8.78-4.2,2.21-8.57,4.09-12.79,6.25-2.39,1.21-4.59,2.75-7,4s-4.64,2.19-6.95,3.32c-5.15,2.52-10.27,5.11-15.45,7.58-2.42,1.15-5,2-7.44,3.1-3.37,1.47-6.68,3.06-10,4.53-3.17,1.37-6.39,2.63-9.57,4q-3.54,1.49-7,3.06c-3,1.37-6,2.85-9.09,4.16-3.77,1.61-7.61,3.08-11.4,4.65s-7.6,3.22-11.41,4.78c-1,.4-2,.54-3,.9-1.67.64-3.3,1.36-4.94,2.06-.36.15-.68.39-1.05.51-4.79,1.48-9.89,2.37-14.3,4.61-4.17,2.11-9,2.14-12.87,5-2.12,1.53-4.88,2.25-7.43,3.09-4.78,1.58-9.63,3-14.43,4.49a38,38,0,0,0-3.83,1.68,15.46,15.46,0,0,1-1.76.81c-4.06,1.32-8.12,2.67-12.22,3.87-5.95,1.76-12,3.24-17.89,5.14-5.66,1.82-11.19,4-16.78,6.06-.25.09-.49.19-.74.26-5.62,1.57-11.23,3.19-16.88,4.68-3.75,1-7.74,1.16-11,3.57a3.07,3.07,0,0,1-1.11.34c-10.23,2.42-20.48,4.78-30.69,7.26-3.39.83-6.69,2-10.05,3-1.88.53-3.78,1-5.69,1.37-6.14,1.16-12.32,2.11-18.42,3.43-4.93,1.07-9.77,2.58-14.67,3.83q-3.6.92-7.25,1.58-18,3.3-36.11,6.51ZM171.85,1118.73c-1.38-5.19-1-10.83-4.42-15.53-1.74-2.44-2.76-5.39-4.29-8-2.95-5-7-9.09-11.39-12.88a43.12,43.12,0,0,0-12.84-7.38,51.21,51.21,0,0,0-12.6-2.87,34.66,34.66,0,0,0-16.77,2.39,42,42,0,0,0-17.11,12.28,57.41,57.41,0,0,0-11.56,49.08c.7,2.9.85,6,2.1,8.68,2.14,4.47,3.74,9.16,6.64,13.37a59.38,59.38,0,0,0,11.48,12.92c6.75,5.42,14.29,9,23.17,9.89,4,.41,7.93-.38,11.89.16.79.11,1.69-.56,2.53-.87,1.34-.49,2.71-.9,4-1.48,2.8-1.23,5.77-2.24,8.32-3.89a43.19,43.19,0,0,0,13.64-14.3c1.18-2,2.72-3.81,3.49-5.92,1.88-5.15,3.88-10.23,4.37-15.84.42-4.84,1.52-9.58.32-14.44C172.4,1122.33,172.17,1120.52,171.85,1118.73Z"/><path class="cls-1" d="M1137.44,734.43c-4.56,2.88-8.34,5.42-12.27,7.7-6.05,3.51-12.24,6.78-18.32,10.25-5.32,3-10.53,6.29-15.86,9.31-3.42,1.93-7,3.57-10.46,5.44s-6.62,3.79-9.94,5.66c-5.81,3.28-11.56,6.67-17.8,9.13a47.56,47.56,0,0,0-5.74,3.1q-6.16,3.45-12.32,6.92c-2.32,1.31-4.66,2.59-6.92,4-2,1.25-3.62.63-5.24-.73-3.93-3.29-7.91-6.53-11.84-9.82-10-8.37-19.94-16.78-30-25.11-8.94-7.43-18-14.76-26.94-22.15-6.12-5-12.25-10-18.3-15.16-8.21-6.93-16.3-14-24.54-20.9-4.89-4.1-10-7.9-15-12-8.46-7-16.82-14.18-25.26-21.24-5.86-4.91-11.76-9.78-17.64-14.65-6.67-5.52-13.35-11-20-16.54-7-5.79-13.88-11.64-20.86-17.42-6.67-5.54-13.43-11-20.08-16.56-7.56-6.34-15-12.84-22.56-19.18-5.78-4.84-11.74-9.46-17.51-14.32a67.81,67.81,0,0,0-12.51-8.78,55.55,55.55,0,0,0-18-5.9,50.58,50.58,0,0,0-17.91.22,49.82,49.82,0,0,0-15.81,6.66,73.56,73.56,0,0,0-8.41,6.58c-5.07,4.29-8.31,10-12,15.43a54,54,0,0,1-19.18,17.83A52.56,52.56,0,0,1,631,608.37c-4.63.68-9.13.09-13.71-.41a46.26,46.26,0,0,1-21.32-8.2c-4.1-2.79-8-5.93-11.83-9.06-6.16-5-12.23-10.09-18.31-15.19-5.69-4.77-11.29-9.64-17-14.38-4.72-3.9-9.59-7.62-14.33-11.5-4.95-4-9.82-8.18-14.72-12.27-1.78-1.48-3.57-2.94-5.34-4.42-10.1-8.44-20.15-16.93-30.31-25.29-8.58-7.07-17.34-13.94-25.93-21-4.83-4-9.43-8.21-14.23-12.21-5.21-4.34-10.55-8.52-15.79-12.81q-8.47-6.93-16.88-13.95c-5.19-4.32-10.32-8.72-15.52-13q-14.49-12-29-23.9c-8.21-6.71-16.5-13.32-24.66-20.08-5-4.14-9.73-8.59-14.73-12.72-8.67-7.16-17.48-14.17-26.21-21.27q-6.07-4.95-12.07-10c-7.17-6-14.28-12.08-21.48-18.05-9.54-7.9-19.16-15.7-28.69-23.62s-18.75-15.83-28.23-23.63c-8.68-7.14-17.57-14-26.22-21.19s-17.3-14.78-26-22.1c-4.68-3.94-9.67-7.53-14.24-11.59A57,57,0,0,1,133,213.88a115.89,115.89,0,0,1-6.95-12.19A72.62,72.62,0,0,1,122,189.33c-1.06-4.15-1.61-8.43-2.32-12.66-.36-2.15-1-4.32.1-6.48a3.43,3.43,0,0,0,0-1.54,62.41,62.41,0,0,1,4.85-26.39c2.72-6.8,6.58-12.9,10.13-19.2,3.27-5.81,6.67-11.55,10.06-17.3,3.75-6.37,7.61-12.68,11.32-19.07,4.23-7.3,8.33-14.69,12.53-22,4.59-8,9.16-15.94,13.86-23.85,4.15-7,7.72-14.35,12.87-20.73A48,48,0,0,1,208,8.58c1.21-.72,2.23-1.77,3.47-2.39a53.51,53.51,0,0,1,23-6.17c12-.35,22.44,3.46,31.85,10.22,6.33,4.55,12,10,18,15,4.92,4.05,10,7.94,14.92,12,4.05,3.29,8.05,6.66,12,10,7.26,6.1,14.46,12.26,21.74,18.33s14.4,11.87,21.62,17.78c6.71,5.49,13.51,10.88,20.15,16.45,8.79,7.39,17.41,15,26.21,22.36,7.61,6.39,15.4,12.56,23.06,18.89,5.41,4.47,10.71,9.09,16.12,13.56,9.16,7.56,18.41,15,27.56,22.59,8.78,7.26,17.47,14.64,26.24,21.92,7.57,6.28,15.22,12.45,22.79,18.73,5.51,4.58,10.92,9.28,16.41,13.87,5.28,4.42,10.62,8.75,15.9,13.15,8.35,7,16.65,14,25,21,5.39,4.46,10.95,8.72,16.36,13.17,5.24,4.33,10.34,8.83,15.57,13.18C615,299.57,624,306.93,633,314.32q10.5,8.69,21,17.4c4.79,4,9.51,8.07,14.32,12,5.21,4.3,10.55,8.45,15.73,12.78,8.55,7.15,17,14.4,25.54,21.59,3.8,3.2,7.68,6.32,11.48,9.53,6,5,11.87,10.12,17.83,15.14q14.83,12.51,29.72,25,15.15,12.62,30.42,25.1c6,4.95,12.15,9.77,18.15,14.74,4.62,3.82,9.06,7.84,13.69,11.64,9.28,7.61,18.68,15.06,27.94,22.7s18.41,15.49,27.68,23.17c8.16,6.75,16.46,13.32,24.61,20.07,10.72,8.88,21.36,17.84,32,26.79,7.91,6.65,15.77,13.37,23.72,20,4.92,4.09,10,8,15,12,5.71,4.67,11.35,9.42,17,14.12,9.65,8,19.34,15.95,29,24,8.83,7.34,17.56,14.79,26.4,22.12s17.82,14.59,26.71,21.91c6.62,5.45,13.18,10.95,19.8,16.39,6.8,5.59,13.7,11.08,20.47,16.72,4.81,4,9.51,8.12,14.18,12.27A16.6,16.6,0,0,1,1137.44,734.43Z"/></svg>