<svg id="Layer_1" data-name="Layer 1" xmlns="http://www.w3.org/2000/svg" xmlns:xlink="http://www.w3.org/1999/xlink" viewBox="0 0 1268.52 1280.89"><defs><style>.cls-1{fill:none;}.cls-2{clip-path:url(#clip-path);}.cls-3{fill:#8c1913;}.cls-4{fill:#8d1913;}.cls-5{fill:#8e1913;}.cls-6{fill:#8f1913;}.cls-7{fill:#8f1914;}.cls-8{fill:#901914;}.cls-9{fill:#911914;}.cls-10{fill:#921914;}.cls-11{fill:#931914;}.cls-12{fill:#881812;}.cls-13{fill:#891812;}.cls-14{fill:#891912;}.cls-15{fill:#8a1912;}.cls-16{fill:#8b1913;}.cls-17{fill:#941914;}.cls-18{fill:#951915;}.cls-19{fill:#961915;}.cls-20{fill:#971915;}.cls-21{fill:#981915;}.cls-22{fill:#991915;}.cls-23{fill:#991916;}.cls-24{fill:#9a1916;}.cls-25{fill:#9b1a16;}.cls-26{fill:#9c1a16;}.cls-27{fill:#9d1a16;}.cls-28{fill:#9e1a16;}.cls-29{fill:#9f1a17;}.cls-30{fill:#a01a17;}.cls-31{fill:#a11a17;}.cls-32{fill:#a21a17;}.cls-33{fill:#a31a17;}.cls-34{fill:#a41a17;}.cls-35{fill:#a51a18;}.cls-36{fill:#a61a18;}.cls-37{fill:#a71a18;}.cls-38{fill:#a81a18;}.cls-39{fill:#a91a18;}.cls-40{fill:#aa1a18;}.cls-41{fill:#ab1a19;}.cls-42{fill:#ac1a19;}.cls-43{fill:#ad1a19;}.cls-44{fill:#ae1a19;}.cls-45{fill:#af1a19;}.cls-46{fill:#b01a19;}.cls-47{fill:#b11a1a;}.cls-48{fill:#b21a1a;}.cls-49{clip-path:url(#clip-path-2);}</style><clipPath id="clip-path"><path class="cls-1" d="M557,1259.65c-12.81,2.31-25.54,5.29-38.44,6.7-10.6,1.16-21.08,3.27-31.66,4-7.14.52-14.15,2.09-21.24,2.22-6.43.12-12.65,1.23-18.95,2.11a22.58,22.58,0,0,1-3.85-.07,27,27,0,0,0-3.48-.1c-8,.8-16,1.87-24,2.46-6.18.45-12.4.32-18.61.44-.52,0-1-.06-1.56,0-6.06.47-12.11,1-18.18,1.42-4.91.36-9.94,1.43-14.7.73-5-.73-9.79,1.31-14.68,0-1.05-.29-2.31.28-3.48.31-2.3.06-4.61,0-6.91,0-1.16,0-2.32.27-3.49.27-1.65,0-3.31-.12-5-.21-.52,0-1-.18-1.54-.16-4.37.17-8.74.53-13.1.51-4.08,0-8.15-.48-12.23-.66q-4.63-.2-9.27-.16c-3.74,0-7.54.57-11.21.09a81.75,81.75,0,0,0-9.62-.54c-4.1,0-8.19-.27-12.29-.53-3.56-.23-7.1-.64-10.66-.92-2.18-.17-4.36-.23-6.54-.34-3.17-.17-6.35-.27-9.51-.52-3.42-.26-6.81-.7-10.23-1-2.93-.23-5.87-.3-8.81-.49-2-.14-4.09-.34-6.13-.57q-6.69-.72-13.39-1.51c-2.8-.33-5.59-.71-8.38-1.09-4.78-.66-9.55-1.39-14.34-2-4.4-.55-8.83-.88-13.23-1.47-3.9-.53-7.77-1.24-11.64-1.93-6.94-1.23-13.89-2.41-20.79-3.8-4.82-1-9.58-2.3-14.38-3.4-3-.69-6-1.19-9-1.91a113.55,113.55,0,0,1-12.14-3.24,109.85,109.85,0,0,1-19.7-9.4,139,139,0,0,1-19.43-14.25,140.7,140.7,0,0,1-18.89-20.4,93,93,0,0,1-10.08-15.59c-1.94-4-4.37-7.75-6.41-11.7a68.55,68.55,0,0,1-3.42-7.75c-1.53-4.11-2.93-8.27-4.27-12.44-.76-2.35-1.21-4.8-1.94-7.15a101.06,101.06,0,0,1-4.55-25.27,19.42,19.42,0,0,0-.29-4.27C0,1121.05.71,1115.83.69,1110.7c0-5.48,1-11,1.54-16.45A127,127,0,0,1,7.7,1068.6a136.47,136.47,0,0,1,7.42-18.92,142,142,0,0,1,9.9-17.6,121.69,121.69,0,0,1,11.85-14.48,107.21,107.21,0,0,1,18-15.64c3-2.09,6.29-3.79,9.49-5.6a86.92,86.92,0,0,1,8-4.26,65.46,65.46,0,0,1,10.52-3.8c5.56-1.34,11.26-2.07,16.86-3.23,6.64-1.38,13.26-.92,20-.74,6.17.17,12.06,1.77,18.12,2.4,5.58.58,11.17,1.22,16.77,1.74,4.83.45,9.63,1.31,14.46,1.85,4.67.52,9.38.8,14,1.34,2.64.3,5.23,1,7.86,1.34,2.39.33,4.8.52,7.2.65,2.81.15,5.63.1,8.44.28,1,.06,2,.71,3,.8,4.36.41,8.73.68,13.09,1,3.82.33,7.64.79,11.46,1.08,3.08.23,6.18.24,9.26.42,2.41.13,4.81.33,7.21.57,5.33.52,10.65,1.13,16,1.59,2.28.2,4.5-.33,6.91.16,3.33.68,6.9.13,10.36.2,2.41.05,4.82.29,7.23.41,4,.19,8,.38,12,.51s8.21.16,12.31.32c3.72.14,7.43.39,11.15.59l1.93.07c4.73.19,9.44.48,14.17.55,3.85.06,7.71-.17,11.57-.22a30.26,30.26,0,0,1,3.42.25,11.93,11.93,0,0,0,1.49.36c4.24-.14,8.47-.43,12.71-.46s8.45.21,12.67.34c.52,0,1,.18,1.54.16,4.39-.14,8.81-.75,13.14-.35,5.3.48,10.53-1.09,15.88.11,3.06.7,6.44,0,9.67-.08,4.51-.15,9-.4,13.53-.54,2.31-.07,4.63,0,6.95,0a17.94,17.94,0,0,0,1.94,0,87.64,87.64,0,0,1,10.78-.61c6.69.09,13.4-1.07,20.1-1.6,2-.17,4.08,0,6.12,0,.52,0,1,.08,1.55,0,7-.65,13.93-1.26,20.88-2,3.08-.32,6.11-1.42,9.24-.41a2.05,2.05,0,0,0,.78,0c7.6-.71,15.21-1.43,22.81-2.11,3.62-.32,7.24-.55,10.86-.81.65,0,1.3,0,2-.13,11.09-1.39,22.19-2.71,33.26-4.22,7.21-1,14.34-2.43,21.69-2.44,3.73,0,7.45-1,11.19-1.55,10.94-1.56,21.89-3.07,32.83-4.66,5.53-.81,11.06-1.66,16.57-2.65Q700,973,732.29,967c4.07-.75,8-2.13,12.08-3.06,5.83-1.33,11.72-2.43,17.54-3.81,3-.71,5.92-1.86,8.91-2.71s5.79-1.48,8.68-2.23q8.47-2.19,17-4.41l.37-.11c8.17-2.09,16.36-4.13,24.5-6.31,2.62-.69,5.13-1.74,7.69-2.63.37-.12.72-.32,1.09-.42,6.6-1.8,13.22-3.55,19.81-5.41,2.22-.62,4.36-1.55,6.56-2.27,1.61-.51,3.24-.94,4.88-1.33,2.25-.54,4.67-.59,6.41-2.48a2.25,2.25,0,0,1,1.07-.44c5.46-1.58,10.93-3.12,16.38-4.73a31.41,31.41,0,0,0,3.58-1.43c.59-.25,1.11-.69,1.71-.88,4.92-1.56,9.88-3,14.76-4.65,4.26-1.46,8.42-3.19,12.63-4.78,1.1-.42,2.24-.7,3.31-1.15,1.65-.68,3.26-1.45,4.88-2.2.47-.21.89-.55,1.37-.72,3.42-1.2,6.88-2.27,10.26-3.59,4.17-1.62,8.24-3.51,12.4-5.17,3.44-1.38,7-2.52,10.42-3.92s7-3.08,10.47-4.65c.36-.15.66-.42,1-.55,3.39-1.21,6.84-2.25,10.15-3.63,3-1.26,5.93-2.87,8.89-4.33,2.08-1,4.12-2.12,6.24-3,2.71-1.18,5.51-2.15,8.21-3.35,1.87-.83,3.6-1.95,5.45-2.83q4.69-2.25,9.46-4.36c3.16-1.39,6.37-2.65,9.54-4,1.74-.77,3.46-1.61,5.15-2.5,4.15-2.18,8.28-4.42,12.44-6.59,1.93-1,3.91-1.88,5.86-2.84,3.76-1.86,7.55-3.69,11.27-5.64s7.19-3.92,10.78-5.87c2.47-1.35,5-2.63,7.43-4,4.21-2.32,8.39-4.71,12.61-7,4.9-2.65,9.87-5.18,14.76-7.86,3.35-1.83,6.6-3.82,9.9-5.73,5-2.89,10-5.72,15-8.68,4.68-2.79,9.28-5.73,13.94-8.56,3.05-1.85,6.18-3.57,9.21-5.44,4.66-2.87,9.24-5.85,13.89-8.72,3.06-1.89,6.16-3.69,9.28-5.46,2.77-1.57,5.56-3.09,8.39-4.53a11.55,11.55,0,0,1,3-.85c2-.42,4.12-.65,6.13-1.15,5.12-1.25,10.12-.41,15.25.15,8.47.94,15.77,4.64,22.72,9,3.85,2.4,7.07,5.9,10.26,9.21a112,112,0,0,1,8,9.71,24.75,24.75,0,0,1,2.88,4.93c1.25,2.79,2,5.83,3.45,8.51,4.35,8.14,4.47,17.22,6.12,26,.33,1.7-.09,3.54-.17,5.32a5.87,5.87,0,0,0-.09,1.55c1.08,4.55-.41,9-1.25,13.27a63.14,63.14,0,0,1-5.07,14.37c-3.51,7.48-8.71,13.48-14.48,19.2-6.07,6-11.76,12.41-17.69,18.56q-8.62,8.92-17.43,17.68c-7.31,7.24-14.65,14.48-22.15,21.52-6,5.66-12.33,11-18.48,16.55-4.54,4.09-9,8.3-13.55,12.36s-9,7.93-13.59,11.75c-7.45,6.2-14.91,12.41-22.52,18.41-6.24,4.91-12.73,9.49-19.07,14.28-5.18,3.91-10.24,8-15.45,11.84-6.54,4.85-13.16,9.59-19.79,14.3q-10.77,7.63-21.63,15.13c-2.62,1.81-5.43,3.34-8.1,5.08-4.22,2.73-8.37,5.59-12.62,8.29-2.91,1.86-6,3.5-8.9,5.32-4.79,3-9.5,6-14.31,8.94-3.23,2-6.62,3.67-9.89,5.56q-6.27,3.62-12.46,7.35c-3.5,2.11-6.91,4.35-10.44,6.39-3.77,2.19-7.61,4.25-11.45,6.3-4.27,2.28-8.59,4.46-12.85,6.76-5.34,2.9-10.59,6-16,8.79-4.2,2.2-8.57,4.09-12.8,6.24-2.38,1.21-4.59,2.76-7,4s-4.65,2.2-6.95,3.33c-5.16,2.51-10.28,5.11-15.46,7.57-2.42,1.15-5,2-7.44,3.1-3.36,1.47-6.68,3.07-10.05,4.53-3.17,1.38-6.38,2.64-9.57,4-2.35,1-4.7,2-7,3.07-3,1.37-6,2.84-9.09,4.15-3.77,1.62-7.61,3.09-11.4,4.65s-7.59,3.22-11.41,4.79c-.95.39-2,.53-3,.9-1.66.63-3.3,1.36-4.94,2a11.26,11.26,0,0,1-1.05.51c-4.79,1.49-9.89,2.37-14.3,4.61-4.16,2.11-9,2.14-12.86,5-2.12,1.53-4.89,2.25-7.44,3.09-4.78,1.59-9.63,3-14.43,4.49a39.18,39.18,0,0,0-3.82,1.68,16.68,16.68,0,0,1-1.77.82c-4.06,1.31-8.12,2.66-12.22,3.87-6,1.75-12,3.23-17.89,5.13-5.66,1.82-11.19,4-16.78,6.06-.24.09-.49.19-.74.26-5.62,1.57-11.23,3.19-16.88,4.68-3.74,1-7.74,1.16-11,3.57a3,3,0,0,1-1.11.35c-10.23,2.41-20.48,4.77-30.69,7.26-3.39.82-6.69,2-10.05,3-1.87.53-3.77,1-5.69,1.36-6.13,1.16-12.31,2.12-18.42,3.44-4.93,1.06-9.77,2.57-14.67,3.82-2.39.61-4.81,1.14-7.24,1.59q-18.06,3.29-36.11,6.51ZM172.38,1119.06c-1.38-5.19-1-10.82-4.41-15.53-1.75-2.44-2.76-5.38-4.3-8-2.95-5-7-9.1-11.39-12.89a43.34,43.34,0,0,0-12.84-7.38,51.24,51.24,0,0,0-12.59-2.87,34.59,34.59,0,0,0-16.78,2.4A41.84,41.84,0,0,0,93,1087.08a57.47,57.47,0,0,0-11.56,49.07c.71,2.9.85,6.06,2.11,8.68,2.14,4.47,3.73,9.16,6.63,13.37a59.2,59.2,0,0,0,11.48,12.93,43.3,43.3,0,0,0,23.17,9.89c4,.4,7.94-.39,11.89.15.79.11,1.69-.56,2.54-.86,1.33-.49,2.7-.91,4-1.48,2.8-1.24,5.77-2.25,8.32-3.89a43.22,43.22,0,0,0,13.64-14.31c1.18-2,2.72-3.8,3.49-5.92,1.88-5.14,3.88-10.22,4.37-15.84.42-4.83,1.52-9.58.32-14.44C172.93,1122.67,172.7,1120.85,172.38,1119.06Z"/></clipPath><clipPath id="clip-path-2"><path class="cls-1" d="M1138,734.77c-4.56,2.87-8.34,5.42-12.27,7.69-6,3.51-12.24,6.79-18.32,10.26-5.32,3-10.53,6.28-15.86,9.3-3.42,1.94-7,3.57-10.46,5.45s-6.61,3.79-9.94,5.66c-5.81,3.27-11.55,6.67-17.8,9.12a48.87,48.87,0,0,0-5.73,3.1q-6.18,3.45-12.33,6.93c-2.32,1.31-4.66,2.58-6.92,4-2,1.25-3.62.63-5.24-.72-3.93-3.29-7.91-6.53-11.84-9.83-10-8.36-19.93-16.78-30-25.11-8.95-7.43-18-14.76-26.95-22.15-6.12-5-12.24-10.05-18.3-15.16-8.21-6.93-16.3-14-24.54-20.9-4.89-4.1-10-7.9-14.94-12-8.47-7-16.83-14.17-25.26-21.24-5.86-4.91-11.76-9.77-17.65-14.65q-10-8.26-20-16.54c-7-5.79-13.89-11.63-20.86-17.42-6.68-5.54-13.44-11-20.08-16.55-7.56-6.35-15-12.85-22.56-19.18-5.78-4.84-11.75-9.46-17.51-14.32a68.27,68.27,0,0,0-12.52-8.79,55.81,55.81,0,0,0-18-5.9,50.87,50.87,0,0,0-17.92.22,50.13,50.13,0,0,0-15.8,6.66A73.76,73.76,0,0,0,680,569.3c-5.06,4.28-8.3,10-12,15.42a53.85,53.85,0,0,1-19.17,17.83,52.25,52.25,0,0,1-17.29,6.15c-4.62.69-9.13.09-13.71-.41a46.27,46.27,0,0,1-21.31-8.2c-4.1-2.79-8-5.93-11.83-9.05-6.16-5-12.24-10.1-18.32-15.19-5.69-4.77-11.29-9.65-17-14.38-4.73-3.9-9.6-7.62-14.34-11.5-4.95-4.05-9.81-8.18-14.72-12.27-1.77-1.48-3.56-3-5.34-4.43-10.1-8.43-20.15-16.92-30.3-25.29-8.59-7.07-17.34-13.94-25.94-21-4.83-4-9.43-8.21-14.23-12.21-5.21-4.34-10.54-8.52-15.79-12.81Q420.26,455,411.85,448c-5.19-4.33-10.31-8.73-15.52-13q-14.49-12-29-23.89c-8.2-6.72-16.5-13.32-24.66-20.09-5-4.14-9.72-8.58-14.72-12.71-8.68-7.17-17.49-14.18-26.22-21.28-4.05-3.29-8.06-6.64-12.07-10-7.17-6-14.28-12.08-21.48-18.05-9.53-7.91-19.16-15.71-28.69-23.62s-18.75-15.84-28.23-23.64c-8.67-7.14-17.57-14-26.22-21.18s-17.3-14.78-26-22.1c-4.69-3.94-9.67-7.54-14.25-11.59a57.25,57.25,0,0,1-11.18-12.62,114.83,114.83,0,0,1-7-12.18,73,73,0,0,1-4.13-12.37c-1-4.15-1.61-8.42-2.32-12.66-.36-2.15-1-4.31.1-6.47a3.31,3.31,0,0,0,0-1.54,62.28,62.28,0,0,1,4.86-26.4c2.71-6.8,6.57-12.9,10.12-19.2,3.27-5.81,6.67-11.55,10.06-17.29C149.1,99.73,153,93.42,156.67,87c4.24-7.3,8.33-14.68,12.54-22,4.58-8,9.16-15.95,13.85-23.85,4.15-7,7.72-14.36,12.87-20.74A48.07,48.07,0,0,1,208.58,8.91c1.2-.71,2.22-1.76,3.46-2.39a53.5,53.5,0,0,1,23-6.16c12-.36,22.44,3.45,31.86,10.22,6.33,4.54,12,10,18,15,4.92,4.06,10,7.94,14.92,12,4.06,3.3,8,6.66,12,10,7.25,6.1,14.45,12.26,21.73,18.33S348,77.74,355.25,83.66c6.71,5.49,13.51,10.87,20.15,16.45,8.8,7.38,17.41,15,26.21,22.36,7.61,6.38,15.4,12.55,23.06,18.88,5.42,4.47,10.71,9.1,16.13,13.57,9.15,7.56,18.4,15,27.55,22.58,8.78,7.27,17.47,14.65,26.24,21.92,7.57,6.28,15.22,12.46,22.79,18.74,5.51,4.57,10.92,9.27,16.42,13.87,5.27,4.41,10.61,8.74,15.89,13.15,8.36,7,16.65,14,25,20.95,5.39,4.46,11,8.72,16.36,13.17,5.24,4.33,10.34,8.84,15.57,13.19,8.92,7.42,17.89,14.77,26.83,22.17q10.5,8.68,21,17.39c4.79,4,9.51,8.07,14.33,12,5.21,4.3,10.54,8.45,15.72,12.78,8.55,7.15,17,14.41,25.54,21.59,3.8,3.21,7.68,6.32,11.48,9.53,6,5,11.87,10.12,17.83,15.14q14.83,12.51,29.72,25,15.17,12.62,30.42,25.11c6,4.94,12.15,9.77,18.16,14.73,4.61,3.82,9.06,7.84,13.69,11.64,9.27,7.61,18.67,15.07,27.93,22.7s18.41,15.5,27.68,23.17c8.16,6.75,16.46,13.32,24.62,20.08,10.71,8.87,21.35,17.84,32,26.79,7.91,6.64,15.77,13.36,23.72,20,4.92,4.08,10,8,15,12,5.71,4.67,11.35,9.43,17,14.13,9.66,8,19.34,15.94,29,24,8.82,7.34,17.55,14.78,26.39,22.11s17.82,14.6,26.72,21.92c6.61,5.44,13.17,11,19.79,16.39,6.81,5.59,13.7,11.08,20.47,16.71,4.81,4,9.51,8.13,14.19,12.28A16.35,16.35,0,0,1,1138,734.77Z"/></clipPath></defs><g class="cls-2"><polygon class="cls-3" points="79.53 1160.87 83.23 1181.42 79.53 1181.42 79.53 1160.87"/><polygon class="cls-3" points="79.53 1093.09 95.42 1181.42 83.23 1181.42 79.53 1160.87 79.53 1093.09"/><polygon class="cls-4" points="87.87 1071.66 107.62 1181.42 95.42 1181.42 79.53 1093.09 79.53 1071.66 87.87 1071.66"/><polygon class="cls-5" points="100.06 1071.66 119.81 1181.42 107.62 1181.42 87.87 1071.66 100.06 1071.66"/><polygon class="cls-6" points="112.26 1071.66 132 1181.42 119.81 1181.42 100.06 1071.66 112.26 1071.66"/><polygon class="cls-7" points="124.45 1071.66 144.2 1181.42 132 1181.42 112.26 1071.66 124.45 1071.66"/><polygon class="cls-8" points="136.64 1071.66 156.39 1181.42 144.2 1181.42 124.45 1071.66 136.64 1071.66"/><polygon class="cls-9" points="148.84 1071.66 168.58 1181.42 156.39 1181.42 136.64 1071.66 148.84 1071.66"/><polygon class="cls-10" points="161.03 1071.66 174.56 1146.9 174.56 1181.42 168.58 1181.42 148.84 1071.66 161.03 1071.66"/><polygon class="cls-10" points="173.22 1071.66 174.56 1079.12 174.56 1146.9 161.03 1071.66 173.22 1071.66"/><polygon class="cls-11" points="174.56 1079.12 173.22 1071.66 174.56 1071.66 174.56 1079.12"/><polygon class="cls-12" points="0 1125.42 27.97 1280.89 0 1280.89 0 1125.42"/><polygon class="cls-12" points="0 1057.64 40.16 1280.89 27.97 1280.89 0 1125.42 0 1057.64"/><polygon class="cls-13" points="0 989.87 52.35 1280.89 40.16 1280.89 0 1057.64 0 989.87"/><polygon class="cls-14" points="0 973.92 9.03 972.3 64.55 1280.89 52.35 1280.89 0 989.87 0 973.92"/><polygon class="cls-15" points="9.03 972.3 20.84 970.17 76.74 1280.89 64.55 1280.89 9.03 972.3"/><polygon class="cls-16" points="20.84 970.17 32.65 968.05 88.93 1280.89 76.74 1280.89 20.84 970.17"/><polygon class="cls-3" points="32.65 968.05 44.46 965.92 101.13 1280.89 88.93 1280.89 32.65 968.05"/><polygon class="cls-3" points="44.46 965.92 56.27 963.8 113.32 1280.89 101.13 1280.89 44.46 965.92"/><polygon class="cls-4" points="56.27 963.8 68.09 961.67 125.51 1280.89 113.32 1280.89 56.27 963.8"/><polygon class="cls-5" points="68.09 961.67 79.9 959.55 137.71 1280.89 125.51 1280.89 68.09 961.67"/><polygon class="cls-6" points="79.9 959.55 91.71 957.42 149.9 1280.89 137.71 1280.89 79.9 959.55"/><polygon class="cls-7" points="91.71 957.42 103.52 955.3 162.09 1280.89 149.9 1280.89 91.71 957.42"/><polygon class="cls-8" points="103.52 955.3 115.33 953.18 174.28 1280.89 162.09 1280.89 103.52 955.3"/><polygon class="cls-9" points="115.33 953.18 127.14 951.05 186.48 1280.89 174.28 1280.89 115.33 953.18"/><polygon class="cls-10" points="127.14 951.05 138.95 948.93 198.67 1280.89 186.48 1280.89 127.14 951.05"/><polygon class="cls-10" points="138.95 948.93 150.76 946.8 210.86 1280.89 198.67 1280.89 138.95 948.93"/><polygon class="cls-11" points="150.76 946.8 162.57 944.68 223.06 1280.89 210.86 1280.89 150.76 946.8"/><polygon class="cls-17" points="162.57 944.68 174.38 942.55 235.25 1280.89 223.06 1280.89 162.57 944.68"/><polygon class="cls-18" points="174.38 942.55 186.19 940.43 247.44 1280.89 235.25 1280.89 174.38 942.55"/><polygon class="cls-19" points="186.19 940.43 198 938.3 259.63 1280.89 247.44 1280.89 186.19 940.43"/><polygon class="cls-19" points="198 938.3 209.81 936.18 271.83 1280.89 259.63 1280.89 198 938.3"/><polygon class="cls-20" points="209.81 936.18 221.63 934.05 284.02 1280.89 271.83 1280.89 209.81 936.18"/><polygon class="cls-21" points="221.63 934.05 233.44 931.93 296.21 1280.89 284.02 1280.89 221.63 934.05"/><polygon class="cls-22" points="233.44 931.93 245.25 929.8 308.41 1280.89 296.21 1280.89 233.44 931.93"/><polygon class="cls-23" points="245.25 929.8 257.06 927.68 320.6 1280.89 308.41 1280.89 245.25 929.8"/><polygon class="cls-24" points="257.06 927.68 268.87 925.55 332.79 1280.89 320.6 1280.89 257.06 927.68"/><polygon class="cls-25" points="268.87 925.55 280.68 923.43 344.98 1280.89 332.79 1280.89 268.87 925.55"/><polygon class="cls-26" points="280.68 923.43 292.49 921.3 357.18 1280.89 344.98 1280.89 280.68 923.43"/><polygon class="cls-27" points="292.49 921.3 304.3 919.18 369.37 1280.89 357.18 1280.89 292.49 921.3"/><polygon class="cls-27" points="304.3 919.18 316.11 917.05 381.56 1280.89 369.37 1280.89 304.3 919.18"/><polygon class="cls-28" points="316.11 917.05 327.92 914.93 393.76 1280.89 381.56 1280.89 316.11 917.05"/><polygon class="cls-29" points="327.92 914.93 339.73 912.81 405.95 1280.89 393.76 1280.89 327.92 914.93"/><polygon class="cls-30" points="339.73 912.81 351.54 910.68 418.14 1280.89 405.95 1280.89 339.73 912.81"/><polygon class="cls-31" points="351.54 910.68 363.35 908.56 430.33 1280.89 418.14 1280.89 351.54 910.68"/><polygon class="cls-31" points="363.35 908.56 375.16 906.43 442.53 1280.89 430.33 1280.89 363.35 908.56"/><polygon class="cls-32" points="375.16 906.43 386.97 904.31 454.72 1280.89 442.53 1280.89 375.16 906.43"/><polygon class="cls-33" points="386.97 904.31 398.79 902.18 466.91 1280.89 454.72 1280.89 386.97 904.31"/><polygon class="cls-34" points="398.79 902.18 410.6 900.06 479.11 1280.89 466.91 1280.89 398.79 902.18"/><polygon class="cls-35" points="410.6 900.06 422.41 897.93 491.3 1280.89 479.11 1280.89 410.6 900.06"/><polygon class="cls-35" points="422.41 897.93 434.22 895.81 503.49 1280.89 491.3 1280.89 422.41 897.93"/><polygon class="cls-36" points="434.22 895.81 446.03 893.68 515.68 1280.89 503.49 1280.89 434.22 895.81"/><polygon class="cls-37" points="446.03 893.68 457.84 891.56 527.88 1280.89 515.68 1280.89 446.03 893.68"/><polygon class="cls-38" points="457.84 891.56 469.65 889.43 539.72 1278.91 528.75 1280.89 527.88 1280.89 457.84 891.56"/><rect class="cls-38" x="504.59" y="885.25" width="12" height="395.73" transform="translate(-183.71 107.52) rotate(-10.2)"/><rect class="cls-39" x="516.4" y="883.12" width="12" height="395.73" transform="translate(-183.14 109.57) rotate(-10.2)"/><rect class="cls-40" x="528.21" y="881" width="12" height="395.73" transform="matrix(0.98, -0.18, 0.18, 0.98, -182.58, 111.63)"/><rect class="cls-41" x="540.02" y="878.87" width="12" height="395.73" transform="translate(-182.02 113.69) rotate(-10.2)"/><rect class="cls-42" x="551.83" y="876.75" width="12" height="395.73" transform="translate(-181.45 115.75) rotate(-10.2)"/><rect class="cls-42" x="563.64" y="874.62" width="12" height="395.73" transform="translate(-180.89 117.8) rotate(-10.2)"/><rect class="cls-43" x="575.45" y="872.5" width="12" height="395.73" transform="translate(-180.33 119.86) rotate(-10.2)"/><rect class="cls-44" x="587.26" y="870.37" width="12" height="395.73" transform="translate(-179.77 121.92) rotate(-10.2)"/><rect class="cls-45" x="599.07" y="868.25" width="12" height="395.73" transform="translate(-179.2 123.98) rotate(-10.2)"/><rect class="cls-45" x="610.88" y="866.12" width="12" height="395.73" transform="translate(-178.64 126.03) rotate(-10.2)"/><rect class="cls-46" x="622.69" y="864" width="12" height="395.73" transform="translate(-178.08 128.09) rotate(-10.2)"/><rect class="cls-47" x="634.51" y="861.87" width="12" height="395.73" transform="translate(-177.51 130.15) rotate(-10.2)"/><rect class="cls-48" x="646.32" y="859.75" width="12" height="395.73" transform="translate(-176.95 132.21) rotate(-10.2)"/><rect class="cls-48" x="658.13" y="857.66" width="11.54" height="395.73" transform="translate(-176.4 134.22) rotate(-10.2)"/><rect class="cls-47" x="669.49" y="855.62" width="11.54" height="395.73" transform="translate(-175.86 136.2) rotate(-10.2)"/><rect class="cls-46" x="680.84" y="853.58" width="11.54" height="395.73" transform="translate(-175.32 138.18) rotate(-10.2)"/><rect class="cls-45" x="692.2" y="851.54" width="11.54" height="395.73" transform="matrix(0.98, -0.18, 0.18, 0.98, -174.78, 140.16)"/><rect class="cls-45" x="703.56" y="849.49" width="11.54" height="395.73" transform="translate(-174.24 142.14) rotate(-10.2)"/><rect class="cls-44" x="714.91" y="847.45" width="11.54" height="395.73" transform="translate(-173.69 144.12) rotate(-10.2)"/><rect class="cls-43" x="726.27" y="845.41" width="11.54" height="395.73" transform="translate(-173.15 146.1) rotate(-10.2)"/><rect class="cls-42" x="737.63" y="843.36" width="11.54" height="395.73" transform="matrix(0.98, -0.18, 0.18, 0.98, -172.61, 148.07)"/><rect class="cls-42" x="748.98" y="841.32" width="11.54" height="395.73" transform="translate(-172.07 150.05) rotate(-10.2)"/><rect class="cls-41" x="760.34" y="839.28" width="11.54" height="395.73" transform="translate(-171.53 152.03) rotate(-10.2)"/><rect class="cls-40" x="771.7" y="837.23" width="11.54" height="395.73" transform="translate(-170.99 154.01) rotate(-10.2)"/><rect class="cls-39" x="783.05" y="835.19" width="11.54" height="395.73" transform="translate(-170.45 155.99) rotate(-10.2)"/><rect class="cls-38" x="794.41" y="833.15" width="11.54" height="395.73" transform="translate(-169.91 157.97) rotate(-10.2)"/><rect class="cls-38" x="805.76" y="831.11" width="11.54" height="395.73" transform="matrix(0.98, -0.18, 0.18, 0.98, -169.36, 159.94)"/><rect class="cls-37" x="817.12" y="829.06" width="11.54" height="395.73" transform="translate(-168.82 161.92) rotate(-10.2)"/><rect class="cls-36" x="828.48" y="827.02" width="11.54" height="395.73" transform="translate(-168.28 163.9) rotate(-10.2)"/><rect class="cls-35" x="839.83" y="824.98" width="11.54" height="395.73" transform="translate(-167.74 165.88) rotate(-10.2)"/><rect class="cls-35" x="851.19" y="822.93" width="11.54" height="395.73" transform="translate(-167.2 167.86) rotate(-10.2)"/><rect class="cls-34" x="862.55" y="820.89" width="11.54" height="395.73" transform="translate(-166.66 169.84) rotate(-10.2)"/><rect class="cls-33" x="873.9" y="818.85" width="11.54" height="395.73" transform="translate(-166.12 171.82) rotate(-10.2)"/><rect class="cls-32" x="885.26" y="816.8" width="11.54" height="395.73" transform="translate(-165.58 173.79) rotate(-10.2)"/><rect class="cls-31" x="896.62" y="814.76" width="11.54" height="395.73" transform="translate(-165.04 175.77) rotate(-10.2)"/><rect class="cls-31" x="907.97" y="812.72" width="11.54" height="395.73" transform="translate(-164.49 177.75) rotate(-10.2)"/><rect class="cls-30" x="919.33" y="810.68" width="11.54" height="395.73" transform="matrix(0.98, -0.18, 0.18, 0.98, -163.95, 179.73)"/><rect class="cls-29" x="930.69" y="808.63" width="11.54" height="395.73" transform="translate(-163.41 181.71) rotate(-10.2)"/><rect class="cls-28" x="942.04" y="806.59" width="11.54" height="395.73" transform="translate(-162.87 183.69) rotate(-10.2)"/><rect class="cls-27" x="953.4" y="804.55" width="11.54" height="395.73" transform="matrix(0.98, -0.18, 0.18, 0.98, -162.33, 185.66)"/><rect class="cls-27" x="964.75" y="802.5" width="11.54" height="395.73" transform="translate(-161.79 187.64) rotate(-10.2)"/><rect class="cls-26" x="976.11" y="800.46" width="11.54" height="395.73" transform="translate(-161.25 189.62) rotate(-10.2)"/><rect class="cls-25" x="987.47" y="798.42" width="11.54" height="395.73" transform="translate(-160.71 191.6) rotate(-10.2)"/><rect class="cls-24" x="998.82" y="796.37" width="11.54" height="395.73" transform="translate(-160.17 193.58) rotate(-10.2)"/><rect class="cls-23" x="1010.18" y="794.33" width="11.54" height="395.73" transform="translate(-159.62 195.56) rotate(-10.2)"/><rect class="cls-22" x="1021.54" y="792.29" width="11.54" height="395.73" transform="translate(-159.08 197.54) rotate(-10.2)"/><rect class="cls-21" x="1032.89" y="790.25" width="11.54" height="395.73" transform="translate(-158.54 199.51) rotate(-10.2)"/><rect class="cls-20" x="1044.25" y="788.2" width="11.54" height="395.73" transform="translate(-158 201.49) rotate(-10.2)"/><rect class="cls-19" x="1055.61" y="786.16" width="11.54" height="395.73" transform="translate(-157.46 203.47) rotate(-10.2)"/><rect class="cls-19" x="1066.96" y="784.12" width="11.54" height="395.73" transform="matrix(0.98, -0.18, 0.18, 0.98, -156.92, 205.45)"/><rect class="cls-18" x="1078.32" y="782.07" width="11.54" height="395.73" transform="matrix(0.98, -0.18, 0.18, 0.98, -156.38, 207.43)"/><rect class="cls-17" x="1089.68" y="780.03" width="11.54" height="395.73" transform="translate(-155.84 209.41) rotate(-10.2)"/><rect class="cls-11" x="1101.03" y="777.99" width="11.54" height="395.73" transform="translate(-155.29 211.38) rotate(-10.2)"/><rect class="cls-10" x="1112.39" y="775.94" width="11.54" height="395.73" transform="translate(-154.75 213.36) rotate(-10.2)"/><rect class="cls-10" x="1123.74" y="773.9" width="11.54" height="395.73" transform="translate(-154.21 215.34) rotate(-10.2)"/><rect class="cls-9" x="1135.1" y="771.86" width="11.54" height="395.73" transform="translate(-153.67 217.32) rotate(-10.2)"/><polygon class="cls-8" points="1111.52 773.96 1118.2 772.76 1123.02 772.76 1192.94 1161.4 1181.58 1163.44 1111.52 773.96"/><polygon class="cls-7" points="1134.75 772.76 1204.3 1159.36 1192.94 1161.4 1123.02 772.76 1134.75 772.76"/><polygon class="cls-6" points="1146.47 772.76 1215.65 1157.32 1204.3 1159.36 1134.75 772.76 1146.47 772.76"/><polygon class="cls-5" points="1158.19 772.76 1227.01 1155.27 1215.65 1157.32 1146.47 772.76 1158.19 772.76"/><polygon class="cls-4" points="1169.92 772.76 1238.36 1153.23 1227.01 1155.27 1158.19 772.76 1169.92 772.76"/><polygon class="cls-3" points="1181.64 772.76 1249.72 1151.19 1238.36 1153.23 1169.92 772.76 1181.64 772.76"/><polygon class="cls-3" points="1193.37 772.76 1261.08 1149.14 1249.72 1151.19 1181.64 772.76 1193.37 772.76"/><polygon class="cls-16" points="1205.09 772.76 1268.52 1125.36 1268.52 1147.8 1261.08 1149.14 1193.37 772.76 1205.09 772.76"/><polygon class="cls-15" points="1216.81 772.76 1268.52 1060.19 1268.52 1125.36 1205.09 772.76 1216.81 772.76"/><polygon class="cls-14" points="1228.54 772.76 1268.52 995.02 1268.52 1060.19 1216.81 772.76 1228.54 772.76"/><polygon class="cls-13" points="1240.26 772.76 1268.52 929.85 1268.52 995.02 1228.54 772.76 1240.26 772.76"/><polygon class="cls-12" points="1251.99 772.76 1268.52 864.68 1268.52 929.85 1240.26 772.76 1251.99 772.76"/><polygon class="cls-12" points="1268.52 864.68 1251.99 772.76 1268.52 772.76 1268.52 864.68"/></g><g class="cls-49"><polygon class="cls-12" points="119.16 172.03 231.68 797.52 119.16 797.52 119.16 172.03"/><polygon class="cls-12" points="119.16 124.89 240.16 797.52 231.68 797.52 119.16 172.03 119.16 124.89"/><polygon class="cls-13" points="119.16 77.74 248.65 797.52 240.16 797.52 119.16 124.89 119.16 77.74"/><polygon class="cls-14" points="119.16 30.59 257.13 797.52 248.65 797.52 119.16 77.74 119.16 30.59"/><polygon class="cls-15" points="119.16 4.51 122.83 3.85 265.61 797.52 257.13 797.52 119.16 30.59 119.16 4.51"/><polygon class="cls-16" points="122.83 3.85 131.04 2.37 274.09 797.52 265.61 797.52 122.83 3.85"/><polygon class="cls-3" points="131.04 2.37 139.26 0.89 282.57 797.52 274.09 797.52 131.04 2.37"/><polygon class="cls-3" points="139.26 0.89 144.23 0 147.58 0 291.05 797.52 282.57 797.52 139.26 0.89"/><polygon class="cls-4" points="156.06 0 299.53 797.52 291.05 797.52 147.58 0 156.06 0"/><polygon class="cls-5" points="164.54 0 308.01 797.52 299.53 797.52 156.06 0 164.54 0"/><polygon class="cls-6" points="173.02 0 316.5 797.52 308.01 797.52 164.54 0 173.02 0"/><polygon class="cls-7" points="181.5 0 324.98 797.52 316.5 797.52 173.02 0 181.5 0"/><polygon class="cls-8" points="189.99 0 333.46 797.52 324.98 797.52 181.5 0 189.99 0"/><polygon class="cls-9" points="198.47 0 341.94 797.52 333.46 797.52 189.99 0 198.47 0"/><polygon class="cls-10" points="206.95 0 350.42 797.52 341.94 797.52 198.47 0 206.95 0"/><polygon class="cls-10" points="215.43 0 358.9 797.52 350.42 797.52 206.95 0 215.43 0"/><polygon class="cls-11" points="223.91 0 367.38 797.52 358.9 797.52 215.43 0 223.91 0"/><polygon class="cls-17" points="232.39 0 375.87 797.52 367.38 797.52 223.91 0 232.39 0"/><polygon class="cls-18" points="240.87 0 384.35 797.52 375.87 797.52 232.39 0 240.87 0"/><polygon class="cls-19" points="249.36 0 392.83 797.52 384.35 797.52 240.87 0 249.36 0"/><polygon class="cls-19" points="257.84 0 401.31 797.52 392.83 797.52 249.36 0 257.84 0"/><polygon class="cls-20" points="266.32 0 409.79 797.52 401.31 797.52 257.84 0 266.32 0"/><polygon class="cls-21" points="274.8 0 418.27 797.52 409.79 797.52 266.32 0 274.8 0"/><polygon class="cls-22" points="283.28 0 426.75 797.52 418.27 797.52 274.8 0 283.28 0"/><polygon class="cls-23" points="291.76 0 435.24 797.52 426.75 797.52 283.28 0 291.76 0"/><polygon class="cls-24" points="300.24 0 443.72 797.52 435.24 797.52 291.76 0 300.24 0"/><polygon class="cls-25" points="308.73 0 452.2 797.52 443.72 797.52 300.24 0 308.73 0"/><polygon class="cls-26" points="317.21 0 460.68 797.52 452.2 797.52 308.73 0 317.21 0"/><polygon class="cls-27" points="325.69 0 469.16 797.52 460.68 797.52 317.21 0 325.69 0"/><polygon class="cls-27" points="334.17 0 477.64 797.52 469.16 797.52 325.69 0 334.17 0"/><polygon class="cls-28" points="342.65 0 486.12 797.52 477.64 797.52 334.17 0 342.65 0"/><polygon class="cls-29" points="351.13 0 494.61 797.52 486.12 797.52 342.65 0 351.13 0"/><polygon class="cls-30" points="359.61 0 503.09 797.52 494.61 797.52 351.13 0 359.61 0"/><polygon class="cls-31" points="368.1 0 511.57 797.52 503.09 797.52 359.61 0 368.1 0"/><polygon class="cls-31" points="376.58 0 520.05 797.52 511.57 797.52 368.1 0 376.58 0"/><polygon class="cls-32" points="385.06 0 528.53 797.52 520.05 797.52 376.58 0 385.06 0"/><polygon class="cls-33" points="393.54 0 537.01 797.52 528.53 797.52 385.06 0 393.54 0"/><polygon class="cls-34" points="402.02 0 545.49 797.52 537.01 797.52 393.54 0 402.02 0"/><polygon class="cls-35" points="410.5 0 553.98 797.52 545.49 797.52 402.02 0 410.5 0"/><polygon class="cls-35" points="418.98 0 562.46 797.52 553.98 797.52 410.5 0 418.98 0"/><polygon class="cls-36" points="427.46 0 570.94 797.52 562.46 797.52 418.98 0 427.46 0"/><polygon class="cls-37" points="435.95 0 579.42 797.52 570.94 797.52 427.46 0 435.95 0"/><polygon class="cls-38" points="444.43 0 587.9 797.52 579.42 797.52 435.95 0 444.43 0"/><polygon class="cls-38" points="452.91 0 596.38 797.52 587.9 797.52 444.43 0 452.91 0"/><polygon class="cls-39" points="461.39 0 604.86 797.52 596.38 797.52 452.91 0 461.39 0"/><polygon class="cls-40" points="469.87 0 613.35 797.52 604.86 797.52 461.39 0 469.87 0"/><polygon class="cls-41" points="478.35 0 621.83 797.52 613.35 797.52 469.87 0 478.35 0"/><polygon class="cls-42" points="486.83 0 630.31 797.52 621.83 797.52 478.35 0 486.83 0"/><polygon class="cls-42" points="495.32 0 638.79 797.52 630.31 797.52 486.83 0 495.32 0"/><polygon class="cls-43" points="503.8 0 647.27 797.52 638.79 797.52 495.32 0 503.8 0"/><polygon class="cls-44" points="512.28 0 655.75 797.52 647.27 797.52 503.8 0 512.28 0"/><polygon class="cls-45" points="520.76 0 664.23 797.52 655.75 797.52 512.28 0 520.76 0"/><polygon class="cls-45" points="529.24 0 672.72 797.52 664.23 797.52 520.76 0 529.24 0"/><polygon class="cls-46" points="537.72 0 681.2 797.52 672.72 797.52 529.24 0 537.72 0"/><polygon class="cls-47" points="546.21 0 689.68 797.52 681.2 797.52 537.72 0 546.21 0"/><polygon class="cls-48" points="554.69 0 698.16 797.52 689.68 797.52 546.21 0 554.69 0"/><polygon class="cls-48" points="562.84 0 706.32 797.52 698.16 797.52 554.69 0 562.84 0"/><polygon class="cls-47" points="571 0 714.47 797.52 706.32 797.52 562.84 0 571 0"/><polygon class="cls-46" points="579.15 0 722.63 797.52 714.47 797.52 571 0 579.15 0"/><polygon class="cls-45" points="587.31 0 730.78 797.52 722.63 797.52 579.15 0 587.31 0"/><polygon class="cls-45" points="595.46 0 738.94 797.52 730.78 797.52 587.31 0 595.46 0"/><polygon class="cls-44" points="603.62 0 747.09 797.52 738.94 797.52 595.46 0 603.62 0"/><polygon class="cls-43" points="611.77 0 755.25 797.52 747.09 797.52 603.62 0 611.77 0"/><polygon class="cls-42" points="619.93 0 763.4 797.52 755.25 797.52 611.77 0 619.93 0"/><polygon class="cls-42" points="628.08 0 771.56 797.52 763.4 797.52 619.93 0 628.08 0"/><polygon class="cls-41" points="636.24 0 779.71 797.52 771.56 797.52 628.08 0 636.24 0"/><polygon class="cls-40" points="644.39 0 787.87 797.52 779.71 797.52 636.24 0 644.39 0"/><polygon class="cls-39" points="652.55 0 796.02 797.52 787.87 797.52 644.39 0 652.55 0"/><polygon class="cls-38" points="660.7 0 804.18 797.52 796.02 797.52 652.55 0 660.7 0"/><polygon class="cls-38" points="668.86 0 812.33 797.52 804.18 797.52 660.7 0 668.86 0"/><polygon class="cls-37" points="677.01 0 820.49 797.52 812.33 797.52 668.86 0 677.01 0"/><polygon class="cls-36" points="685.17 0 828.64 797.52 820.49 797.52 677.01 0 685.17 0"/><polygon class="cls-35" points="693.33 0 836.8 797.52 828.64 797.52 685.17 0 693.33 0"/><polygon class="cls-35" points="701.48 0 844.95 797.52 836.8 797.52 693.33 0 701.48 0"/><polygon class="cls-34" points="709.63 0 853.11 797.52 844.95 797.52 701.48 0 709.63 0"/><polygon class="cls-33" points="717.79 0 861.26 797.52 853.11 797.52 709.63 0 717.79 0"/><polygon class="cls-32" points="725.95 0 869.42 797.52 861.26 797.52 717.79 0 725.95 0"/><polygon class="cls-31" points="734.1 0 877.57 797.52 869.42 797.52 725.95 0 734.1 0"/><polygon class="cls-31" points="742.26 0 885.73 797.52 877.57 797.52 734.1 0 742.26 0"/><polygon class="cls-30" points="750.41 0 893.88 797.52 885.73 797.52 742.26 0 750.41 0"/><polygon class="cls-29" points="758.57 0 902.04 797.52 893.88 797.52 750.41 0 758.57 0"/><polygon class="cls-28" points="766.72 0 910.2 797.52 902.04 797.52 758.57 0 766.72 0"/><polygon class="cls-27" points="774.88 0 918.35 797.52 910.2 797.52 766.72 0 774.88 0"/><polygon class="cls-27" points="783.03 0 926.5 797.52 918.35 797.52 774.88 0 783.03 0"/><polygon class="cls-26" points="791.19 0 934.66 797.52 926.5 797.52 783.03 0 791.19 0"/><polygon class="cls-25" points="799.34 0 942.82 797.52 934.66 797.52 791.19 0 799.34 0"/><polygon class="cls-24" points="807.5 0 950.97 797.52 942.82 797.52 799.34 0 807.5 0"/><polygon class="cls-23" points="815.65 0 959.13 797.52 950.97 797.52 807.5 0 815.65 0"/><polygon class="cls-22" points="823.81 0 967.28 797.52 959.13 797.52 815.65 0 823.81 0"/><polygon class="cls-21" points="831.96 0 975.44 797.52 967.28 797.52 823.81 0 831.96 0"/><polygon class="cls-20" points="840.12 0 983.59 797.52 975.44 797.52 831.96 0 840.12 0"/><polygon class="cls-19" points="848.27 0 991.75 797.52 983.59 797.52 840.12 0 848.27 0"/><polygon class="cls-19" points="856.43 0 999.9 797.52 991.75 797.52 848.27 0 856.43 0"/><polygon class="cls-18" points="864.58 0 1008.06 797.52 999.9 797.52 856.43 0 864.58 0"/><polygon class="cls-17" points="872.74 0 1016.21 797.52 1008.06 797.52 864.58 0 872.74 0"/><polygon class="cls-11" points="880.89 0 1024.37 797.52 1016.21 797.52 872.74 0 880.89 0"/><polygon class="cls-10" points="889.05 0 1032.52 797.52 1024.37 797.52 880.89 0 889.05 0"/><polygon class="cls-10" points="897.21 0 1040.68 797.52 1032.52 797.52 889.05 0 897.21 0"/><polygon class="cls-9" points="905.36 0 1048.83 797.52 1040.68 797.52 897.21 0 905.36 0"/><polygon class="cls-8" points="913.51 0 1056.99 797.52 1048.83 797.52 905.36 0 913.51 0"/><polygon class="cls-7" points="921.67 0 1065.14 797.52 1056.99 797.52 913.51 0 921.67 0"/><polygon class="cls-6" points="929.83 0 1073.3 797.52 1065.14 797.52 921.67 0 929.83 0"/><polygon class="cls-5" points="937.98 0 1081.45 797.52 1073.3 797.52 929.83 0 937.98 0"/><polygon class="cls-4" points="946.14 0 1089.61 797.52 1081.45 797.52 937.98 0 946.14 0"/><polygon class="cls-3" points="954.29 0 1097.77 797.52 1089.61 797.52 946.14 0 954.29 0"/><polygon class="cls-3" points="962.45 0 1105.92 797.52 1097.77 797.52 954.29 0 962.45 0"/><polygon class="cls-16" points="970.6 0 1114.02 797.2 1112.22 797.52 1105.92 797.52 962.45 0 970.6 0"/><polygon class="cls-15" points="978.76 0 1121.92 795.78 1114.02 797.2 970.6 0 978.76 0"/><polygon class="cls-14" points="986.91 0 1129.82 794.36 1121.92 795.78 978.76 0 986.91 0"/><polygon class="cls-13" points="995.07 0 1137.71 792.93 1129.82 794.36 986.91 0 995.07 0"/><polygon class="cls-12" points="1003.22 0 1137.97 749.01 1137.97 792.89 1137.71 792.93 995.07 0 1003.22 0"/><polygon class="cls-12" points="1137.97 749.01 1003.22 0 1137.97 0 1137.97 749.01"/></g></svg>