<svg id="Layer_1" data-name="Layer 1" xmlns="http://www.w3.org/2000/svg" xmlns:xlink="http://www.w3.org/1999/xlink" viewBox="0 0 1188.97 1280"><defs><style>.cls-1{fill:#fff;}.cls-2{clip-path:url(#clip-path);}.cls-3{clip-path:url(#clip-path-2);}</style><clipPath id="clip-path"><path class="cls-1" d="M586.08,437.94c-1.4.25-2.78.57-4.19.73-1.16.12-2.3.35-3.45.44-.78.05-1.54.22-2.31.24a16,16,0,0,0-2.07.23,3,3,0,0,1-.42,0c-.12,0-.25,0-.38,0-.87.09-1.74.2-2.61.27-.68.05-1.35,0-2,.05h-.17l-2,.16a7.88,7.88,0,0,1-1.6.08,14.23,14.23,0,0,1-1.6,0,1.67,1.67,0,0,0-.38,0h-.75l-.38,0-.55,0-.16,0c-.48,0-.95.06-1.43.06s-.89-.05-1.33-.07-.68,0-1,0a10,10,0,0,1-1.22,0,7.48,7.48,0,0,0-1-.06c-.45,0-.89,0-1.34-.06s-.77-.07-1.16-.1l-.71,0c-.35,0-.7,0-1-.05l-1.11-.11-1-.05-.67-.06-1.46-.17c-.31,0-.61-.07-.92-.12l-1.56-.21-1.44-.16-1.27-.21c-.75-.14-1.51-.27-2.26-.42-.53-.1-1.05-.25-1.57-.37l-1-.21a10.28,10.28,0,0,1-1.32-.35,12,12,0,0,1-2.14-1,14.64,14.64,0,0,1-2.12-1.56,14.94,14.94,0,0,1-2.06-2.22,9.7,9.7,0,0,1-1.1-1.7c-.21-.43-.47-.84-.7-1.27a8.08,8.08,0,0,1-.37-.85c-.17-.44-.32-.9-.46-1.35-.09-.26-.14-.52-.21-.78a10.75,10.75,0,0,1-.5-2.75,2.42,2.42,0,0,0,0-.47,5.91,5.91,0,0,1-.08-1.68,17.76,17.76,0,0,1,.16-1.79,14.11,14.11,0,0,1,.6-2.8,15.18,15.18,0,0,1,.81-2.06,15.73,15.73,0,0,1,1.08-1.92,12.9,12.9,0,0,1,1.29-1.58,12.2,12.2,0,0,1,2-1.7c.33-.23.68-.41,1-.61s.58-.33.88-.46a7.79,7.79,0,0,1,1.14-.42c.61-.14,1.23-.22,1.84-.35a9.35,9.35,0,0,1,2.18-.08c.67,0,1.31.19,2,.26l1.83.19c.52.05,1,.14,1.57.2l1.53.15c.29,0,.57.11.86.14a6.85,6.85,0,0,0,.78.07l.92,0c.11,0,.22.07.33.08.47.05.95.08,1.42.12l1.25.11c.34,0,.67,0,1,.05l.78.06c.58.06,1.16.13,1.75.18a6.34,6.34,0,0,1,.75,0,6.05,6.05,0,0,0,1.13,0c.26,0,.52,0,.78,0l1.31.06,1.34,0,1.22.06h.21l1.54.06c.42,0,.84,0,1.26,0a2.22,2.22,0,0,1,.37,0c.06,0,.11,0,.17,0,.46,0,.92,0,1.38,0s.92,0,1.38,0l.17,0a11.44,11.44,0,0,1,1.43,0,12.49,12.49,0,0,1,1.73,0,3.7,3.7,0,0,0,1,0l1.48,0c.25,0,.5,0,.76,0h.21a11.31,11.31,0,0,1,1.17-.07c.73,0,1.46-.11,2.19-.17.22,0,.45,0,.67,0h.17l2.27-.22a2.16,2.16,0,0,1,1,0h.08l2.49-.23,1.18-.08.21,0c1.21-.15,2.42-.29,3.63-.46a18.52,18.52,0,0,1,2.36-.26,10.22,10.22,0,0,0,1.22-.17l3.58-.51c.6-.09,1.2-.18,1.8-.29l7-1.27c.45-.09.88-.24,1.32-.34.63-.14,1.27-.26,1.91-.41.33-.08.64-.21,1-.3s.63-.16,1-.24l1.84-.48h0c.89-.23,1.79-.45,2.67-.69.29-.08.56-.19.84-.29l.12,0,2.16-.59c.24-.07.47-.17.71-.25l.53-.15a1.13,1.13,0,0,0,.7-.27l.12,0,1.78-.52a3.53,3.53,0,0,0,.39-.15,1.74,1.74,0,0,1,.19-.1c.54-.17,1.08-.33,1.61-.51s.92-.34,1.37-.52c.12,0,.25-.07.37-.12l.53-.24a.71.71,0,0,1,.15-.08c.37-.13.75-.25,1.11-.39s.9-.38,1.35-.57.77-.27,1.14-.42.76-.34,1.14-.51a.6.6,0,0,1,.11-.06c.37-.13.75-.24,1.11-.39s.64-.32,1-.48.44-.23.68-.33.6-.23.89-.36.39-.21.59-.31l1-.48c.35-.15.7-.28,1-.44a5.77,5.77,0,0,0,.56-.27c.46-.23.91-.48,1.36-.71l.64-.31,1.23-.62,1.17-.64.81-.43,1.37-.77c.54-.29,1.08-.56,1.61-.85.37-.2.72-.42,1.08-.63l1.63-.94,1.52-.94c.33-.2.67-.38,1-.59l1.52-.95,1-.59c.3-.17.6-.34.91-.5a1.24,1.24,0,0,1,.33-.09c.22,0,.45-.07.67-.12a4.63,4.63,0,0,1,1.66,0,5.86,5.86,0,0,1,2.47,1,6.22,6.22,0,0,1,1.12,1,12.68,12.68,0,0,1,.88,1.06,2.61,2.61,0,0,1,.31.54c.14.3.22.63.38.93a9.43,9.43,0,0,1,.66,2.82,2.81,2.81,0,0,1,0,.58.33.33,0,0,0,0,.17,3.54,3.54,0,0,1-.14,1.45,6.9,6.9,0,0,1-.55,1.56,7.58,7.58,0,0,1-1.58,2.1c-.66.65-1.28,1.35-1.93,2s-1.26,1.29-1.9,1.92c-.79.79-1.59,1.58-2.41,2.35-.66.61-1.34,1.2-2,1.8-.5.45-1,.91-1.48,1.35s-1,.86-1.48,1.28c-.81.67-1.62,1.35-2.45,2-.68.54-1.39,1-2.08,1.56s-1.12.87-1.68,1.29c-.72.53-1.44,1-2.16,1.56L639.27,417c-.28.19-.59.36-.88.55-.46.3-.91.61-1.37.9l-1,.58c-.53.32-1,.66-1.56,1-.36.21-.72.4-1.08.6s-.91.53-1.36.8-.75.48-1.14.7-.82.46-1.24.68l-1.4.74-1.74,1c-.46.24-.94.44-1.4.68-.26.13-.5.3-.75.44s-.51.24-.76.36c-.56.27-1.12.56-1.68.82-.27.13-.55.22-.82.34s-.72.34-1.09.49l-1,.44-.77.33-1,.46-1.24.5-1.25.52a3,3,0,0,1-.32.1l-.54.22a.6.6,0,0,1-.11.06,10.14,10.14,0,0,0-1.56.5,9.88,9.88,0,0,0-1.4.54,2.78,2.78,0,0,1-.81.34l-1.57.49c-.15.05-.28.12-.42.18l-.19.09-1.33.42c-.65.19-1.31.35-2,.56s-1.22.44-1.83.66l-.08,0-1.84.51a3.39,3.39,0,0,0-1.2.39l-.12,0-3.35.79c-.37.09-.73.22-1.09.32-.21.06-.41.11-.62.15-.67.12-1.34.23-2,.37s-1.06.28-1.6.42l-.79.17-3.93.71Zm-41.91-15.32a4.55,4.55,0,0,0-.48-1.69c-.19-.27-.3-.59-.47-.87a5.74,5.74,0,0,0-1.24-1.41,4.63,4.63,0,0,0-1.4-.8,5,5,0,0,0-1.37-.31,3.65,3.65,0,0,0-1.83.26,4.54,4.54,0,0,0-1.86,1.33,5.91,5.91,0,0,0-1.33,3,6,6,0,0,0,.07,2.39,4.88,4.88,0,0,0,.23.95,10.86,10.86,0,0,0,.72,1.45,6.26,6.26,0,0,0,1.25,1.41,4.76,4.76,0,0,0,2.53,1.08c.43,0,.86,0,1.29,0,.09,0,.19-.07.28-.1l.43-.16a5.79,5.79,0,0,0,.91-.42,4.73,4.73,0,0,0,1.49-1.56,4.78,4.78,0,0,0,.38-.65,6.74,6.74,0,0,0,.47-1.72,4.66,4.66,0,0,0,0-1.58C544.23,423,544.21,422.81,544.17,422.62Z"/></clipPath><clipPath id="clip-path-2"><path class="cls-1" d="M649.37,380.75c-.5.31-.91.59-1.34.84l-2,1.12-1.73,1c-.37.21-.76.39-1.14.59l-1.08.62a14.76,14.76,0,0,1-1.94,1c-.22.09-.42.23-.63.34l-1.34.76c-.25.14-.51.28-.75.43a.43.43,0,0,1-.57-.08c-.43-.36-.87-.71-1.29-1.07l-3.27-2.73-2.93-2.42c-.67-.55-1.34-1.09-2-1.65l-2.67-2.28c-.53-.44-1.09-.86-1.63-1.3-.92-.77-1.83-1.55-2.75-2.31L618.4,372l-2.18-1.8-2.27-1.9-2.19-1.8-2.46-2.09c-.63-.53-1.28-1-1.91-1.56a7.59,7.59,0,0,0-1.36-1,5.92,5.92,0,0,0-2-.64,5.33,5.33,0,0,0-1.95,0,5.14,5.14,0,0,0-1.72.73,7.78,7.78,0,0,0-.92.71,8.12,8.12,0,0,0-1.3,1.68,5.93,5.93,0,0,1-2.09,2,5.8,5.8,0,0,1-1.88.67,5.71,5.71,0,0,1-1.49,0,5.11,5.11,0,0,1-2.33-.89c-.44-.31-.87-.65-1.29-1-.67-.54-1.33-1.1-2-1.65l-1.85-1.57c-.52-.43-1-.83-1.57-1.25s-1.07-.89-1.6-1.34l-.58-.48L578.2,356l-2.83-2.29c-.53-.43-1-.89-1.55-1.33L572.1,351l-1.84-1.52-1.69-1.42-3.16-2.6-2.69-2.19c-.54-.45-1.06-.94-1.6-1.39l-2.86-2.32c-.44-.36-.88-.72-1.31-1.09l-2.35-2c-1-.86-2.08-1.71-3.12-2.58s-2-1.72-3.08-2.57-1.91-1.53-2.85-2.31-1.89-1.61-2.84-2.41c-.51-.42-1.05-.82-1.55-1.26a6.37,6.37,0,0,1-1.22-1.37,14.57,14.57,0,0,1-.75-1.33,7.13,7.13,0,0,1-.45-1.35c-.12-.45-.18-.92-.26-1.38a1.05,1.05,0,0,1,0-.7s0-.11,0-.17a6.79,6.79,0,0,1,.53-2.88,16.66,16.66,0,0,1,1.1-2.09c.36-.63.73-1.26,1.1-1.88s.83-1.38,1.23-2.08l1.37-2.4c.49-.87,1-1.73,1.5-2.6a20.31,20.31,0,0,1,1.41-2.26,5.1,5.1,0,0,1,1.37-1.25c.14-.08.25-.19.38-.26a5.76,5.76,0,0,1,2.51-.67,5.52,5.52,0,0,1,3.47,1.11c.69.5,1.31,1.09,2,1.63s1.09.87,1.63,1.31.88.72,1.31,1.09l2.37,2,2.35,1.93c.74.6,1.48,1.19,2.2,1.8,1,.8,1.9,1.63,2.86,2.43s1.67,1.37,2.51,2.06l1.75,1.48c1,.82,2,1.63,3,2.46l2.86,2.39,2.48,2,1.79,1.51,1.73,1.43c.91.76,1.81,1.53,2.73,2.28.58.49,1.19.95,1.78,1.44s1.13,1,1.69,1.44l2.93,2.41,2.28,1.9c.53.43,1,.87,1.56,1.31l1.72,1.39,2.78,2.35,1.25,1,1.94,1.65,3.24,2.72q1.65,1.38,3.32,2.73l2,1.61c.51.42,1,.85,1.5,1.27l3,2.47c1,.83,2,1.69,3,2.52s1.8,1.46,2.69,2.19l3.48,2.92c.87.72,1.72,1.46,2.59,2.18.53.44,1.09.87,1.63,1.31l1.85,1.54c1.06.87,2.11,1.73,3.16,2.61s1.91,1.61,2.88,2.41,1.94,1.59,2.91,2.38l2.15,1.79c.74.61,1.5,1.21,2.23,1.82.53.43,1,.88,1.55,1.34A2,2,0,0,1,649.37,380.75Z"/></clipPath></defs><path class="cls-1" d="M591.1,652.31h6.77v-.08C595.62,652.29,593.37,652.31,591.1,652.31Z"/><path class="cls-1" d="M670.19,817.22v0h1.5C671.19,817.24,670.69,817.24,670.19,817.22Z"/><path class="cls-1" d="M1189,135.39q-.59,24.59-25.21,76.91-25.87,54.16-45.54,66.47-14.78,9.24-160,72.61-94.14,41.85-142.77,102.17,20.3,5.54,52.3,6.16,21.56.62,59.1-1.25,41.8-1.83,54.75-1.83,118.18,0,131.09,31.36,0,27.7-68.3,104-94.77,106.5-251.1,195.72Q756,809,708.35,815a311.3,311.3,0,0,1-36.66,2.27c-.5,0-1,0-1.5,0q-43.73-.37-89.22-15.37Q522.49,783.39,507.12,752,441.23,815,349,817.16c-2.24.06-4.49.08-6.76.08H325.58q-36.9,0-60.3-3.69-11.1-1.86-44.31-16-27.09-12.31-59.71-12.31-54.75,0-115.07,95.37l-16,30.79Q19.7,930.45,8,930.48q-8.61,0-8-9.24,2.46-24.63,17.22-56Q123.1,642.49,238.8,642.47q67.72,40,88.63,40h65.23q55.36,0,74.47-14.75,24-19.1,58.46-77.55,32-54.17,60.29-79.4l6.77,4.94q-9.82,24-28.29,72.61a208.26,208.26,0,0,0-12.93,72.63q0,21.54,51.7,21.52h67.06l20.33.64c6,.08,12,.08,17.83,0q154.33-2.46,270.15-88.61,60.32-44.3,68.33-74.46-65.85-5.54-141.55-5.52-17.84,0-53.85,2.75T797.59,520q-26.45,0-26.45-14.76,0-22.17,24.6-72,76.92-155,227.69-208,59.69-20.88,93.54-42.46,20.29-22.75,67.09-55.38Z"/><path class="cls-1" d="M914.52,92.93V86.78L1006.2,0q69.55,50.46,69.53,84.31,0,19.71-80.59,80.62Q965.61,131.69,957,123.08,927.45,92.92,914.52,92.93Z"/><path class="cls-1" d="M586.08,437.94c-1.4.25-2.78.57-4.19.73-1.16.12-2.3.35-3.45.44-.78.05-1.54.22-2.31.24a16,16,0,0,0-2.07.23,3,3,0,0,1-.42,0c-.12,0-.25,0-.38,0-.87.09-1.74.2-2.61.27-.68.05-1.35,0-2,.05h-.17l-2,.16a7.88,7.88,0,0,1-1.6.08,14.23,14.23,0,0,1-1.6,0,1.67,1.67,0,0,0-.38,0h-.75l-.38,0-.55,0-.16,0c-.48,0-.95.06-1.43.06s-.89-.05-1.33-.07-.68,0-1,0a10,10,0,0,1-1.22,0,7.48,7.48,0,0,0-1-.06c-.45,0-.89,0-1.34-.06s-.77-.07-1.16-.1l-.71,0c-.35,0-.7,0-1-.05l-1.11-.11-1-.05-.67-.06-1.46-.17c-.31,0-.61-.07-.92-.12l-1.56-.21-1.44-.16-1.27-.21c-.75-.14-1.51-.27-2.26-.42-.53-.1-1.05-.25-1.57-.37l-1-.21a10.28,10.28,0,0,1-1.32-.35,12,12,0,0,1-2.14-1,14.64,14.64,0,0,1-2.12-1.56,14.94,14.94,0,0,1-2.06-2.22,9.7,9.7,0,0,1-1.1-1.7c-.21-.43-.47-.84-.7-1.27a8.08,8.08,0,0,1-.37-.85c-.17-.44-.32-.9-.46-1.35-.09-.26-.14-.52-.21-.78a10.75,10.75,0,0,1-.5-2.75,2.42,2.42,0,0,0,0-.47,5.91,5.91,0,0,1-.08-1.68,17.76,17.76,0,0,1,.16-1.79,14.11,14.11,0,0,1,.6-2.8,15.18,15.18,0,0,1,.81-2.06,15.73,15.73,0,0,1,1.08-1.92,12.9,12.9,0,0,1,1.29-1.58,12.2,12.2,0,0,1,2-1.7c.33-.23.68-.41,1-.61s.58-.33.88-.46a7.79,7.79,0,0,1,1.14-.42c.61-.14,1.23-.22,1.84-.35a9.35,9.35,0,0,1,2.18-.08c.67,0,1.31.19,2,.26l1.83.19c.52.05,1,.14,1.57.2l1.53.15c.29,0,.57.11.86.14a6.85,6.85,0,0,0,.78.07l.92,0c.11,0,.22.07.33.08.47.05.95.08,1.42.12l1.25.11c.34,0,.67,0,1,.05l.78.06c.58.06,1.16.13,1.75.18a6.34,6.34,0,0,1,.75,0,6.05,6.05,0,0,0,1.13,0c.26,0,.52,0,.78,0l1.31.06,1.34,0,1.22.06h.21l1.54.06c.42,0,.84,0,1.26,0a2.22,2.22,0,0,1,.37,0c.06,0,.11,0,.17,0,.46,0,.92,0,1.38,0s.92,0,1.38,0l.17,0a11.44,11.44,0,0,1,1.43,0,12.49,12.49,0,0,1,1.73,0,3.7,3.7,0,0,0,1,0l1.48,0c.25,0,.5,0,.76,0h.21a11.31,11.31,0,0,1,1.17-.07c.73,0,1.46-.11,2.19-.17.22,0,.45,0,.67,0h.17l2.27-.22a2.16,2.16,0,0,1,1,0h.08l2.49-.23,1.18-.08.21,0c1.21-.15,2.42-.29,3.63-.46a18.52,18.52,0,0,1,2.36-.26,10.22,10.22,0,0,0,1.22-.17l3.58-.51c.6-.09,1.2-.18,1.8-.29l7-1.27c.45-.09.88-.24,1.32-.34.63-.14,1.27-.26,1.91-.41.33-.08.64-.21,1-.3s.63-.16,1-.24l1.84-.48h0c.89-.23,1.79-.45,2.67-.69.29-.08.56-.19.84-.29l.12,0,2.16-.59c.24-.07.47-.17.71-.25l.53-.15a1.13,1.13,0,0,0,.7-.27l.12,0,1.78-.52a3.53,3.53,0,0,0,.39-.15,1.74,1.74,0,0,1,.19-.1c.54-.17,1.08-.33,1.61-.51s.92-.34,1.37-.52c.12,0,.25-.07.37-.12l.53-.24a.71.71,0,0,1,.15-.08c.37-.13.75-.25,1.11-.39s.9-.38,1.35-.57.77-.27,1.14-.42.76-.34,1.14-.51a.6.6,0,0,1,.11-.06c.37-.13.75-.24,1.11-.39s.64-.32,1-.48.44-.23.68-.33.6-.23.89-.36.39-.21.59-.31l1-.48c.35-.15.7-.28,1-.44a5.77,5.77,0,0,0,.56-.27c.46-.23.91-.48,1.36-.71l.64-.31,1.23-.62,1.17-.64.81-.43,1.37-.77c.54-.29,1.08-.56,1.61-.85.37-.2.72-.42,1.08-.63l1.63-.94,1.52-.94c.33-.2.67-.38,1-.59l1.52-.95,1-.59c.3-.17.6-.34.91-.5a1.24,1.24,0,0,1,.33-.09c.22,0,.45-.07.67-.12a4.63,4.63,0,0,1,1.66,0,5.86,5.86,0,0,1,2.47,1,6.22,6.22,0,0,1,1.12,1,12.68,12.68,0,0,1,.88,1.06,2.61,2.61,0,0,1,.31.54c.14.3.22.63.38.93a9.43,9.43,0,0,1,.66,2.82,2.81,2.81,0,0,1,0,.58.33.33,0,0,0,0,.17,3.54,3.54,0,0,1-.14,1.45,6.9,6.9,0,0,1-.55,1.56,7.58,7.58,0,0,1-1.58,2.1c-.66.65-1.28,1.35-1.93,2s-1.26,1.29-1.9,1.92c-.79.79-1.59,1.58-2.41,2.35-.66.61-1.34,1.2-2,1.8-.5.45-1,.91-1.48,1.35s-1,.86-1.48,1.28c-.81.67-1.62,1.35-2.45,2-.68.54-1.39,1-2.08,1.56s-1.12.87-1.68,1.29c-.72.53-1.44,1-2.16,1.56L639.27,417c-.28.19-.59.36-.88.55-.46.3-.91.61-1.37.9l-1,.58c-.53.32-1,.66-1.56,1-.36.21-.72.4-1.08.6s-.91.53-1.36.8-.75.48-1.14.7-.82.46-1.24.68l-1.4.74-1.74,1c-.46.24-.94.44-1.4.68-.26.13-.5.3-.75.44s-.51.24-.76.36c-.56.27-1.12.56-1.68.82-.27.13-.55.22-.82.34s-.72.34-1.09.49l-1,.44-.77.33-1,.46-1.24.5-1.25.52a3,3,0,0,1-.32.1l-.54.22a.6.6,0,0,1-.11.06,10.14,10.14,0,0,0-1.56.5,9.88,9.88,0,0,0-1.4.54,2.78,2.78,0,0,1-.81.34l-1.57.49c-.15.05-.28.12-.42.18l-.19.09-1.33.42c-.65.19-1.31.35-2,.56s-1.22.44-1.83.66l-.08,0-1.84.51a3.39,3.39,0,0,0-1.2.39l-.12,0-3.35.79c-.37.09-.73.22-1.09.32-.21.06-.41.11-.62.15-.67.12-1.34.23-2,.37s-1.06.28-1.6.42l-.79.17-3.93.71Zm-41.91-15.32a4.55,4.55,0,0,0-.48-1.69c-.19-.27-.3-.59-.47-.87a5.74,5.74,0,0,0-1.24-1.41,4.63,4.63,0,0,0-1.4-.8,5,5,0,0,0-1.37-.31,3.65,3.65,0,0,0-1.83.26,4.54,4.54,0,0,0-1.86,1.33,5.91,5.91,0,0,0-1.33,3,6,6,0,0,0,.07,2.39,4.88,4.88,0,0,0,.23.95,10.86,10.86,0,0,0,.72,1.45,6.26,6.26,0,0,0,1.25,1.41,4.76,4.76,0,0,0,2.53,1.08c.43,0,.86,0,1.29,0,.09,0,.19-.07.28-.1l.43-.16a5.79,5.79,0,0,0,.91-.42,4.73,4.73,0,0,0,1.49-1.56,4.78,4.78,0,0,0,.38-.65,6.74,6.74,0,0,0,.47-1.72,4.66,4.66,0,0,0,0-1.58C544.23,423,544.21,422.81,544.17,422.62Z"/><g class="cls-2"><polygon class="cls-1" points="534.06 427.17 534.46 429.41 534.06 429.41 534.06 427.17"/><polygon class="cls-1" points="534.06 419.79 535.79 429.41 534.46 429.41 534.06 427.17 534.06 419.79"/><polygon class="cls-1" points="534.96 417.45 537.12 429.41 535.79 429.41 534.06 419.79 534.06 417.45 534.96 417.45"/><polygon class="cls-1" points="536.29 417.45 538.44 429.41 537.12 429.41 534.96 417.45 536.29 417.45"/><polygon class="cls-1" points="537.62 417.45 539.77 429.41 538.44 429.41 536.29 417.45 537.62 417.45"/><polygon class="cls-1" points="538.95 417.45 541.1 429.41 539.77 429.41 537.62 417.45 538.95 417.45"/><polygon class="cls-1" points="540.28 417.45 542.43 429.41 541.1 429.41 538.95 417.45 540.28 417.45"/><polygon class="cls-1" points="541.61 417.45 543.76 429.41 542.43 429.41 540.28 417.45 541.61 417.45"/><polygon class="cls-1" points="542.93 417.45 544.41 425.65 544.41 429.41 543.76 429.41 541.61 417.45 542.93 417.45"/><polygon class="cls-1" points="544.26 417.45 544.41 418.27 544.41 425.65 542.93 417.45 544.26 417.45"/><polygon class="cls-1" points="544.41 418.27 544.26 417.45 544.41 417.45 544.41 418.27"/><polygon class="cls-1" points="525.39 423.31 528.44 440.25 525.39 440.25 525.39 423.31"/><polygon class="cls-1" points="525.39 415.93 529.77 440.25 528.44 440.25 525.39 423.31 525.39 415.93"/><polygon class="cls-1" points="525.39 408.54 531.09 440.25 529.77 440.25 525.39 415.93 525.39 408.54"/><polygon class="cls-1" points="525.39 401.16 532.42 440.25 531.09 440.25 525.39 408.54 525.39 401.16"/><polygon class="cls-1" points="525.39 399.97 526.47 399.77 533.75 440.25 532.42 440.25 525.39 401.16 525.39 399.97"/><polygon class="cls-1" points="526.47 399.77 527.76 399.54 535.08 440.25 533.75 440.25 526.47 399.77"/><polygon class="cls-1" points="527.76 399.54 529.04 399.31 536.41 440.25 535.08 440.25 527.76 399.54"/><polygon class="cls-1" points="529.04 399.31 530.33 399.08 537.74 440.25 536.41 440.25 529.04 399.31"/><polygon class="cls-1" points="530.33 399.08 531.62 398.85 539.07 440.25 537.74 440.25 530.33 399.08"/><polygon class="cls-1" points="531.62 398.85 532.9 398.61 540.39 440.25 539.07 440.25 531.62 398.85"/><polygon class="cls-1" points="532.9 398.61 534.19 398.38 541.72 440.25 540.39 440.25 532.9 398.61"/><polygon class="cls-1" points="534.19 398.38 535.48 398.15 543.05 440.25 541.72 440.25 534.19 398.38"/><polygon class="cls-1" points="535.48 398.15 536.76 397.92 544.38 440.25 543.05 440.25 535.48 398.15"/><polygon class="cls-1" points="536.76 397.92 538.05 397.69 545.71 440.25 544.38 440.25 536.76 397.92"/><polygon class="cls-1" points="538.05 397.69 539.34 397.46 547.03 440.25 545.71 440.25 538.05 397.69"/><polygon class="cls-1" points="539.34 397.46 540.62 397.23 548.36 440.25 547.03 440.25 539.34 397.46"/><polygon class="cls-1" points="540.62 397.23 541.91 396.99 549.69 440.25 548.36 440.25 540.62 397.23"/><polygon class="cls-1" points="541.91 396.99 543.2 396.76 551.02 440.25 549.69 440.25 541.91 396.99"/><polygon class="cls-1" points="543.2 396.76 544.48 396.53 552.35 440.25 551.02 440.25 543.2 396.76"/><polygon class="cls-1" points="544.48 396.53 545.77 396.3 553.68 440.25 552.35 440.25 544.48 396.53"/><polygon class="cls-1" points="545.77 396.3 547.06 396.07 555.01 440.25 553.68 440.25 545.77 396.3"/><polygon class="cls-1" points="547.06 396.07 548.34 395.84 556.33 440.25 555.01 440.25 547.06 396.07"/><polygon class="cls-1" points="548.34 395.84 549.63 395.61 557.66 440.25 556.33 440.25 548.34 395.84"/><polygon class="cls-1" points="549.63 395.61 550.92 395.37 558.99 440.25 557.66 440.25 549.63 395.61"/><polygon class="cls-1" points="550.92 395.37 552.2 395.14 560.32 440.25 558.99 440.25 550.92 395.37"/><polygon class="cls-1" points="552.2 395.14 553.49 394.91 561.65 440.25 560.32 440.25 552.2 395.14"/><polygon class="cls-1" points="553.49 394.91 554.78 394.68 562.98 440.25 561.65 440.25 553.49 394.91"/><polygon class="cls-1" points="554.78 394.68 556.07 394.45 564.3 440.25 562.98 440.25 554.78 394.68"/><polygon class="cls-1" points="556.07 394.45 557.35 394.22 565.63 440.25 564.3 440.25 556.07 394.45"/><polygon class="cls-1" points="557.35 394.22 558.64 393.99 566.96 440.25 565.63 440.25 557.35 394.22"/><polygon class="cls-1" points="558.64 393.99 559.92 393.75 568.29 440.25 566.96 440.25 558.64 393.99"/><polygon class="cls-1" points="559.92 393.75 561.21 393.52 569.62 440.25 568.29 440.25 559.92 393.75"/><polygon class="cls-1" points="561.21 393.52 562.5 393.29 570.95 440.25 569.62 440.25 561.21 393.52"/><polygon class="cls-1" points="562.5 393.29 563.78 393.06 572.27 440.25 570.95 440.25 562.5 393.29"/><polygon class="cls-1" points="563.78 393.06 565.07 392.83 573.6 440.25 572.27 440.25 563.78 393.06"/><polygon class="cls-1" points="565.07 392.83 566.36 392.6 574.93 440.25 573.6 440.25 565.07 392.83"/><polygon class="cls-1" points="566.36 392.6 567.65 392.36 576.26 440.25 574.93 440.25 566.36 392.6"/><polygon class="cls-1" points="567.65 392.36 568.93 392.13 577.59 440.25 576.26 440.25 567.65 392.36"/><polygon class="cls-1" points="568.93 392.13 570.22 391.9 578.92 440.25 577.59 440.25 568.93 392.13"/><polygon class="cls-1" points="570.22 391.9 571.51 391.67 580.25 440.25 578.92 440.25 570.22 391.9"/><polygon class="cls-1" points="571.51 391.67 572.79 391.44 581.57 440.25 580.25 440.25 571.51 391.67"/><polygon class="cls-1" points="572.79 391.44 574.08 391.21 582.9 440.25 581.57 440.25 572.79 391.44"/><polygon class="cls-1" points="574.08 391.21 575.37 390.98 584.23 440.25 582.9 440.25 574.08 391.21"/><polygon class="cls-1" points="575.37 390.98 576.65 390.74 585.56 440.25 584.23 440.25 575.37 390.98"/><polygon class="cls-1" points="576.65 390.74 577.94 390.51 586.89 440.25 585.56 440.25 576.65 390.74"/><polygon class="cls-1" points="577.94 390.51 579.23 390.28 588.22 440.25 586.89 440.25 577.94 390.51"/><polygon class="cls-1" points="579.23 390.28 580.51 390.05 589.54 440.25 588.22 440.25 579.23 390.28"/><polygon class="cls-1" points="580.51 390.05 581.8 389.82 590.87 440.25 589.54 440.25 580.51 390.05"/><polygon class="cls-1" points="581.8 389.82 583.09 389.59 592.2 440.25 590.87 440.25 581.8 389.82"/><polygon class="cls-1" points="583.09 389.59 584.37 389.36 593.53 440.25 592.2 440.25 583.09 389.59"/><polygon class="cls-1" points="584.37 389.36 585.66 389.12 594.86 440.25 593.53 440.25 584.37 389.36"/><polygon class="cls-1" points="585.66 389.12 586.95 388.89 596.19 440.25 594.86 440.25 585.66 389.12"/><polygon class="cls-1" points="586.95 388.89 588.23 388.66 597.51 440.25 596.19 440.25 586.95 388.89"/><polygon class="cls-1" points="588.23 388.66 589.52 388.43 598.84 440.25 597.51 440.25 588.23 388.66"/><polygon class="cls-1" points="589.52 388.43 590.81 388.2 600.17 440.25 598.84 440.25 589.52 388.43"/><polygon class="cls-1" points="590.81 388.2 592.09 387.97 601.5 440.25 600.17 440.25 590.81 388.2"/><polygon class="cls-1" points="592.09 387.97 593.33 387.74 602.78 440.25 601.5 440.25 592.09 387.97"/><polygon class="cls-1" points="593.33 387.74 594.57 387.52 604.05 440.25 602.78 440.25 593.33 387.74"/><polygon class="cls-1" points="594.57 387.52 595.81 387.3 605.33 440.25 604.05 440.25 594.57 387.52"/><polygon class="cls-1" points="595.81 387.3 597.04 387.08 606.61 440.25 605.33 440.25 595.81 387.3"/><polygon class="cls-1" points="597.04 387.08 598.28 386.85 607.89 440.25 606.61 440.25 597.04 387.08"/><polygon class="cls-1" points="598.28 386.85 599.52 386.63 609.16 440.25 607.89 440.25 598.28 386.85"/><polygon class="cls-1" points="599.52 386.63 600.75 386.41 610.44 440.25 609.16 440.25 599.52 386.63"/><polygon class="cls-1" points="600.75 386.41 601.99 386.19 611.72 440.25 610.44 440.25 600.75 386.41"/><polygon class="cls-1" points="601.99 386.19 603.23 385.96 613 440.25 611.72 440.25 601.99 386.19"/><polygon class="cls-1" points="603.23 385.96 604.47 385.74 614.27 440.25 613 440.25 603.23 385.96"/><polygon class="cls-1" points="604.47 385.74 605.7 385.52 615.55 440.25 614.27 440.25 604.47 385.74"/><polygon class="cls-1" points="605.7 385.52 606.94 385.3 616.83 440.25 615.55 440.25 605.7 385.52"/><polygon class="cls-1" points="606.94 385.3 608.18 385.07 618.1 440.25 616.83 440.25 606.94 385.3"/><polygon class="cls-1" points="608.18 385.07 609.19 384.89 609.42 384.89 619.38 440.25 618.1 440.25 608.18 385.07"/><polygon class="cls-1" points="610.7 384.89 620.66 440.25 619.38 440.25 609.42 384.89 610.7 384.89"/><polygon class="cls-1" points="611.98 384.89 621.91 440.09 621.02 440.25 620.66 440.25 610.7 384.89 611.98 384.89"/><polygon class="cls-1" points="613.25 384.89 623.14 439.87 621.91 440.09 611.98 384.89 613.25 384.89"/><polygon class="cls-1" points="614.53 384.89 624.38 439.64 623.14 439.87 613.25 384.89 614.53 384.89"/><polygon class="cls-1" points="615.81 384.89 625.62 439.42 624.38 439.64 614.53 384.89 615.81 384.89"/><polygon class="cls-1" points="617.09 384.89 626.86 439.2 625.62 439.42 615.81 384.89 617.09 384.89"/><polygon class="cls-1" points="618.36 384.89 628.09 438.98 626.86 439.2 617.09 384.89 618.36 384.89"/><polygon class="cls-1" points="619.64 384.89 629.33 438.75 628.09 438.98 618.36 384.89 619.64 384.89"/><polygon class="cls-1" points="620.92 384.89 630.57 438.53 629.33 438.75 619.64 384.89 620.92 384.89"/><polygon class="cls-1" points="622.2 384.89 631.81 438.31 630.57 438.53 620.92 384.89 622.2 384.89"/><polygon class="cls-1" points="623.47 384.89 633.04 438.09 631.81 438.31 622.2 384.89 623.47 384.89"/><polygon class="cls-1" points="624.75 384.89 634.28 437.86 633.04 438.09 623.47 384.89 624.75 384.89"/><polygon class="cls-1" points="626.03 384.89 635.52 437.64 634.28 437.86 624.75 384.89 626.03 384.89"/><polygon class="cls-1" points="627.3 384.89 636.75 437.42 635.52 437.64 626.03 384.89 627.3 384.89"/><polygon class="cls-1" points="628.58 384.89 637.99 437.2 636.75 437.42 627.3 384.89 628.58 384.89"/><polygon class="cls-1" points="629.86 384.89 639.23 436.97 637.99 437.2 628.58 384.89 629.86 384.89"/><polygon class="cls-1" points="631.14 384.89 640.47 436.75 639.23 436.97 629.86 384.89 631.14 384.89"/><polygon class="cls-1" points="632.41 384.89 641.7 436.53 640.47 436.75 631.14 384.89 632.41 384.89"/><polygon class="cls-1" points="633.69 384.89 642.94 436.31 641.7 436.53 632.41 384.89 633.69 384.89"/><polygon class="cls-1" points="634.97 384.89 644.18 436.08 642.94 436.31 633.69 384.89 634.97 384.89"/><polygon class="cls-1" points="636.25 384.89 645.42 435.86 644.18 436.08 634.97 384.89 636.25 384.89"/><polygon class="cls-1" points="637.52 384.89 646.65 435.64 645.42 435.86 636.25 384.89 637.52 384.89"/><polygon class="cls-1" points="638.8 384.89 647.89 435.42 646.65 435.64 637.52 384.89 638.8 384.89"/><polygon class="cls-1" points="640.08 384.89 649.13 435.19 647.89 435.42 638.8 384.89 640.08 384.89"/><polygon class="cls-1" points="641.36 384.89 650.37 434.97 649.13 435.19 640.08 384.89 641.36 384.89"/><polygon class="cls-1" points="642.63 384.89 651.6 434.75 650.37 434.97 641.36 384.89 642.63 384.89"/><polygon class="cls-1" points="643.91 384.89 652.84 434.52 651.6 434.75 642.63 384.89 643.91 384.89"/><polygon class="cls-1" points="645.19 384.89 654.08 434.3 652.84 434.52 643.91 384.89 645.19 384.89"/><polygon class="cls-1" points="646.47 384.89 655.31 434.08 654.08 434.3 645.19 384.89 646.47 384.89"/><polygon class="cls-1" points="647.74 384.89 656.55 433.86 655.31 434.08 646.47 384.89 647.74 384.89"/><polygon class="cls-1" points="649.02 384.89 657.79 433.63 656.55 433.86 647.74 384.89 649.02 384.89"/><polygon class="cls-1" points="650.3 384.89 659.03 433.41 657.79 433.63 649.02 384.89 650.3 384.89"/><polygon class="cls-1" points="651.57 384.89 660.26 433.19 659.03 433.41 650.3 384.89 651.57 384.89"/><polygon class="cls-1" points="652.85 384.89 661.5 432.97 660.26 433.19 651.57 384.89 652.85 384.89"/><polygon class="cls-1" points="654.13 384.89 662.74 432.74 661.5 432.97 652.85 384.89 654.13 384.89"/><polygon class="cls-1" points="655.41 384.89 663.59 430.4 663.59 432.59 662.74 432.74 654.13 384.89 655.41 384.89"/><polygon class="cls-1" points="656.68 384.89 663.59 423.3 663.59 430.4 655.41 384.89 656.68 384.89"/><polygon class="cls-1" points="657.96 384.89 663.59 416.2 663.59 423.3 656.68 384.89 657.96 384.89"/><polygon class="cls-1" points="659.24 384.89 663.59 409.1 663.59 416.2 657.96 384.89 659.24 384.89"/><polygon class="cls-1" points="660.51 384.89 663.59 402 663.59 409.1 659.24 384.89 660.51 384.89"/><polygon class="cls-1" points="661.79 384.89 663.59 394.9 663.59 402 660.51 384.89 661.79 384.89"/><polygon class="cls-1" points="663.59 394.9 661.79 384.89 663.59 384.89 663.59 394.9"/></g><path class="cls-1" d="M649.37,380.75c-.5.31-.91.59-1.34.84l-2,1.12-1.73,1c-.37.21-.76.39-1.14.59l-1.08.62a14.76,14.76,0,0,1-1.94,1c-.22.09-.42.23-.63.34l-1.34.76c-.25.14-.51.28-.75.43a.43.43,0,0,1-.57-.08c-.43-.36-.87-.71-1.29-1.07l-3.27-2.73-2.93-2.42c-.67-.55-1.34-1.09-2-1.65l-2.67-2.28c-.53-.44-1.09-.86-1.63-1.3-.92-.77-1.83-1.55-2.75-2.31L618.4,372l-2.18-1.8-2.27-1.9-2.19-1.8-2.46-2.09c-.63-.53-1.28-1-1.91-1.56a7.59,7.59,0,0,0-1.36-1,5.92,5.92,0,0,0-2-.64,5.33,5.33,0,0,0-1.95,0,5.14,5.14,0,0,0-1.72.73,7.78,7.78,0,0,0-.92.71,8.12,8.12,0,0,0-1.3,1.68,5.93,5.93,0,0,1-2.09,2,5.8,5.8,0,0,1-1.88.67,5.71,5.71,0,0,1-1.49,0,5.11,5.11,0,0,1-2.33-.89c-.44-.31-.87-.65-1.29-1-.67-.54-1.33-1.1-2-1.65l-1.85-1.57c-.52-.43-1-.83-1.57-1.25s-1.07-.89-1.6-1.34l-.58-.48L578.2,356l-2.83-2.29c-.53-.43-1-.89-1.55-1.33L572.1,351l-1.84-1.52-1.69-1.42-3.16-2.6-2.69-2.19c-.54-.45-1.06-.94-1.6-1.39l-2.86-2.32c-.44-.36-.88-.72-1.31-1.09l-2.35-2c-1-.86-2.08-1.71-3.12-2.58s-2-1.72-3.08-2.57-1.91-1.53-2.85-2.31-1.89-1.61-2.84-2.41c-.51-.42-1.05-.82-1.55-1.26a6.37,6.37,0,0,1-1.22-1.37,14.57,14.57,0,0,1-.75-1.33,7.13,7.13,0,0,1-.45-1.35c-.12-.45-.18-.92-.26-1.38a1.05,1.05,0,0,1,0-.7s0-.11,0-.17a6.79,6.79,0,0,1,.53-2.88,16.66,16.66,0,0,1,1.1-2.09c.36-.63.73-1.26,1.1-1.88s.83-1.38,1.23-2.08l1.37-2.4c.49-.87,1-1.73,1.5-2.6a20.31,20.31,0,0,1,1.41-2.26,5.1,5.1,0,0,1,1.37-1.25c.14-.08.25-.19.38-.26a5.76,5.76,0,0,1,2.51-.67,5.52,5.52,0,0,1,3.47,1.11c.69.5,1.31,1.09,2,1.63s1.09.87,1.63,1.31.88.72,1.31,1.09l2.37,2,2.35,1.93c.74.6,1.48,1.19,2.2,1.8,1,.8,1.9,1.63,2.86,2.43s1.67,1.37,2.51,2.06l1.75,1.48c1,.82,2,1.63,3,2.46l2.86,2.39,2.48,2,1.79,1.51,1.73,1.43c.91.76,1.81,1.53,2.73,2.28.58.49,1.19.95,1.78,1.44s1.13,1,1.69,1.44l2.93,2.41,2.28,1.9c.53.43,1,.87,1.56,1.31l1.72,1.39,2.78,2.35,1.25,1,1.94,1.65,3.24,2.72q1.65,1.38,3.32,2.73l2,1.61c.51.42,1,.85,1.5,1.27l3,2.47c1,.83,2,1.69,3,2.52s1.8,1.46,2.69,2.19l3.48,2.92c.87.72,1.72,1.46,2.59,2.18.53.44,1.09.87,1.63,1.31l1.85,1.54c1.06.87,2.11,1.73,3.16,2.61s1.91,1.61,2.88,2.41,1.94,1.59,2.91,2.38l2.15,1.79c.74.61,1.5,1.21,2.23,1.82.53.43,1,.88,1.55,1.34A2,2,0,0,1,649.37,380.75Z"/><g class="cls-3"><polygon class="cls-1" points="538.37 319.44 550.63 387.59 538.37 387.59 538.37 319.44"/><polygon class="cls-1" points="538.37 314.31 551.56 387.59 550.63 387.59 538.37 319.44 538.37 314.31"/><polygon class="cls-1" points="538.37 309.17 552.48 387.59 551.56 387.59 538.37 314.31 538.37 309.17"/><polygon class="cls-1" points="538.37 304.03 553.4 387.59 552.48 387.59 538.37 309.17 538.37 304.03"/><polygon class="cls-1" points="538.7 300.7 554.33 387.59 553.4 387.59 538.37 304.03 538.37 300.7 538.7 300.7"/><polygon class="cls-1" points="539.62 300.7 555.25 387.59 554.33 387.59 538.7 300.7 539.62 300.7"/><polygon class="cls-1" points="540.54 300.7 556.18 387.59 555.25 387.59 539.62 300.7 540.54 300.7"/><polygon class="cls-1" points="541.47 300.7 557.1 387.59 556.18 387.59 540.54 300.7 541.47 300.7"/><polygon class="cls-1" points="542.39 300.7 558.02 387.59 557.1 387.59 541.47 300.7 542.39 300.7"/><polygon class="cls-1" points="543.32 300.7 558.95 387.59 558.02 387.59 542.39 300.7 543.32 300.7"/><polygon class="cls-1" points="544.24 300.7 559.87 387.59 558.95 387.59 543.32 300.7 544.24 300.7"/><polygon class="cls-1" points="545.16 300.7 560.8 387.59 559.87 387.59 544.24 300.7 545.16 300.7"/><polygon class="cls-1" points="546.09 300.7 561.72 387.59 560.8 387.59 545.16 300.7 546.09 300.7"/><polygon class="cls-1" points="547.01 300.7 562.64 387.59 561.72 387.59 546.09 300.7 547.01 300.7"/><polygon class="cls-1" points="547.94 300.7 563.57 387.59 562.64 387.59 547.01 300.7 547.94 300.7"/><polygon class="cls-1" points="548.86 300.7 564.49 387.59 563.57 387.59 547.94 300.7 548.86 300.7"/><polygon class="cls-1" points="549.78 300.7 565.42 387.59 564.49 387.59 548.86 300.7 549.78 300.7"/><polygon class="cls-1" points="550.71 300.7 566.34 387.59 565.42 387.59 549.78 300.7 550.71 300.7"/><polygon class="cls-1" points="551.63 300.7 567.26 387.59 566.34 387.59 550.71 300.7 551.63 300.7"/><polygon class="cls-1" points="552.56 300.7 568.19 387.59 567.26 387.59 551.63 300.7 552.56 300.7"/><polygon class="cls-1" points="553.48 300.7 569.11 387.59 568.19 387.59 552.56 300.7 553.48 300.7"/><polygon class="cls-1" points="554.4 300.7 570.04 387.59 569.11 387.59 553.48 300.7 554.4 300.7"/><polygon class="cls-1" points="555.33 300.7 570.96 387.59 570.04 387.59 554.4 300.7 555.33 300.7"/><polygon class="cls-1" points="556.25 300.7 571.88 387.59 570.96 387.59 555.33 300.7 556.25 300.7"/><polygon class="cls-1" points="557.18 300.7 572.81 387.59 571.88 387.59 556.25 300.7 557.18 300.7"/><polygon class="cls-1" points="558.1 300.7 573.73 387.59 572.81 387.59 557.18 300.7 558.1 300.7"/><polygon class="cls-1" points="559.03 300.7 574.66 387.59 573.73 387.59 558.1 300.7 559.03 300.7"/><polygon class="cls-1" points="559.95 300.7 575.58 387.59 574.66 387.59 559.03 300.7 559.95 300.7"/><polygon class="cls-1" points="560.87 300.7 576.5 387.59 575.58 387.59 559.95 300.7 560.87 300.7"/><polygon class="cls-1" points="561.8 300.7 577.43 387.59 576.5 387.59 560.87 300.7 561.8 300.7"/><polygon class="cls-1" points="562.72 300.7 578.35 387.59 577.43 387.59 561.8 300.7 562.72 300.7"/><polygon class="cls-1" points="563.65 300.7 579.28 387.59 578.35 387.59 562.72 300.7 563.65 300.7"/><polygon class="cls-1" points="564.57 300.7 580.2 387.59 579.28 387.59 563.65 300.7 564.57 300.7"/><polygon class="cls-1" points="565.49 300.7 581.13 387.59 580.2 387.59 564.57 300.7 565.49 300.7"/><polygon class="cls-1" points="566.42 300.7 582.05 387.59 581.13 387.59 565.49 300.7 566.42 300.7"/><polygon class="cls-1" points="567.34 300.7 582.97 387.59 582.05 387.59 566.42 300.7 567.34 300.7"/><polygon class="cls-1" points="568.27 300.7 583.9 387.59 582.97 387.59 567.34 300.7 568.27 300.7"/><polygon class="cls-1" points="569.19 300.7 584.82 387.59 583.9 387.59 568.27 300.7 569.19 300.7"/><polygon class="cls-1" points="570.11 300.7 585.75 387.59 584.82 387.59 569.19 300.7 570.11 300.7"/><polygon class="cls-1" points="571.04 300.7 586.67 387.59 585.75 387.59 570.11 300.7 571.04 300.7"/><polygon class="cls-1" points="571.96 300.7 587.59 387.59 586.67 387.59 571.04 300.7 571.96 300.7"/><polygon class="cls-1" points="572.89 300.7 588.52 387.59 587.59 387.59 571.96 300.7 572.89 300.7"/><polygon class="cls-1" points="573.81 300.7 589.44 387.59 588.52 387.59 572.89 300.7 573.81 300.7"/><polygon class="cls-1" points="574.73 300.7 590.37 387.59 589.44 387.59 573.81 300.7 574.73 300.7"/><polygon class="cls-1" points="575.66 300.7 591.29 387.59 590.37 387.59 574.73 300.7 575.66 300.7"/><polygon class="cls-1" points="576.58 300.7 592.21 387.59 591.29 387.59 575.66 300.7 576.58 300.7"/><polygon class="cls-1" points="577.51 300.7 593.14 387.59 592.21 387.59 576.58 300.7 577.51 300.7"/><polygon class="cls-1" points="578.43 300.7 594.06 387.59 593.14 387.59 577.51 300.7 578.43 300.7"/><polygon class="cls-1" points="579.35 300.7 594.99 387.59 594.06 387.59 578.43 300.7 579.35 300.7"/><polygon class="cls-1" points="580.28 300.7 595.91 387.59 594.99 387.59 579.35 300.7 580.28 300.7"/><polygon class="cls-1" points="581.2 300.7 596.83 387.59 595.91 387.59 580.28 300.7 581.2 300.7"/><polygon class="cls-1" points="582.13 300.7 597.76 387.59 596.83 387.59 581.2 300.7 582.13 300.7"/><polygon class="cls-1" points="583.05 300.7 598.68 387.59 597.76 387.59 582.13 300.7 583.05 300.7"/><polygon class="cls-1" points="583.98 300.7 599.61 387.59 598.68 387.59 583.05 300.7 583.98 300.7"/><polygon class="cls-1" points="584.9 300.7 600.53 387.59 599.61 387.59 583.98 300.7 584.9 300.7"/><polygon class="cls-1" points="585.82 300.7 601.45 387.59 600.53 387.59 584.9 300.7 585.82 300.7"/><polygon class="cls-1" points="586.71 300.7 602.34 387.59 601.45 387.59 585.82 300.7 586.71 300.7"/><polygon class="cls-1" points="587.6 300.7 603.23 387.59 602.34 387.59 586.71 300.7 587.6 300.7"/><polygon class="cls-1" points="588.49 300.7 604.12 387.59 603.23 387.59 587.6 300.7 588.49 300.7"/><polygon class="cls-1" points="589.38 300.7 605.01 387.59 604.12 387.59 588.49 300.7 589.38 300.7"/><polygon class="cls-1" points="590.26 300.7 605.9 387.59 605.01 387.59 589.38 300.7 590.26 300.7"/><polygon class="cls-1" points="591.15 300.7 606.78 387.59 605.9 387.59 590.26 300.7 591.15 300.7"/><polygon class="cls-1" points="592.04 300.7 607.67 387.59 606.78 387.59 591.15 300.7 592.04 300.7"/><polygon class="cls-1" points="592.93 300.7 608.56 387.59 607.67 387.59 592.04 300.7 592.93 300.7"/><polygon class="cls-1" points="593.82 300.7 609.45 387.59 608.56 387.59 592.93 300.7 593.82 300.7"/><polygon class="cls-1" points="594.71 300.7 610.34 387.59 609.45 387.59 593.82 300.7 594.71 300.7"/><polygon class="cls-1" points="595.6 300.7 611.23 387.59 610.34 387.59 594.71 300.7 595.6 300.7"/><polygon class="cls-1" points="596.49 300.7 612.12 387.59 611.23 387.59 595.6 300.7 596.49 300.7"/><polygon class="cls-1" points="597.37 300.7 613 387.59 612.12 387.59 596.49 300.7 597.37 300.7"/><polygon class="cls-1" points="598.26 300.7 613.89 387.59 613 387.59 597.37 300.7 598.26 300.7"/><polygon class="cls-1" points="599.15 300.7 614.78 387.59 613.89 387.59 598.26 300.7 599.15 300.7"/><polygon class="cls-1" points="600.04 300.7 615.67 387.59 614.78 387.59 599.15 300.7 600.04 300.7"/><polygon class="cls-1" points="600.93 300.7 616.56 387.59 615.67 387.59 600.04 300.7 600.93 300.7"/><polygon class="cls-1" points="601.82 300.7 617.45 387.59 616.56 387.59 600.93 300.7 601.82 300.7"/><polygon class="cls-1" points="602.7 300.7 618.34 387.59 617.45 387.59 601.82 300.7 602.7 300.7"/><polygon class="cls-1" points="603.59 300.7 619.22 387.59 618.34 387.59 602.7 300.7 603.59 300.7"/><polygon class="cls-1" points="604.48 300.7 620.11 387.59 619.22 387.59 603.59 300.7 604.48 300.7"/><polygon class="cls-1" points="605.37 300.7 621 387.59 620.11 387.59 604.48 300.7 605.37 300.7"/><polygon class="cls-1" points="606.26 300.7 621.89 387.59 621 387.59 605.37 300.7 606.26 300.7"/><polygon class="cls-1" points="607.15 300.7 622.78 387.59 621.89 387.59 606.26 300.7 607.15 300.7"/><polygon class="cls-1" points="608.03 300.7 623.67 387.59 622.78 387.59 607.15 300.7 608.03 300.7"/><polygon class="cls-1" points="608.92 300.7 624.55 387.59 623.67 387.59 608.03 300.7 608.92 300.7"/><polygon class="cls-1" points="609.81 300.7 625.44 387.59 624.55 387.59 608.92 300.7 609.81 300.7"/><polygon class="cls-1" points="610.7 300.7 626.33 387.59 625.44 387.59 609.81 300.7 610.7 300.7"/><polygon class="cls-1" points="611.59 300.7 627.22 387.59 626.33 387.59 610.7 300.7 611.59 300.7"/><polygon class="cls-1" points="612.48 300.7 628.11 387.59 627.22 387.59 611.59 300.7 612.48 300.7"/><polygon class="cls-1" points="613.37 300.7 629 387.59 628.11 387.59 612.48 300.7 613.37 300.7"/><polygon class="cls-1" points="614.25 300.7 629.89 387.59 629 387.59 613.37 300.7 614.25 300.7"/><polygon class="cls-1" points="615.14 300.7 630.77 387.59 629.89 387.59 614.25 300.7 615.14 300.7"/><polygon class="cls-1" points="616.03 300.7 631.66 387.59 630.77 387.59 615.14 300.7 616.03 300.7"/><polygon class="cls-1" points="616.92 300.7 632.55 387.59 631.66 387.59 616.03 300.7 616.92 300.7"/><polygon class="cls-1" points="617.81 300.7 633.44 387.59 632.55 387.59 616.92 300.7 617.81 300.7"/><polygon class="cls-1" points="618.7 300.7 634.33 387.59 633.44 387.59 617.81 300.7 618.7 300.7"/><polygon class="cls-1" points="619.59 300.7 635.22 387.59 634.33 387.59 618.7 300.7 619.59 300.7"/><polygon class="cls-1" points="620.47 300.7 636.11 387.59 635.22 387.59 619.59 300.7 620.47 300.7"/><polygon class="cls-1" points="621.36 300.7 636.99 387.59 636.11 387.59 620.47 300.7 621.36 300.7"/><polygon class="cls-1" points="622.25 300.7 637.88 387.59 636.99 387.59 621.36 300.7 622.25 300.7"/><polygon class="cls-1" points="623.14 300.7 638.77 387.59 637.88 387.59 622.25 300.7 623.14 300.7"/><polygon class="cls-1" points="624.03 300.7 639.66 387.59 638.77 387.59 623.14 300.7 624.03 300.7"/><polygon class="cls-1" points="624.92 300.7 640.55 387.59 639.66 387.59 624.03 300.7 624.92 300.7"/><polygon class="cls-1" points="625.8 300.7 641.44 387.59 640.55 387.59 624.92 300.7 625.8 300.7"/><polygon class="cls-1" points="626.69 300.7 642.33 387.59 641.44 387.59 625.8 300.7 626.69 300.7"/><polygon class="cls-1" points="627.58 300.7 643.21 387.59 642.33 387.59 626.69 300.7 627.58 300.7"/><polygon class="cls-1" points="628.47 300.7 644.1 387.59 643.21 387.59 627.58 300.7 628.47 300.7"/><polygon class="cls-1" points="629.36 300.7 644.99 387.59 644.1 387.59 628.47 300.7 629.36 300.7"/><polygon class="cls-1" points="630.25 300.7 645.88 387.59 644.99 387.59 629.36 300.7 630.25 300.7"/><polygon class="cls-1" points="631.14 300.7 646.77 387.59 645.88 387.59 630.25 300.7 631.14 300.7"/><polygon class="cls-1" points="632.02 300.7 647.66 387.59 646.77 387.59 631.14 300.7 632.02 300.7"/><polygon class="cls-1" points="632.91 300.7 648.54 387.59 647.66 387.59 632.02 300.7 632.91 300.7"/><polygon class="cls-1" points="633.8 300.7 649.37 387.24 649.37 387.59 648.54 387.59 632.91 300.7 633.8 300.7"/><polygon class="cls-1" points="634.69 300.7 649.37 382.3 649.37 387.24 633.8 300.7 634.69 300.7"/><polygon class="cls-1" points="649.37 382.3 634.69 300.7 649.37 300.7 649.37 382.3"/></g><path class="cls-1" d="M17.8,1103.64A21.23,21.23,0,0,1,9,1096.47a18.8,18.8,0,0,1-3.42-10.27h7.91a15,15,0,0,0,4.82,9.58q4.28,4.11,12.51,4.11,7.59,0,12-3.9a12.62,12.62,0,0,0,4.43-9.9,11.69,11.69,0,0,0-2.46-7.75,15,15,0,0,0-6.1-4.38,92,92,0,0,0-10-3.16,87.52,87.52,0,0,1-11.87-4,18.84,18.84,0,0,1-7.49-6q-3.11-4.06-3.1-11a18.41,18.41,0,0,1,3-10.33,20.11,20.11,0,0,1,8.45-7.11,29.11,29.11,0,0,1,12.52-2.57q10.38,0,16.74,5.08A19.15,19.15,0,0,1,54.23,1048H46.1a13.47,13.47,0,0,0-5-8.19q-4.29-3.58-11.55-3.58a17.43,17.43,0,0,0-11.23,3.58,11.85,11.85,0,0,0-4.5,9.79,11.24,11.24,0,0,0,2.47,7.59,15.55,15.55,0,0,0,6.14,4.39,91.26,91.26,0,0,0,10,3.21,89.58,89.58,0,0,1,11.76,4,19.24,19.24,0,0,1,7.6,6q3.09,4.07,3.1,10.91a19.2,19.2,0,0,1-2.79,10,20.17,20.17,0,0,1-8.23,7.59,27.51,27.51,0,0,1-13,2.89A31,31,0,0,1,17.8,1103.64Z"/><path class="cls-1" d="M112.63,1087.7h-34l-6.52,17.76H64.17l27.27-73.81h8.45l27.17,73.81h-7.91Zm-2.25-6.21-14.76-40.43-14.76,40.43Z"/><path class="cls-1" d="M146.53,1099.36h26.85v6.1H139.05v-74.77h7.48Z"/><path class="cls-1" d="M198.84,1101.34a35,35,0,0,1-13.32-13.59,42.42,42.42,0,0,1,0-39.47,35,35,0,0,1,13.32-13.58,39,39,0,0,1,37.75,0,34.64,34.64,0,0,1,13.26,13.58,42.81,42.81,0,0,1,0,39.47,34.67,34.67,0,0,1-13.26,13.59,39.08,39.08,0,0,1-37.75,0Zm33.79-5.51a27.42,27.42,0,0,0,10.49-11.07,38.21,38.21,0,0,0,0-33.43,27.45,27.45,0,0,0-10.49-11,31,31,0,0,0-29.94,0,27.29,27.29,0,0,0-10.48,11,38.21,38.21,0,0,0,0,33.43,27.26,27.26,0,0,0,10.48,11.07,31,31,0,0,0,29.94,0Z"/><path class="cls-1" d="M324.73,1105.46h-7.49l-41.39-62.9v62.9h-7.49v-74.77h7.49l41.39,62.79v-62.79h7.49Z"/><path class="cls-1" d="M416.71,1073.26a18.39,18.39,0,0,1,4.39,12.19,18.93,18.93,0,0,1-2.84,10.22,19.24,19.24,0,0,1-8.29,7.16,29.81,29.81,0,0,1-13.05,2.63H371v-74.77h25.14q11.32,0,17.27,5.24a17.28,17.28,0,0,1,5.94,13.58q0,7-3.75,11.29a19.64,19.64,0,0,1-9.62,6A18,18,0,0,1,416.71,1073.26Zm-38.18-9.52H396q7.59,0,11.72-3.58t4.11-9.9q0-6.19-4.11-9.73t-12-3.53H378.53Zm30.53,31.55q4.54-3.84,4.55-10.59a13.33,13.33,0,0,0-4.76-10.74q-4.75-4-12.78-4H378.53v29.2h17.86Q404.52,1099.14,409.06,1095.29Z"/><path class="cls-1" d="M478.21,1087.7h-34l-6.52,17.76h-7.92L457,1031.65h8.45l27.17,73.81h-7.91Zm-2.24-6.21-14.76-40.43-14.76,40.43Z"/><path class="cls-1" d="M514.31,1103.64a21.23,21.23,0,0,1-8.82-7.17,18.8,18.8,0,0,1-3.42-10.27H510a15,15,0,0,0,4.82,9.58q4.28,4.11,12.51,4.11,7.59,0,12-3.9a12.62,12.62,0,0,0,4.43-9.9,11.69,11.69,0,0,0-2.46-7.75,15,15,0,0,0-6.1-4.38,92,92,0,0,0-10.05-3.16,87.52,87.52,0,0,1-11.87-4,18.84,18.84,0,0,1-7.49-6q-3.1-4.06-3.1-11a18.41,18.41,0,0,1,3-10.33,20.11,20.11,0,0,1,8.45-7.11,29.11,29.11,0,0,1,12.52-2.57q10.38,0,16.74,5.08a19.15,19.15,0,0,1,7.33,13.11h-8.13a13.47,13.47,0,0,0-5-8.19c-2.85-2.39-6.71-3.58-11.55-3.58a17.43,17.43,0,0,0-11.23,3.58,11.85,11.85,0,0,0-4.5,9.79,11.24,11.24,0,0,0,2.47,7.59,15.55,15.55,0,0,0,6.14,4.39,91.26,91.26,0,0,0,10,3.21,89.58,89.58,0,0,1,11.76,4,19.24,19.24,0,0,1,7.6,6q3.09,4.07,3.1,10.91a19.2,19.2,0,0,1-2.79,10,20.17,20.17,0,0,1-8.23,7.59,27.51,27.51,0,0,1-13.05,2.89A31,31,0,0,1,514.31,1103.64Z"/><path class="cls-1" d="M575.49,1103.64a21.23,21.23,0,0,1-8.82-7.17,18.8,18.8,0,0,1-3.42-10.27h7.91a15,15,0,0,0,4.82,9.58q4.28,4.11,12.51,4.11,7.59,0,12-3.9a12.62,12.62,0,0,0,4.43-9.9,11.69,11.69,0,0,0-2.46-7.75,15,15,0,0,0-6.1-4.38,92,92,0,0,0-10-3.16,87.52,87.52,0,0,1-11.87-4,18.84,18.84,0,0,1-7.49-6q-3.11-4.06-3.1-11a18.41,18.41,0,0,1,3-10.33,20.11,20.11,0,0,1,8.45-7.11,29.11,29.11,0,0,1,12.52-2.57q10.38,0,16.74,5.08a19.15,19.15,0,0,1,7.33,13.11h-8.13a13.47,13.47,0,0,0-5-8.19c-2.85-2.39-6.71-3.58-11.55-3.58a17.43,17.43,0,0,0-11.23,3.58,11.85,11.85,0,0,0-4.5,9.79,11.24,11.24,0,0,0,2.47,7.59,15.55,15.55,0,0,0,6.14,4.39,91.26,91.26,0,0,0,10,3.21,89.58,89.58,0,0,1,11.76,4,19.24,19.24,0,0,1,7.6,6q3.09,4.07,3.1,10.91a19.2,19.2,0,0,1-2.79,10,20.17,20.17,0,0,1-8.23,7.59,27.51,27.51,0,0,1-13,2.89A31,31,0,0,1,575.49,1103.64Z"/><path class="cls-1" d="M634.48,1036.79v27.91h28.35v6.21H634.48v28.34H666v6.21H627v-74.88h39v6.21Z"/><path class="cls-1" d="M753.85,1031.65v73.81h-7.49v-58.94l-26.31,58.94H714.6l-26.31-58.73v58.73H680.8v-73.81h7.91l28.56,64,28.56-64Z"/><path class="cls-1" d="M856.53,1105.46h-7.48l-41.4-62.9v62.9h-7.49v-74.77h7.49l41.4,62.79v-62.79h7.48Z"/><path class="cls-1" d="M881,1036.79v27.91h28.34v6.21H881v28.34h31.55v6.21h-39v-74.88h39v6.21Z"/><path class="cls-1" d="M982.86,1030.69v74.77h-7.49v-35H934.83v35h-7.49v-74.77h7.49v33.58h40.54v-33.58Z"/><path class="cls-1" d="M1043.71,1030.69v6.2H1023v68.57h-7.49v-68.57H994.62v-6.2Z"/><path class="cls-1" d="M1098.9,1087.7h-34l-6.53,17.76h-7.91l27.27-73.81h8.45l27.17,73.81h-7.91Zm-2.25-6.21-14.75-40.43-14.77,40.43Z"/><path class="cls-1" d="M1180.84,1030.69v74.77h-7.49v-35h-40.54v35h-7.49v-74.77h7.49v33.58h40.54v-33.58Z"/><path class="cls-1" d="M344.78,1236.47v6.31H303.17v-6.31Z"/><path class="cls-1" d="M400.83,1210.58v27.92h28.35v6.2H400.83v28.35h31.55v6.2h-39v-74.87h39v6.2Z"/><path class="cls-1" d="M456.82,1277.43a21.29,21.29,0,0,1-8.82-7.16,18.8,18.8,0,0,1-3.42-10.27h7.92a15,15,0,0,0,4.81,9.57q4.28,4.13,12.51,4.12,7.59,0,12-3.91a12.62,12.62,0,0,0,4.43-9.89,11.67,11.67,0,0,0-2.46-7.75,15.06,15.06,0,0,0-6.09-4.39,97.73,97.73,0,0,0-10.06-3.16,87.7,87.7,0,0,1-11.87-3.95,18.93,18.93,0,0,1-7.49-6q-3.1-4.07-3.1-11a18.38,18.38,0,0,1,3-10.32,20.11,20.11,0,0,1,8.45-7.11,29,29,0,0,1,12.52-2.57q10.38,0,16.74,5.08a19.13,19.13,0,0,1,7.33,13.1h-8.13a13.47,13.47,0,0,0-5-8.18q-4.27-3.59-11.55-3.58a17.43,17.43,0,0,0-11.23,3.58,11.84,11.84,0,0,0-4.5,9.79,11.25,11.25,0,0,0,2.47,7.59,15.55,15.55,0,0,0,6.14,4.39,91.56,91.56,0,0,0,10,3.2,90.92,90.92,0,0,1,11.76,4,19.16,19.16,0,0,1,7.6,6q3.09,4.06,3.1,10.91a19.31,19.31,0,0,1-2.78,10,20.33,20.33,0,0,1-8.24,7.59,27.51,27.51,0,0,1-13.05,2.89A31,31,0,0,1,456.82,1277.43Z"/><path class="cls-1" d="M552.07,1204.48v6.21H531.32v68.56h-7.49v-68.56H503v-6.21Z"/><path class="cls-1" d="M620.58,1246.89q10.74-11.7,10.75-22.94,0-7.38-3.69-11.82t-12-4.44c-5.43,0-9.61,1.7-12.57,5.08s-4.62,7.9-5,13.53h-7.27q.65-11.86,7.33-18.45t17.49-6.57q10.36,0,16.79,5.82t6.42,16.53q0,12.94-10.75,25.08a168.17,168.17,0,0,1-26.48,23.7h39.58v6.31h-51v-5.35Q609.83,1258.61,620.58,1246.89Z"/><path class="cls-1" d="M658.49,1211.65q5.68-10.15,20.33-10.16t20.32,10.16q5.67,10.17,5.67,28.56,0,18.72-5.67,29t-20.32,10.26q-14.76,0-20.38-10.26t-5.61-29Q652.83,1221.82,658.49,1211.65ZM696,1223.42a21.42,21.42,0,0,0-5.46-11q-4.07-4.17-11.76-4.17t-11.77,4.17a21.41,21.41,0,0,0-5.45,11,85.73,85.73,0,0,0-1.39,16.79,88.72,88.72,0,0,0,1.39,17.17,21.46,21.46,0,0,0,5.45,11.07q4.07,4.17,11.77,4.17t11.76-4.17a21.47,21.47,0,0,0,5.46-11.07,88.72,88.72,0,0,0,1.39-17.17A85.73,85.73,0,0,0,696,1223.42Z"/><path class="cls-1" d="M715.07,1209.3v-6.74h18.19v76.69h-7.59v-70Z"/><path class="cls-1" d="M778.88,1246.89q10.74-11.7,10.75-22.94,0-7.38-3.69-11.82t-12-4.44c-5.43,0-9.61,1.7-12.57,5.08s-4.62,7.9-5,13.53h-7.27q.64-11.86,7.33-18.45t17.49-6.57q10.37,0,16.79,5.82t6.42,16.53q0,12.94-10.75,25.08a168.17,168.17,0,0,1-26.48,23.7h39.58v6.31h-51v-5.35Q768.13,1258.61,778.88,1246.89Z"/><path class="cls-1" d="M878.29,1236.47v6.31H836.68v-6.31Z"/></svg>