<svg id="Layer_1" data-name="Layer 1" xmlns="http://www.w3.org/2000/svg" viewBox="0 0 1280 272.46"><defs><style>.cls-1{fill:#030304;}</style></defs><path class="cls-1" d="M13.34,80.38a23.1,23.1,0,0,1-9.61-7.81A20.49,20.49,0,0,1,0,61.39H8.62a16.39,16.39,0,0,0,5.25,10.43q4.65,4.49,13.62,4.48,8.28,0,13.11-4.25a13.75,13.75,0,0,0,4.83-10.78,12.76,12.76,0,0,0-2.67-8.44,16.42,16.42,0,0,0-6.65-4.77,102.31,102.31,0,0,0-10.94-3.44,97.83,97.83,0,0,1-12.94-4.31,20.54,20.54,0,0,1-8.15-6.53Q.69,29.35.7,21.78A20,20,0,0,1,4,10.54a21.78,21.78,0,0,1,9.2-7.74A31.62,31.62,0,0,1,26.79,0Q38.1,0,45,5.53A20.85,20.85,0,0,1,53,19.8H44.15a14.66,14.66,0,0,0-5.47-8.91Q34,7,26.1,7a19,19,0,0,0-12.23,3.9A12.89,12.89,0,0,0,9,21.55a12.28,12.28,0,0,0,2.68,8.27,17.11,17.11,0,0,0,6.7,4.78,100.54,100.54,0,0,0,10.89,3.49,98.39,98.39,0,0,1,12.81,4.37A20.93,20.93,0,0,1,50.33,49q3.38,4.43,3.37,11.89a21,21,0,0,1-3,10.83,22.09,22.09,0,0,1-9,8.27,30,30,0,0,1-14.22,3.15A33.65,33.65,0,0,1,13.34,80.38Z"/><path class="cls-1" d="M116.61,63h-37l-7.1,19.34H63.84L93.54,2h9.2l29.59,80.38h-8.61Zm-2.45-6.76-16.07-44L82,56.26Z"/><path class="cls-1" d="M153.54,75.72h29.24v6.64h-37.4V.93h8.16Z"/><path class="cls-1" d="M210.5,77.87A38.11,38.11,0,0,1,196,63.08a43.26,43.26,0,0,1-5.31-21.49A43.32,43.32,0,0,1,196,20.09,38.18,38.18,0,0,1,210.5,5.3a42.53,42.53,0,0,1,41.12,0,37.92,37.92,0,0,1,14.45,14.79,43.82,43.82,0,0,1,5.24,21.5,43.75,43.75,0,0,1-5.24,21.49,37.85,37.85,0,0,1-14.45,14.79,42.46,42.46,0,0,1-41.12,0Zm36.81-6a29.89,29.89,0,0,0,11.42-12.06,38.23,38.23,0,0,0,4.19-18.23,37.87,37.87,0,0,0-4.19-18.17,29.86,29.86,0,0,0-11.42-12,33.75,33.75,0,0,0-32.61,0,29.72,29.72,0,0,0-11.42,12,37.76,37.76,0,0,0-4.19,18.17,38.11,38.11,0,0,0,4.19,18.23A29.76,29.76,0,0,0,214.7,71.88a33.82,33.82,0,0,0,32.61,0Z"/><path class="cls-1" d="M347.61,82.36h-8.15l-45.08-68.5v68.5h-8.16V.93h8.16l45.08,68.38V.93h8.15Z"/><path class="cls-1" d="M447.79,47.3a20.08,20.08,0,0,1,4.78,13.28,20.55,20.55,0,0,1-3.09,11.12,21.05,21.05,0,0,1-9,7.81,32.6,32.6,0,0,1-14.21,2.85H398.05V.93h27.37q12.36,0,18.82,5.71a18.83,18.83,0,0,1,6.46,14.8q0,7.57-4.08,12.29a21.43,21.43,0,0,1-10.48,6.58A19.52,19.52,0,0,1,447.79,47.3ZM406.2,36.93h19q8.26,0,12.76-3.9t4.48-10.78q0-6.75-4.48-10.6c-3-2.56-7.36-3.84-13.11-3.84H406.2Zm33.26,34.36q4.95-4.19,5-11.53a14.52,14.52,0,0,0-5.18-11.7Q434,43.68,425.3,43.68H406.2V75.49h19.46Q434.51,75.49,439.46,71.29Z"/><path class="cls-1" d="M514.77,63h-37l-7.11,19.34H462L491.7,2h9.21L530.5,82.36h-8.62Zm-2.45-6.76-16.07-44-16.08,44Z"/><path class="cls-1" d="M554.09,80.38a23.1,23.1,0,0,1-9.61-7.81,20.49,20.49,0,0,1-3.73-11.18h8.62a16.38,16.38,0,0,0,5.24,10.43q4.67,4.49,13.63,4.48c5.52,0,9.88-1.42,13.11-4.25a13.75,13.75,0,0,0,4.83-10.78,12.71,12.71,0,0,0-2.68-8.44,16.32,16.32,0,0,0-6.64-4.77,101.87,101.87,0,0,0-11-3.44A98.12,98.12,0,0,1,553,40.31a20.54,20.54,0,0,1-8.15-6.53q-3.39-4.43-3.38-12a20,20,0,0,1,3.26-11.24,21.78,21.78,0,0,1,9.2-7.74A31.62,31.62,0,0,1,567.54,0q11.31,0,18.24,5.53a20.85,20.85,0,0,1,8,14.27H584.9a14.66,14.66,0,0,0-5.47-8.91Q574.77,7,566.85,7a19,19,0,0,0-12.24,3.9,12.91,12.91,0,0,0-4.89,10.66,12.28,12.28,0,0,0,2.68,8.27,17.11,17.11,0,0,0,6.7,4.78A100.54,100.54,0,0,0,570,38.09a98.39,98.39,0,0,1,12.81,4.37A20.83,20.83,0,0,1,591.07,49q3.39,4.43,3.38,11.89a21,21,0,0,1-3,10.83,22.09,22.09,0,0,1-9,8.27,30,30,0,0,1-14.22,3.15A33.65,33.65,0,0,1,554.09,80.38Z"/><path class="cls-1" d="M620.72,80.38a23.1,23.1,0,0,1-9.61-7.81,20.49,20.49,0,0,1-3.73-11.18H616a16.39,16.39,0,0,0,5.25,10.43q4.65,4.49,13.62,4.48,8.28,0,13.11-4.25a13.75,13.75,0,0,0,4.83-10.78,12.76,12.76,0,0,0-2.67-8.44,16.42,16.42,0,0,0-6.65-4.77,102.31,102.31,0,0,0-10.94-3.44,97.83,97.83,0,0,1-12.94-4.31,20.54,20.54,0,0,1-8.15-6.53q-3.39-4.43-3.38-12a20,20,0,0,1,3.26-11.24,21.75,21.75,0,0,1,9.21-7.74A31.54,31.54,0,0,1,634.17,0q11.31,0,18.24,5.53a20.85,20.85,0,0,1,8,14.27h-8.86a14.66,14.66,0,0,0-5.47-8.91Q641.4,7,633.48,7a19,19,0,0,0-12.23,3.9,12.89,12.89,0,0,0-4.9,10.66A12.28,12.28,0,0,0,619,29.82a17.11,17.11,0,0,0,6.7,4.78,100.54,100.54,0,0,0,10.89,3.49,99.13,99.13,0,0,1,12.82,4.37A21,21,0,0,1,657.71,49q3.38,4.43,3.37,11.89a20.87,20.87,0,0,1-3,10.83,22.09,22.09,0,0,1-9,8.27,30,30,0,0,1-14.22,3.15A33.65,33.65,0,0,1,620.72,80.38Z"/><path class="cls-1" d="M685,7.57V38h30.87v6.75H685V75.6h34.37v6.76H676.81V.82h42.52V7.57Z"/><path class="cls-1" d="M815,2V82.36h-8.16V18.17L778.16,82.36h-5.94L743.56,18.41v64h-8.15V2H744l31.11,69.66L806.23,2Z"/><path class="cls-1" d="M926.8,82.36h-8.15l-45.09-68.5v68.5h-8.15V.93h8.15l45.09,68.38V.93h8.15Z"/><path class="cls-1" d="M953.47,7.57V38h30.87v6.75H953.47V75.6h34.37v6.76H945.32V.82h42.52V7.57Z"/><path class="cls-1" d="M1064.38.93V82.36h-8.16V44.27h-44.15V82.36h-8.15V.93h8.15V37.51h44.15V.93Z"/><path class="cls-1" d="M1130.66.93V7.69h-22.6V82.36h-8.16V7.69h-22.72V.93Z"/><path class="cls-1" d="M1190.76,63h-37l-7.11,19.34H1138L1167.7,2h9.2l29.59,80.38h-8.62Zm-2.44-6.76-16.08-44-16.08,44Z"/><path class="cls-1" d="M1280,.93V82.36h-8.15V44.27h-44.16V82.36h-8.15V.93h8.15V37.51h44.16V.93Z"/><path class="cls-1" d="M369.45,225.05v6.87H324.14v-6.87Z"/><path class="cls-1" d="M430.49,196.85v30.41h30.87V234H430.49v30.87h34.37v6.76H422.34V190.1h42.52v6.75Z"/><path class="cls-1" d="M491.48,269.66a23,23,0,0,1-9.61-7.81,20.41,20.41,0,0,1-3.73-11.18h8.62A16.38,16.38,0,0,0,492,261.1q4.67,4.48,13.63,4.48c5.52,0,9.88-1.42,13.11-4.25a13.75,13.75,0,0,0,4.83-10.78,12.71,12.71,0,0,0-2.68-8.44,16.39,16.39,0,0,0-6.64-4.77,101.87,101.87,0,0,0-10.95-3.44,97.61,97.61,0,0,1-12.93-4.31,20.57,20.57,0,0,1-8.16-6.53q-3.37-4.42-3.37-12a20,20,0,0,1,3.26-11.24,21.78,21.78,0,0,1,9.2-7.74,31.59,31.59,0,0,1,13.63-2.8q11.31,0,18.23,5.53a20.81,20.81,0,0,1,8,14.27h-8.85a14.73,14.73,0,0,0-5.47-8.91q-4.67-3.9-12.59-3.9a19,19,0,0,0-12.23,3.9,12.92,12.92,0,0,0-4.89,10.66,12.28,12.28,0,0,0,2.68,8.27,17,17,0,0,0,6.7,4.78,99.81,99.81,0,0,0,10.89,3.49,98.39,98.39,0,0,1,12.81,4.37,20.9,20.9,0,0,1,8.27,6.58q3.39,4.43,3.38,11.89a21,21,0,0,1-3,10.83,22.05,22.05,0,0,1-9,8.27,29.93,29.93,0,0,1-14.21,3.15A33.59,33.59,0,0,1,491.48,269.66Z"/><path class="cls-1" d="M595.21,190.21V197h-22.6v74.67h-8.15V197H541.74v-6.76Z"/><path class="cls-1" d="M669.82,236.4q11.71-12.75,11.71-25c0-5.36-1.34-9.64-4-12.87s-7-4.83-13.1-4.83-10.47,1.84-13.69,5.53-5,8.6-5.42,14.74h-7.92q.71-12.93,8-20.1t19-7.16q11.3,0,18.28,6.35t7,18q0,14.1-11.7,27.32a183.51,183.51,0,0,1-28.83,25.81h43.1v6.87H636.68v-5.82Q658.12,249.16,669.82,236.4Z"/><path class="cls-1" d="M711.11,198Q717.29,187,733.25,187T755.38,198q6.18,11.07,6.18,31.1,0,20.38-6.18,31.57t-22.13,11.18q-16.08,0-22.19-11.18t-6.12-31.57Q704.94,209.1,711.11,198ZM752,210.83a23.44,23.44,0,0,0-6-12q-4.42-4.54-12.81-4.54t-12.82,4.54a23.42,23.42,0,0,0-5.93,12A92.85,92.85,0,0,0,713,229.12a95.93,95.93,0,0,0,1.52,18.7,23.42,23.42,0,0,0,5.93,12.05q4.44,4.54,12.82,4.55t12.81-4.55a23.44,23.44,0,0,0,6-12.05,97.62,97.62,0,0,0,1.51-18.7A94.49,94.49,0,0,0,752,210.83Z"/><path class="cls-1" d="M772.74,195.45v-7.33h19.8v83.52h-8.27V195.45Z"/><path class="cls-1" d="M842.23,236.4q11.7-12.75,11.7-25c0-5.36-1.34-9.64-4-12.87s-7-4.83-13.1-4.83-10.46,1.84-13.69,5.53-5,8.6-5.42,14.74h-7.92q.71-12.93,8-20.1t19-7.16q11.3,0,18.29,6.35t7,18q0,14.1-11.71,27.32a183.06,183.06,0,0,1-28.83,25.81h43.1v6.87H809.09v-5.82Q830.51,249.16,842.23,236.4Z"/><path class="cls-1" d="M950.5,225.05v6.87H905.18v-6.87Z"/></svg>