<svg id="Layer_1" data-name="Layer 1" xmlns="http://www.w3.org/2000/svg" viewBox="0 0 1280 272.46"><defs><style>.cls-1{fill:#fff;}</style></defs><path class="cls-1" d="M13.34,80.38a23.16,23.16,0,0,1-9.61-7.8A20.55,20.55,0,0,1,0,61.39H8.62a16.37,16.37,0,0,0,5.25,10.43q4.65,4.49,13.62,4.48,8.28,0,13.11-4.25a13.71,13.71,0,0,0,4.83-10.77,12.77,12.77,0,0,0-2.67-8.45,16.42,16.42,0,0,0-6.65-4.77,102.31,102.31,0,0,0-10.94-3.44,96.38,96.38,0,0,1-12.94-4.31,20.54,20.54,0,0,1-8.15-6.53c-2.26-2.94-3.38-7-3.38-12A20,20,0,0,1,4,10.55a21.73,21.73,0,0,1,9.2-7.75A31.62,31.62,0,0,1,26.79,0Q38.1,0,45,5.54a20.83,20.83,0,0,1,8,14.27H44.15a14.65,14.65,0,0,0-5.47-8.92Q34,7,26.1,7a19,19,0,0,0-12.23,3.9A12.89,12.89,0,0,0,9,21.55a12.28,12.28,0,0,0,2.68,8.27,17.11,17.11,0,0,0,6.7,4.78,98.35,98.35,0,0,0,10.89,3.49,98.22,98.22,0,0,1,12.81,4.38,20.84,20.84,0,0,1,8.28,6.58q3.38,4.43,3.37,11.88a20.94,20.94,0,0,1-3,10.83,22,22,0,0,1-9,8.27,30,30,0,0,1-14.22,3.15A33.65,33.65,0,0,1,13.34,80.38Z"/><path class="cls-1" d="M116.61,63h-37l-7.1,19.33H63.84L93.54,2h9.2l29.59,80.38h-8.61Zm-2.45-6.76-16.07-44L82,56.27Z"/><path class="cls-1" d="M153.54,75.72h29.24v6.64h-37.4V.93h8.16Z"/><path class="cls-1" d="M210.5,77.88A38.2,38.2,0,0,1,196,63.08a43.26,43.26,0,0,1-5.31-21.49A43.26,43.26,0,0,1,196,20.1,38.2,38.2,0,0,1,210.5,5.3a42.53,42.53,0,0,1,41.12,0,37.94,37.94,0,0,1,14.45,14.8,43.75,43.75,0,0,1,5.24,21.49,43.75,43.75,0,0,1-5.24,21.49,37.94,37.94,0,0,1-14.45,14.8,42.53,42.53,0,0,1-41.12,0Zm36.81-6a29.89,29.89,0,0,0,11.42-12.06,38.23,38.23,0,0,0,4.19-18.23,37.87,37.87,0,0,0-4.19-18.17,29.86,29.86,0,0,0-11.42-12,33.75,33.75,0,0,0-32.61,0,29.72,29.72,0,0,0-11.42,12,37.76,37.76,0,0,0-4.19,18.17,38.11,38.11,0,0,0,4.19,18.23A29.76,29.76,0,0,0,214.7,71.88a33.82,33.82,0,0,0,32.61,0Z"/><path class="cls-1" d="M347.61,82.36h-8.15L294.38,13.87V82.36h-8.16V.93h8.16l45.08,68.39V.93h8.15Z"/><path class="cls-1" d="M447.79,47.3a20.08,20.08,0,0,1,4.78,13.28,20.55,20.55,0,0,1-3.09,11.12,21.05,21.05,0,0,1-9,7.81,32.6,32.6,0,0,1-14.21,2.85H398.05V.93h27.37q12.36,0,18.82,5.71a18.83,18.83,0,0,1,6.46,14.8q0,7.57-4.08,12.29a21.43,21.43,0,0,1-10.48,6.58A19.56,19.56,0,0,1,447.79,47.3ZM406.2,36.93h19q8.26,0,12.76-3.9t4.48-10.78q0-6.75-4.48-10.6c-3-2.56-7.36-3.84-13.11-3.84H406.2ZM439.46,71.3q4.95-4.2,5-11.54a14.53,14.53,0,0,0-5.18-11.7Q434,43.68,425.3,43.69H406.2v31.8h19.46Q434.51,75.49,439.46,71.3Z"/><path class="cls-1" d="M514.77,63h-37l-7.11,19.33H462L491.7,2h9.21L530.5,82.36h-8.62Zm-2.45-6.76-16.07-44-16.08,44Z"/><path class="cls-1" d="M554.09,80.38a23.16,23.16,0,0,1-9.61-7.8,20.55,20.55,0,0,1-3.73-11.19h8.62a16.35,16.35,0,0,0,5.24,10.43q4.67,4.49,13.63,4.48c5.52,0,9.88-1.41,13.11-4.25a13.71,13.71,0,0,0,4.83-10.77,12.72,12.72,0,0,0-2.68-8.45,16.32,16.32,0,0,0-6.64-4.77,101.87,101.87,0,0,0-11-3.44A96.66,96.66,0,0,1,553,40.31a20.54,20.54,0,0,1-8.15-6.53c-2.26-2.94-3.38-7-3.38-12a20,20,0,0,1,3.26-11.24,21.73,21.73,0,0,1,9.2-7.75A31.62,31.62,0,0,1,567.54,0q11.31,0,18.24,5.54a20.83,20.83,0,0,1,8,14.27H584.9a14.65,14.65,0,0,0-5.47-8.92Q574.77,7,566.85,7a19,19,0,0,0-12.24,3.9,12.91,12.91,0,0,0-4.89,10.66,12.28,12.28,0,0,0,2.68,8.27,17.11,17.11,0,0,0,6.7,4.78A98.35,98.35,0,0,0,570,38.09a98.22,98.22,0,0,1,12.81,4.38,20.75,20.75,0,0,1,8.27,6.58q3.39,4.43,3.38,11.88a20.94,20.94,0,0,1-3,10.83,22,22,0,0,1-9,8.27,30,30,0,0,1-14.22,3.15A33.65,33.65,0,0,1,554.09,80.38Z"/><path class="cls-1" d="M620.72,80.38a23.16,23.16,0,0,1-9.61-7.8,20.55,20.55,0,0,1-3.73-11.19H616a16.37,16.37,0,0,0,5.25,10.43q4.65,4.49,13.62,4.48,8.28,0,13.11-4.25a13.71,13.71,0,0,0,4.83-10.77,12.77,12.77,0,0,0-2.67-8.45,16.42,16.42,0,0,0-6.65-4.77,102.31,102.31,0,0,0-10.94-3.44,96.38,96.38,0,0,1-12.94-4.31,20.54,20.54,0,0,1-8.15-6.53c-2.26-2.94-3.38-7-3.38-12a20,20,0,0,1,3.26-11.24,21.7,21.7,0,0,1,9.21-7.75A31.54,31.54,0,0,1,634.17,0q11.31,0,18.24,5.54a20.83,20.83,0,0,1,8,14.27h-8.86a14.65,14.65,0,0,0-5.47-8.92Q641.4,7,633.48,7a19,19,0,0,0-12.23,3.9,12.89,12.89,0,0,0-4.9,10.66A12.28,12.28,0,0,0,619,29.82a17.11,17.11,0,0,0,6.7,4.78,98.35,98.35,0,0,0,10.89,3.49,99,99,0,0,1,12.82,4.38,20.88,20.88,0,0,1,8.27,6.58q3.38,4.43,3.37,11.88a20.85,20.85,0,0,1-3,10.83,22,22,0,0,1-9,8.27,30,30,0,0,1-14.22,3.15A33.65,33.65,0,0,1,620.72,80.38Z"/><path class="cls-1" d="M685,7.57V38h30.87v6.76H685V75.61h34.37v6.75H676.81V.82h42.52V7.57Z"/><path class="cls-1" d="M815,2V82.36h-8.16V18.17L778.16,82.36h-5.94L743.56,18.41v64h-8.15V2H744l31.11,69.67L806.23,2Z"/><path class="cls-1" d="M926.8,82.36h-8.15L873.56,13.87V82.36h-8.15V.93h8.15l45.09,68.39V.93h8.15Z"/><path class="cls-1" d="M953.47,7.57V38h30.87v6.76H953.47V75.61h34.37v6.75H945.32V.82h42.52V7.57Z"/><path class="cls-1" d="M1064.38.93V82.36h-8.16V44.27h-44.15V82.36h-8.15V.93h8.15V37.51h44.15V.93Z"/><path class="cls-1" d="M1130.66.93V7.69h-22.6V82.36h-8.16V7.69h-22.72V.93Z"/><path class="cls-1" d="M1190.76,63h-37l-7.11,19.33H1138L1167.7,2h9.2l29.59,80.38h-8.62Zm-2.44-6.76-16.08-44-16.08,44Z"/><path class="cls-1" d="M1280,.93V82.36h-8.15V44.27h-44.16V82.36h-8.15V.93h8.15V37.51h44.16V.93Z"/><path class="cls-1" d="M369.45,225.05v6.87H324.14v-6.87Z"/><path class="cls-1" d="M430.49,196.86v30.4h30.87V234H430.49v30.87h34.37v6.75H422.34V190.1h42.52v6.76Z"/><path class="cls-1" d="M491.48,269.66a23.08,23.08,0,0,1-9.61-7.8,20.47,20.47,0,0,1-3.73-11.19h8.62A16.35,16.35,0,0,0,492,261.1q4.67,4.48,13.63,4.48c5.52,0,9.88-1.41,13.11-4.25a13.71,13.71,0,0,0,4.83-10.77,12.72,12.72,0,0,0-2.68-8.45,16.39,16.39,0,0,0-6.64-4.77,101.87,101.87,0,0,0-10.95-3.44,96.16,96.16,0,0,1-12.93-4.31,20.57,20.57,0,0,1-8.16-6.53c-2.25-2.94-3.37-6.95-3.37-12a20,20,0,0,1,3.26-11.24,21.8,21.8,0,0,1,9.2-7.75,31.59,31.59,0,0,1,13.63-2.8q11.31,0,18.23,5.54a20.79,20.79,0,0,1,8,14.27h-8.85a14.73,14.73,0,0,0-5.47-8.92q-4.67-3.9-12.59-3.9a19,19,0,0,0-12.23,3.9,12.92,12.92,0,0,0-4.89,10.66,12.28,12.28,0,0,0,2.68,8.27,17,17,0,0,0,6.7,4.78,97.66,97.66,0,0,0,10.89,3.49,98.22,98.22,0,0,1,12.81,4.38,20.81,20.81,0,0,1,8.27,6.58q3.39,4.42,3.38,11.88a20.94,20.94,0,0,1-3,10.83,22,22,0,0,1-9,8.27,29.93,29.93,0,0,1-14.21,3.15A33.59,33.59,0,0,1,491.48,269.66Z"/><path class="cls-1" d="M595.21,190.21V197h-22.6v74.67h-8.15V197H541.74v-6.76Z"/><path class="cls-1" d="M669.82,236.4q11.71-12.75,11.71-25,0-8-4-12.88t-13.1-4.83q-8.86,0-13.69,5.53T645.3,214h-7.92q.71-12.93,8-20.1t19-7.16q11.3,0,18.28,6.35t7,18q0,14.09-11.7,27.31a183.51,183.51,0,0,1-28.83,25.81h43.1v6.87H636.68v-5.82Q658.12,249.16,669.82,236.4Z"/><path class="cls-1" d="M711.11,198Q717.29,187,733.25,187T755.38,198q6.18,11.07,6.18,31.1,0,20.4-6.18,31.57t-22.13,11.18q-16.08,0-22.19-11.18t-6.12-31.57Q704.94,209.1,711.11,198ZM752,210.83a23.4,23.4,0,0,0-6-12q-4.42-4.54-12.81-4.55t-12.82,4.55a23.38,23.38,0,0,0-5.93,12A92.92,92.92,0,0,0,713,229.12a95.93,95.93,0,0,0,1.52,18.7,23.46,23.46,0,0,0,5.93,12.06q4.44,4.55,12.82,4.54t12.81-4.54a23.48,23.48,0,0,0,6-12.06,97.62,97.62,0,0,0,1.51-18.7A94.56,94.56,0,0,0,752,210.83Z"/><path class="cls-1" d="M772.74,195.45v-7.33h19.8v83.52h-8.27V195.45Z"/><path class="cls-1" d="M842.23,236.4q11.7-12.75,11.7-25,0-8-4-12.88c-2.67-3.22-7-4.83-13.1-4.83s-10.46,1.85-13.69,5.53-5,8.6-5.42,14.74h-7.92q.71-12.93,8-20.1t19-7.16q11.3,0,18.29,6.35t7,18q0,14.09-11.71,27.31a183.06,183.06,0,0,1-28.83,25.81h43.1v6.87H809.09v-5.82Q830.51,249.16,842.23,236.4Z"/><path class="cls-1" d="M950.5,225.05v6.87H905.18v-6.87Z"/></svg>